<svg width="234" height="234" xmlns="http://www.w3.org/2000/svg" xmlns:xlink="http://www.w3.org/1999/xlink" xmlns:dc="http://purl.org/dc/elements/1.1/" overflow="hidden"><defs><clipPath id="clip0"><path d="M199 431 433 431 433 665 199 665Z" fill-rule="evenodd" clip-rule="evenodd"/></clipPath></defs><metadata>OOXML preset shape geometry<dc:publisher>https://xuri.me</dc:publisher><dc:creator>xuri</dc:creator><dc:description>Excelize Official Document</dc:description></metadata><g clip-path="url(#clip0)" transform="translate(-199 -431)"><path d="M204 436 428 436 428 660 204 660ZM232 505.067 232 538.317 243.317 538.317 246.817 534.521 250.083 534.521 250.083 585.271 364.3 585.271 364.3 567.771 382.383 567.771 392.183 577.4 400 577.4 400 515.567 392.183 515.567 385.417 522.271 364.3 522.271 364.3 515.567 357.65 508.567 246.817 508.567 243.317 505.067Z" fill="#B4C7E7" fill-rule="evenodd"/><path d="M232 505.067 232 538.317 243.317 538.317 246.817 534.521 250.083 534.521 250.083 585.271 364.3 585.271 364.3 567.771 382.383 567.771 392.183 577.4 400 577.4 400 515.567 392.183 515.567 385.417 522.271 364.3 522.271 364.3 515.567 357.65 508.567 246.817 508.567 243.317 505.067Z" fill="#6C778B" fill-rule="evenodd"/><path d="M232 505.067 243.317 505.067 246.817 508.567 357.65 508.567 364.3 515.567 364.3 522.271 385.417 522.271 392.183 515.567 400 515.567 400 577.4 392.183 577.4 382.383 567.771 364.3 567.771 364.3 585.271 250.083 585.271 250.083 534.521 246.817 534.521 243.317 538.317 232 538.317Z" stroke="#2F528F" stroke-width="8" stroke-miterlimit="8" fill="none" fill-rule="evenodd"/><rect x="204" y="436" width="224" height="224" stroke="#2F528F" stroke-width="8" stroke-miterlimit="8" fill="none"/></g></svg>