<svg width="210" height="211" xmlns="http://www.w3.org/2000/svg" xmlns:xlink="http://www.w3.org/1999/xlink" xmlns:dc="http://purl.org/dc/elements/1.1/" overflow="hidden"><defs><clipPath id="clip0"><path d="M243 439 453 439 453 650 243 650Z" fill-rule="evenodd" clip-rule="evenodd"/></clipPath></defs><metadata>OOXML preset shape geometry<dc:publisher>https://xuri.me</dc:publisher><dc:creator>xuri</dc:creator><dc:description>Excelize Official Document</dc:description></metadata><g clip-path="url(#clip0)" transform="translate(-243 -439)"><path d="M247 444 449 444 449 645 247 645ZM385.687 544.5 272.625 469.125 272.625 619.875ZM404.531 469.125 423.375 469.125 423.375 619.875 404.531 619.875Z" fill="#B4C7E7" fill-rule="evenodd"/><path d="M385.687 544.5 272.625 469.125 272.625 619.875ZM404.531 469.125 423.375 469.125 423.375 619.875 404.531 619.875Z" fill="#6C778B" fill-rule="evenodd"/><path d="M385.687 544.5 272.625 619.875 272.625 469.125ZM404.531 469.125 423.375 469.125 423.375 619.875 404.531 619.875Z" stroke="#2F528F" stroke-width="8" stroke-miterlimit="8" fill="none" fill-rule="evenodd"/><rect x="247" y="444" width="202" height="201" stroke="#2F528F" stroke-width="8" stroke-miterlimit="8" fill="none"/></g></svg>