<svg width="213" height="214" xmlns="http://www.w3.org/2000/svg" xmlns:xlink="http://www.w3.org/1999/xlink" xmlns:dc="http://purl.org/dc/elements/1.1/" overflow="hidden"><defs><clipPath id="clip0"><path d="M243 435 456 435 456 649 243 649Z" fill-rule="evenodd" clip-rule="evenodd"/></clipPath></defs><metadata>OOXML preset shape geometry<dc:publisher>https://xuri.me</dc:publisher><dc:creator>xuri</dc:creator><dc:description>Excelize Official Document</dc:description></metadata><g clip-path="url(#clip0)" transform="translate(-243 -435)"><path d="M247 440 451 440 451 644 247 644ZM310.75 542 425.5 465.5 425.5 618.5ZM291.625 465.5 272.5 465.5 272.5 618.5 291.625 618.5Z" fill="#B4C7E7" fill-rule="evenodd"/><path d="M310.75 542 425.5 465.5 425.5 618.5ZM291.625 465.5 272.5 465.5 272.5 618.5 291.625 618.5Z" fill="#6C778B" fill-rule="evenodd"/><path d="M310.75 542 425.5 465.5 425.5 618.5ZM291.625 465.5 291.625 618.5 272.5 618.5 272.5 465.5Z" stroke="#2F528F" stroke-width="8" stroke-miterlimit="8" fill="none" fill-rule="evenodd"/><rect x="247" y="440" width="204" height="204" stroke="#2F528F" stroke-width="8" stroke-miterlimit="8" fill="none"/></g></svg>