<svg width="238" height="238" xmlns="http://www.w3.org/2000/svg" xmlns:xlink="http://www.w3.org/1999/xlink" xmlns:dc="http://purl.org/dc/elements/1.1/" overflow="hidden"><defs><clipPath id="clip0"><path d="M191 407 429 407 429 645 191 645Z" fill-rule="evenodd" clip-rule="evenodd"/></clipPath></defs><metadata>OOXML preset shape geometry<dc:publisher>https://xuri.me</dc:publisher><dc:creator>xuri</dc:creator><dc:description>Excelize Official Document</dc:description></metadata><g clip-path="url(#clip0)" transform="translate(-191 -407)"><path d="M196 412 424 412 424 640 196 640ZM395.5 483.25 352.75 440.5 310 483.25 331.375 483.25 331.375 547.375C331.375 559.18 321.805 568.75 310 568.75L288.625 568.75C276.82 568.75 267.25 559.18 267.25 547.375L267.25 483.25 224.5 483.25 224.5 547.375C224.5 582.79 253.21 611.5 288.625 611.5L310 611.5C345.415 611.5 374.125 582.79 374.125 547.375L374.125 483.25Z" fill="#B4C7E7" fill-rule="evenodd"/><path d="M395.5 483.25 352.75 440.5 310 483.25 331.375 483.25 331.375 547.375C331.375 559.18 321.805 568.75 310 568.75L288.625 568.75C276.82 568.75 267.25 559.18 267.25 547.375L267.25 483.25 224.5 483.25 224.5 547.375C224.5 582.79 253.21 611.5 288.625 611.5L310 611.5C345.415 611.5 374.125 582.79 374.125 547.375L374.125 483.25Z" fill="#6C778B" fill-rule="evenodd"/><path d="M395.5 483.25 374.125 483.25 374.125 547.375C374.125 582.79 345.415 611.5 310 611.5L288.625 611.5C253.21 611.5 224.5 582.79 224.5 547.375L224.5 483.25 267.25 483.25 267.25 547.375C267.25 559.18 276.82 568.75 288.625 568.75L310 568.75C321.805 568.75 331.375 559.18 331.375 547.375L331.375 483.25 310 483.25 352.75 440.5Z" stroke="#2F528F" stroke-width="8" stroke-miterlimit="8" fill="none" fill-rule="evenodd"/><rect x="196" y="412" width="228" height="228" stroke="#2F528F" stroke-width="8" stroke-miterlimit="8" fill="none"/></g></svg>