<svg width="211" height="211" xmlns="http://www.w3.org/2000/svg" xmlns:xlink="http://www.w3.org/1999/xlink" xmlns:dc="http://purl.org/dc/elements/1.1/" overflow="hidden"><defs><clipPath id="clip0"><path d="M195 435 406 435 406 646 195 646Z" fill-rule="evenodd" clip-rule="evenodd"/></clipPath></defs><metadata>OOXML preset shape geometry<dc:publisher>https://xuri.me</dc:publisher><dc:creator>xuri</dc:creator><dc:description>Excelize Official Document</dc:description></metadata><g clip-path="url(#clip0)" transform="translate(-195 -435)"><path d="M200 440 401 440 401 641 200 641ZM257.429 508.196C257.429 484.409 276.712 465.125 300.5 465.125 324.288 465.125 343.571 484.409 343.571 508.196 343.571 526.037 333.93 540.5 322.036 540.5 316.089 540.5 311.268 547.731 311.268 556.652L311.268 578.188 289.732 578.188 289.732 556.652C289.732 538.811 299.374 524.348 311.268 524.348 317.215 524.348 322.036 517.117 322.036 508.196 322.036 496.303 312.394 486.661 300.5 486.661 288.606 486.661 278.964 496.303 278.964 508.196ZM300.5 583.571C309.42 583.571 316.652 590.803 316.652 599.723 316.652 608.644 309.42 615.875 300.5 615.875 291.58 615.875 284.348 608.644 284.348 599.723 284.348 590.803 291.58 583.571 300.5 583.571Z" fill="#B4C7E7" fill-rule="evenodd"/><path d="M257.429 508.196C257.429 484.409 276.712 465.125 300.5 465.125 324.288 465.125 343.571 484.409 343.571 508.196 343.571 526.037 333.93 540.5 322.036 540.5 316.089 540.5 311.268 547.731 311.268 556.652L311.268 578.188 289.732 578.188 289.732 556.652C289.732 538.811 299.374 524.348 311.268 524.348 317.215 524.348 322.036 517.117 322.036 508.196 322.036 496.303 312.394 486.661 300.5 486.661 288.606 486.661 278.964 496.303 278.964 508.196ZM300.5 583.571C309.42 583.571 316.652 590.803 316.652 599.723 316.652 608.644 309.42 615.875 300.5 615.875 291.58 615.875 284.348 608.644 284.348 599.723 284.348 590.803 291.58 583.571 300.5 583.571Z" fill="#6C778B" fill-rule="evenodd"/><path d="M257.429 508.196C257.429 484.409 276.712 465.125 300.5 465.125 324.288 465.125 343.571 484.409 343.571 508.196 343.571 526.037 333.93 540.5 322.036 540.5 316.089 540.5 311.268 547.731 311.268 556.652L311.268 578.188 289.732 578.188 289.732 556.652C289.732 538.811 299.374 524.348 311.268 524.348 317.215 524.348 322.036 517.117 322.036 508.196 322.036 496.303 312.394 486.661 300.5 486.661 288.606 486.661 278.964 496.303 278.964 508.196ZM300.5 583.571C309.42 583.571 316.652 590.803 316.652 599.723 316.652 608.644 309.42 615.875 300.5 615.875 291.58 615.875 284.348 608.644 284.348 599.723 284.348 590.803 291.58 583.571 300.5 583.571Z" stroke="#2F528F" stroke-width="8" stroke-miterlimit="8" fill="none" fill-rule="evenodd"/><rect x="200" y="440" width="201" height="201" stroke="#2F528F" stroke-width="8" stroke-miterlimit="8" fill="none"/></g></svg>