<svg width="208" height="209" xmlns="http://www.w3.org/2000/svg" xmlns:xlink="http://www.w3.org/1999/xlink" xmlns:dc="http://purl.org/dc/elements/1.1/" overflow="hidden"><defs><clipPath id="clip0"><path d="M244 420 452 420 452 629 244 629Z" fill-rule="evenodd" clip-rule="evenodd"/></clipPath></defs><metadata>OOXML preset shape geometry<dc:publisher>https://xuri.me</dc:publisher><dc:creator>xuri</dc:creator><dc:description>Excelize Official Document</dc:description></metadata><g clip-path="url(#clip0)" transform="translate(-244 -420)"><path d="M247 424 449 424 449 625 247 625ZM291.469 449.125 366.844 449.125 404.531 486.812 404.531 599.875 291.469 599.875Z" fill="#B4C7E7" fill-rule="evenodd"/><path d="M291.469 449.125 366.844 449.125 366.844 486.812 404.531 486.812 404.531 599.875 291.469 599.875Z" fill="#91A0BA" fill-rule="evenodd"/><path d="M366.844 449.125 366.844 486.812 404.531 486.812Z" fill="#6C778B" fill-rule="evenodd"/><path d="M291.469 449.125 366.844 449.125 404.531 486.812 404.531 599.875 291.469 599.875ZM404.531 486.812 366.844 486.812 366.844 449.125" stroke="#2F528F" stroke-width="6" stroke-miterlimit="8" fill="none" fill-rule="evenodd"/><rect x="247" y="424" width="202" height="201" stroke="#2F528F" stroke-width="6" stroke-miterlimit="8" fill="none"/></g></svg>