<svg width="259" height="259" xmlns="http://www.w3.org/2000/svg" xmlns:xlink="http://www.w3.org/1999/xlink" xmlns:dc="http://purl.org/dc/elements/1.1/" overflow="hidden"><defs><clipPath id="clip0"><path d="M783 415 1042 415 1042 674 783 674Z" fill-rule="evenodd" clip-rule="evenodd"/></clipPath></defs><metadata>OOXML preset shape geometry<dc:publisher>https://xuri.me</dc:publisher><dc:creator>xuri</dc:creator><dc:description>Excelize Official Document</dc:description></metadata><g clip-path="url(#clip0)" transform="translate(-783 -415)"><rect x="818.25" y="450.25" width="187.5" height="187.5" fill="#B4C7E7"/><path d="M787 419 1037 419 1005.75 450.25 818.25 450.25Z" fill="#C3D2EC" fill-rule="evenodd"/><path d="M787 669 818.25 637.75 1005.75 637.75 1037 669Z" fill="#91A0BA" fill-rule="evenodd"/><path d="M787 419 818.25 450.25 818.25 637.75 787 669Z" fill="#D2DDF1" fill-rule="evenodd"/><path d="M1037 419 1037 669 1005.75 637.75 1005.75 450.25Z" fill="#6C778B" fill-rule="evenodd"/><path d="M787 419 1037 419 1037 669 787 669ZM818.25 450.25 1005.75 450.25 1005.75 637.75 818.25 637.75ZM787 419 818.25 450.25M787 669 818.25 637.75M1037 419 1005.75 450.25M1037 669 1005.75 637.75" stroke="#2F528F" stroke-width="8" stroke-miterlimit="8" fill="none" fill-rule="evenodd"/></g></svg>