<svg width="234" height="234" xmlns="http://www.w3.org/2000/svg" xmlns:xlink="http://www.w3.org/1999/xlink" xmlns:dc="http://purl.org/dc/elements/1.1/" overflow="hidden"><defs><clipPath id="clip0"><path d="M734 418 968 418 968 652 734 652Z" fill-rule="evenodd" clip-rule="evenodd"/></clipPath></defs><metadata>OOXML preset shape geometry<dc:publisher>https://xuri.me</dc:publisher><dc:creator>xuri</dc:creator><dc:description>Excelize Official Document</dc:description></metadata><g clip-path="url(#clip0)" transform="translate(-734 -418)"><path d="M738 459.501C738 438.79 754.79 422 775.501 422L925.499 422C946.21 422 963 438.79 963 459.501L963 609.499C963 630.21 946.21 647 925.499 647L775.501 647C754.79 647 738 630.21 738 609.499Z" fill="#B4C7E7" fill-rule="evenodd"/><path d="M775.501 647C754.79 647 738 630.21 738 609.499L738 459.501C738 438.79 754.79 422 775.501 422M925.499 422C946.21 422 963 438.79 963 459.501L963 609.499C963 630.21 946.21 647 925.499 647" stroke="#4472C4" stroke-width="8" stroke-miterlimit="8" fill="none" fill-rule="evenodd"/></g></svg>