<svg width="250" height="250" xmlns="http://www.w3.org/2000/svg" xmlns:xlink="http://www.w3.org/1999/xlink" xmlns:dc="http://purl.org/dc/elements/1.1/" overflow="hidden"><defs><clipPath id="clip0"><path d="M773 448 1023 448 1023 698 773 698Z" fill-rule="evenodd" clip-rule="evenodd"/></clipPath></defs><metadata>OOXML preset shape geometry<dc:publisher>https://xuri.me</dc:publisher><dc:creator>xuri</dc:creator><dc:description>Excelize Official Document</dc:description></metadata><g clip-path="url(#clip0)" transform="translate(-773 -448)"><path d="M799.667 531.833C796.874 503.893 811.254 478.163 831.784 474.362 840.104 472.822 848.562 475.124 855.806 480.9 863.482 461.209 881.42 453.725 895.87 464.185 898.397 466.014 900.716 468.332 902.756 471.067 908.734 454.745 923.296 448.113 935.28 456.255 938.597 458.509 941.491 461.768 943.739 465.783 953.374 450.347 970.401 448.44 981.77 461.524 986.548 467.023 989.768 474.608 990.878 482.978 1006.67 488.841 1015.98 511.048 1011.68 532.579 1011.32 534.39 1010.87 536.163 1010.32 537.887 1022.99 560.323 1019.89 592.479 1003.4 609.711 998.269 615.075 992.208 618.548 985.802 619.795 985.66 643.932 971.156 663.342 953.406 663.148 947.476 663.084 941.675 660.789 936.645 656.518 930.641 683.579 909.701 698.874 889.873 690.681 881.563 687.247 874.383 679.985 869.558 670.134 849.257 686.8 822.906 677.835 810.703 650.11 810.549 649.761 810.398 649.409 810.25 649.056 796.963 651.172 784.928 638.269 783.369 620.235 782.538 610.622 784.869 601.001 789.742 593.935 778.238 584.717 774.373 564.484 781.11 548.744 784.997 539.663 791.814 533.66 799.464 532.581Z" stroke="#2F528F" stroke-width="8" stroke-miterlimit="8" fill="#B4C7E7" fill-rule="evenodd"/><path d="M804.072 597.428C799.161 597.951 794.25 596.406 789.999 593M816.489 645.883C814.514 646.953 812.444 647.666 810.332 648.003M869.544 669.167C868.059 666.134 866.815 662.893 865.835 659.5M938.15 645.061C937.932 648.658 937.435 652.214 936.669 655.668M967.606 579.522C978.741 586.899 985.768 602.321 985.669 619.165M1010.21 537.3C1008.41 543.036 1005.65 548.124 1002.17 552.165M990.911 482.144C991.218 484.461 991.361 486.812 991.336 489.165M939.544 473.956C940.592 470.717 941.98 467.701 943.665 465.003M901.006 478.222C901.433 475.546 902.104 472.952 903.001 470.501M855.778 480.844C858.399 482.934 860.824 485.45 862.999 488.335M800.928 539.717C800.356 537.139 799.934 534.504 799.667 531.835" stroke="#2F528F" stroke-width="8" stroke-miterlimit="8" fill="none" fill-rule="evenodd"/></g></svg>