<svg width="270" height="209" xmlns="http://www.w3.org/2000/svg" xmlns:xlink="http://www.w3.org/1999/xlink" xmlns:dc="http://purl.org/dc/elements/1.1/" overflow="hidden"><defs><clipPath id="clip0"><path d="M785 448 1055 448 1055 657 785 657Z" fill-rule="evenodd" clip-rule="evenodd"/></clipPath></defs><metadata>OOXML preset shape geometry<dc:publisher>https://xuri.me</dc:publisher><dc:creator>xuri</dc:creator><dc:description>Excelize Official Document</dc:description></metadata><g clip-path="url(#clip0)" transform="translate(-785 -448)"><path d="M813.472 509.879C810.447 489.623 826.025 470.968 848.266 468.213 857.279 467.096 866.442 468.765 874.29 472.953 882.606 458.676 902.038 453.251 917.693 460.834 920.43 462.16 922.943 463.841 925.152 465.824 931.628 453.99 947.404 449.182 960.387 455.085 963.98 456.719 967.115 459.082 969.55 461.992 979.989 450.801 998.435 449.419 1010.75 458.905 1015.93 462.892 1019.42 468.391 1020.62 474.459 1037.72 478.709 1047.81 494.81 1043.15 510.42 1042.76 511.732 1042.27 513.018 1041.68 514.268 1055.4 530.534 1052.04 553.848 1034.18 566.341 1028.62 570.23 1022.06 572.747 1015.12 573.651 1014.96 591.151 999.252 605.223 980.023 605.083 973.599 605.036 967.315 603.372 961.865 600.276 955.361 619.895 932.676 630.984 911.195 625.043 902.193 622.554 894.415 617.289 889.188 610.147 867.195 622.23 838.649 615.731 825.428 595.63 825.262 595.377 825.098 595.122 824.937 594.865 810.544 596.4 797.506 587.045 795.816 573.97 794.916 567.001 797.442 560.026 802.72 554.903 790.258 548.22 786.071 533.551 793.37 522.139 797.58 515.556 804.965 511.204 813.253 510.421Z" fill="#B4C7E7" fill-rule="evenodd"/><path d="M870.667 647.75C870.667 650.419 868.503 652.583 865.834 652.583 863.165 652.583 861.001 650.419 861.001 647.75 861.001 645.081 863.165 642.917 865.834 642.917 868.503 642.917 870.667 645.081 870.667 647.75Z" fill="#B4C7E7" fill-rule="evenodd"/><path d="M878.417 641.896C878.417 647.235 874.089 651.563 868.75 651.563 863.411 651.563 859.083 647.235 859.083 641.896 859.083 636.557 863.411 632.229 868.75 632.229 874.089 632.229 878.417 636.557 878.417 641.896Z" fill="#B4C7E7" fill-rule="evenodd"/><path d="M890.475 627.39C890.475 635.398 883.984 641.889 875.975 641.889 867.967 641.889 861.476 635.398 861.476 627.39 861.476 619.381 867.967 612.89 875.975 612.89 883.984 612.89 890.475 619.381 890.475 627.39Z" fill="#B4C7E7" fill-rule="evenodd"/><path d="M813.472 509.879C810.447 489.623 826.025 470.968 848.266 468.213 857.279 467.096 866.442 468.765 874.29 472.953 882.606 458.676 902.038 453.251 917.693 460.834 920.43 462.16 922.943 463.841 925.152 465.824 931.628 453.99 947.404 449.182 960.387 455.085 963.98 456.719 967.115 459.082 969.55 461.992 979.989 450.801 998.435 449.419 1010.75 458.905 1015.93 462.892 1019.42 468.391 1020.62 474.459 1037.72 478.709 1047.81 494.81 1043.15 510.42 1042.76 511.732 1042.27 513.018 1041.68 514.268 1055.4 530.534 1052.04 553.848 1034.18 566.341 1028.62 570.23 1022.06 572.747 1015.12 573.651 1014.96 591.151 999.252 605.223 980.023 605.083 973.599 605.036 967.315 603.372 961.865 600.276 955.361 619.895 932.676 630.984 911.195 625.043 902.193 622.554 894.415 617.289 889.188 610.147 867.195 622.23 838.649 615.731 825.428 595.63 825.262 595.377 825.098 595.122 824.937 594.865 810.544 596.4 797.506 587.045 795.816 573.97 794.916 567.001 797.442 560.026 802.72 554.903 790.258 548.22 786.071 533.551 793.37 522.139 797.58 515.556 804.965 511.204 813.253 510.421Z" stroke="#2F528F" stroke-width="8" stroke-miterlimit="8" fill="none" fill-rule="evenodd"/><path d="M870.667 647.75C870.667 650.419 868.503 652.583 865.834 652.583 863.165 652.583 861.001 650.419 861.001 647.75 861.001 645.081 863.165 642.917 865.834 642.917 868.503 642.917 870.667 645.081 870.667 647.75Z" stroke="#2F528F" stroke-width="8" stroke-miterlimit="8" fill="none" fill-rule="evenodd"/><path d="M878.417 641.896C878.417 647.235 874.089 651.563 868.75 651.563 863.411 651.563 859.083 647.235 859.083 641.896 859.083 636.557 863.411 632.229 868.75 632.229 874.089 632.229 878.417 636.557 878.417 641.896Z" stroke="#2F528F" stroke-width="8" stroke-miterlimit="8" fill="none" fill-rule="evenodd"/><path d="M890.475 627.39C890.475 635.398 883.984 641.889 875.975 641.889 867.967 641.889 861.476 635.398 861.476 627.39 861.476 619.381 867.967 612.89 875.975 612.89 883.984 612.89 890.475 619.381 890.475 627.39Z" stroke="#2F528F" stroke-width="8" stroke-miterlimit="8" fill="none" fill-rule="evenodd"/><path d="M818.245 557.435C812.924 557.815 807.604 556.694 802.999 554.225M831.696 592.565C829.557 593.341 827.314 593.858 825.026 594.102M889.173 609.446C887.564 607.247 886.217 604.898 885.154 602.437M963.496 591.969C963.259 594.577 962.721 597.155 961.891 599.659M995.406 544.454C1007.47 549.802 1015.08 560.983 1014.97 573.194M1041.56 513.843C1039.61 518.001 1036.63 521.69 1032.85 524.62M1020.65 473.855C1020.99 475.534 1021.14 477.238 1021.11 478.944M965.006 467.918C966.142 465.57 967.645 463.383 969.47 461.427M923.256 471.011C923.719 469.071 924.445 467.19 925.418 465.413M874.259 472.912C877.099 474.427 879.726 476.251 882.083 478.343M814.838 515.595C814.219 513.726 813.762 511.815 813.473 509.881" stroke="#2F528F" stroke-width="8" stroke-miterlimit="8" fill="none" fill-rule="evenodd"/></g></svg>