<svg width="167" height="272" xmlns="http://www.w3.org/2000/svg" xmlns:xlink="http://www.w3.org/1999/xlink" xmlns:dc="http://purl.org/dc/elements/1.1/" overflow="hidden"><defs><clipPath id="clip0"><path d="M823 411 990 411 990 683 823 683Z" fill-rule="evenodd" clip-rule="evenodd"/></clipPath></defs><metadata>OOXML preset shape geometry<dc:publisher>https://xuri.me</dc:publisher><dc:creator>xuri</dc:creator><dc:description>Excelize Official Document</dc:description></metadata><g clip-path="url(#clip0)" transform="translate(-823 -411)"><path d="M829 636.75 868.25 594.307 868.25 613.932C926.627 604.277 971.215 574.063 982.981 536.187 999.233 588.504 948.884 639.846 868.25 653.182L868.25 672.807Z" fill="#B4C7E7" fill-rule="evenodd"/><path d="M986 555.813C986 500.273 915.709 455.25 829 455.25L829 416C915.709 416 986 461.023 986 516.563Z" fill="#91A0BA" fill-rule="evenodd"/><path d="M986 555.813C986 500.273 915.709 455.25 829 455.25L829 416C915.709 416 986 461.023 986 516.563L986 555.813C986 601.669 937.568 641.718 868.25 653.182L868.25 672.807 829 636.75 868.25 594.307 868.25 613.932C926.627 604.277 971.215 574.063 982.981 536.187" stroke="#2F528F" stroke-width="8" stroke-miterlimit="8" fill="none" fill-rule="evenodd"/></g></svg>