<svg width="327" height="202" xmlns="http://www.w3.org/2000/svg" xmlns:xlink="http://www.w3.org/1999/xlink" xmlns:dc="http://purl.org/dc/elements/1.1/" overflow="hidden"><defs><clipPath id="clip0"><path d="M767 446 1094 446 1094 648 767 648Z" fill-rule="evenodd" clip-rule="evenodd"/></clipPath></defs><metadata>OOXML preset shape geometry<dc:publisher>https://xuri.me</dc:publisher><dc:creator>xuri</dc:creator><dc:description>Excelize Official Document</dc:description></metadata><g clip-path="url(#clip0)" transform="translate(-767 -446)"><path d="M1040.25 452 1084.1 499.75 1060.23 499.75C1043.97 597.806 981.37 659.056 917.563 639.349 963.801 625.068 1000.69 570.807 1012.48 499.75L988.604 499.75Z" fill="#B4C7E7" fill-rule="evenodd"/><path d="M893.687 643C825.929 643 771 557.486 771 452L818.75 452C818.75 557.486 873.679 643 941.437 643Z" fill="#91A0BA" fill-rule="evenodd"/><path d="M917.563 639.348C963.801 625.067 1000.69 570.806 1012.48 499.75L988.604 499.75 1040.25 452 1084.1 499.75 1060.23 499.75C1046.24 584.08 997.383 643 941.438 643L893.687 643C825.929 643 771 557.486 771 452L818.75 452C818.75 557.486 873.679 643 941.437 643" stroke="#2F528F" stroke-width="8" stroke-miterlimit="8" fill="none" fill-rule="evenodd"/></g></svg>