<svg width="272" height="272" xmlns="http://www.w3.org/2000/svg" xmlns:xlink="http://www.w3.org/1999/xlink" xmlns:dc="http://purl.org/dc/elements/1.1/" overflow="hidden"><defs><clipPath id="clip0"><path d="M824 421 1096 421 1096 693 824 693Z" fill-rule="evenodd" clip-rule="evenodd"/></clipPath></defs><metadata>OOXML preset shape geometry<dc:publisher>https://xuri.me</dc:publisher><dc:creator>xuri</dc:creator><dc:description>Excelize Official Document</dc:description></metadata><g clip-path="url(#clip0)" transform="translate(-824 -421)"><path d="M829 557C829 484.651 887.651 426 960 426 1032.35 426 1091 484.651 1091 557 1091 629.349 1032.35 688 960 688 887.651 688 829 629.349 829 557ZM894.5 557C894.5 593.175 923.825 622.5 960 622.5 996.175 622.5 1025.5 593.175 1025.5 557 1025.5 520.825 996.175 491.5 960 491.5 923.825 491.5 894.5 520.825 894.5 557Z" stroke="#2F528F" stroke-width="8" stroke-miterlimit="8" fill="#B4C7E7" fill-rule="evenodd"/></g></svg>