<svg width="341" height="214" xmlns="http://www.w3.org/2000/svg" xmlns:xlink="http://www.w3.org/1999/xlink" xmlns:dc="http://purl.org/dc/elements/1.1/" overflow="hidden"><defs><clipPath id="clip0"><path d="M730 448 1071 448 1071 662 730 662Z" fill-rule="evenodd" clip-rule="evenodd"/></clipPath></defs><metadata>OOXML preset shape geometry<dc:publisher>https://xuri.me</dc:publisher><dc:creator>xuri</dc:creator><dc:description>Excelize Official Document</dc:description></metadata><g clip-path="url(#clip0)" transform="translate(-730 -448)"><path d="M738 655C778.5 642.313 819 634.383 859.5 631.211L819 610.594C873 602.135 927 602.135 981 610.594L940.5 631.211C981 634.383 1021.5 642.313 1062 655L1021.5 567.773 1062 502.75C1035 494.292 1008 487.948 981 483.719L981 458.344C927 449.885 873 449.885 819 458.344L819 483.719C792 487.948 765 494.292 738 502.75L778.5 567.773Z" fill="#B4C7E7" fill-rule="evenodd"/><path d="M859.5 605.836 859.5 631.211 819 610.594C873 602.135 927 602.135 981 610.594L940.5 631.211 940.5 605.836C913.5 603.721 886.5 603.721 859.5 605.836Z" fill="#91A0BA" fill-rule="evenodd"/><path d="M738 655 778.5 567.773 738 502.75C765 494.292 792 487.948 819 483.719L819 458.344C873 449.885 927 449.885 981 458.344L981 483.719C1008 487.948 1035 494.292 1062 502.75L1021.5 567.773 1062 655C1021.5 642.313 981 634.383 940.5 631.211L981 610.594C927 602.135 873 602.135 819 610.594L859.5 631.211C819 634.383 778.5 642.313 738 655ZM819 610.594 819 483.719M981 483.719 981 610.594M859.5 605.836 859.5 631.211M940.5 631.211 940.5 605.836" stroke="#2F528F" stroke-width="8" stroke-miterlimit="8" fill="none" fill-rule="evenodd"/></g></svg>