<svg width="323" height="203" xmlns="http://www.w3.org/2000/svg" xmlns:xlink="http://www.w3.org/1999/xlink" xmlns:dc="http://purl.org/dc/elements/1.1/" overflow="hidden"><defs><clipPath id="clip0"><path d="M730 445 1053 445 1053 648 730 648Z" fill-rule="evenodd" clip-rule="evenodd"/></clipPath></defs><metadata>OOXML preset shape geometry<dc:publisher>https://xuri.me</dc:publisher><dc:creator>xuri</dc:creator><dc:description>Excelize Official Document</dc:description></metadata><g clip-path="url(#clip0)" transform="translate(-730 -445)"><path d="M738 452C776.25 463.938 814.5 471.398 852.75 474.383L814.5 493.781C865.5 501.74 916.5 501.74 967.5 493.781L929.25 474.383C967.5 471.398 1005.75 463.938 1044 452L1005.75 534.07 1044 595.25C1018.5 603.208 993 609.177 967.5 613.156L967.5 637.031C916.5 644.99 865.5 644.99 814.5 637.031L814.5 613.156C789 609.177 763.5 603.208 738 595.25L776.25 534.07Z" fill="#B4C7E7" fill-rule="evenodd"/><path d="M852.75 498.258 852.75 474.383 814.5 493.781C865.5 501.74 916.5 501.74 967.5 493.781L929.25 474.383 929.25 498.258C903.75 500.247 878.25 500.247 852.75 498.258Z" fill="#91A0BA" fill-rule="evenodd"/><path d="M738 452C776.25 463.938 814.5 471.398 852.75 474.383L814.5 493.781C865.5 501.74 916.5 501.74 967.5 493.781L929.25 474.383C967.5 471.398 1005.75 463.938 1044 452L1005.75 534.07 1044 595.25C1018.5 603.208 993 609.177 967.5 613.156L967.5 637.031C916.5 644.99 865.5 644.99 814.5 637.031L814.5 613.156C789 609.177 763.5 603.208 738 595.25L776.25 534.07ZM814.5 613.156 814.5 493.781M967.5 493.781 967.5 613.156M852.75 474.383 852.75 498.258M929.25 498.258 929.25 474.383" stroke="#2F528F" stroke-width="8" stroke-miterlimit="8" fill="none" fill-rule="evenodd"/></g></svg>