<svg width="292" height="199" xmlns="http://www.w3.org/2000/svg" xmlns:xlink="http://www.w3.org/1999/xlink" xmlns:dc="http://purl.org/dc/elements/1.1/" overflow="hidden"><defs><clipPath id="clip0"><path d="M734 451 1026 451 1026 650 734 650Z" fill-rule="evenodd" clip-rule="evenodd"/></clipPath></defs><metadata>OOXML preset shape geometry<dc:publisher>https://xuri.me</dc:publisher><dc:creator>xuri</dc:creator><dc:description>Excelize Official Document</dc:description></metadata><g clip-path="url(#clip0)" transform="translate(-734 -451)"><path d="M738 487.5C738 470.103 801.352 456 879.5 456 957.648 456 1021 470.103 1021 487.5L1021 613.5C1021 630.897 957.648 645 879.5 645 801.352 645 738 630.897 738 613.5Z" fill="#B4C7E7" fill-rule="evenodd"/><path d="M1021 487.5C1021 504.897 957.648 519 879.5 519 801.352 519 738 504.897 738 487.5" stroke="#2F528F" stroke-width="8" stroke-miterlimit="8" fill="none" fill-rule="evenodd"/><path d="M738 487.5C738 470.103 801.352 456 879.5 456 957.648 456 1021 470.103 1021 487.5L1021 613.5C1021 630.897 957.648 645 879.5 645 801.352 645 738 630.897 738 613.5Z" stroke="#2F528F" stroke-width="8" stroke-miterlimit="8" fill="none" fill-rule="evenodd"/></g></svg>