<svg width="251" height="191" xmlns="http://www.w3.org/2000/svg" xmlns:xlink="http://www.w3.org/1999/xlink" xmlns:dc="http://purl.org/dc/elements/1.1/" overflow="hidden"><defs><clipPath id="clip0"><path d="M776 451 1027 451 1027 642 776 642Z" fill-rule="evenodd" clip-rule="evenodd"/></clipPath></defs><metadata>OOXML preset shape geometry<dc:publisher>https://xuri.me</dc:publisher><dc:creator>xuri</dc:creator><dc:description>Excelize Official Document</dc:description></metadata><g clip-path="url(#clip0)" transform="translate(-776 -451)"><path d="M821.167 456 981.833 456C1004.02 456 1022 496.518 1022 546.5 1022 596.482 1004.02 637 981.833 637L821.167 637C798.983 637 781 596.482 781 546.5 781 496.518 798.983 456 821.167 456Z" fill="#B4C7E7" fill-rule="evenodd"/><path d="M981.833 637C959.65 637 941.667 596.482 941.667 546.5 941.667 496.518 959.65 456 981.833 456" stroke="#2F528F" stroke-width="8" stroke-miterlimit="8" fill="none" fill-rule="evenodd"/><path d="M821.167 456 981.833 456C1004.02 456 1022 496.518 1022 546.5 1022 596.482 1004.02 637 981.833 637L821.167 637C798.983 637 781 596.482 781 546.5 781 496.518 798.983 456 821.167 456Z" stroke="#2F528F" stroke-width="8" stroke-miterlimit="8" fill="none" fill-rule="evenodd"/></g></svg>