<svg width="187" height="187" xmlns="http://www.w3.org/2000/svg" xmlns:xlink="http://www.w3.org/1999/xlink" xmlns:dc="http://purl.org/dc/elements/1.1/" overflow="hidden"><defs><clipPath id="clip0"><path d="M734 448 921 448 921 635 734 635Z" fill-rule="evenodd" clip-rule="evenodd"/></clipPath></defs><metadata>OOXML preset shape geometry<dc:publisher>https://xuri.me</dc:publisher><dc:creator>xuri</dc:creator><dc:description>Excelize Official Document</dc:description></metadata><g clip-path="url(#clip0)" transform="translate(-734 -448)"><path d="M738 541C738 491.847 778.07 452 827.5 452 876.929 452 917 491.847 917 541 917 590.153 876.929 630 827.5 630 778.07 630 738 590.153 738 541Z" fill="#B4C7E7" fill-rule="evenodd"/><path d="M827.5 452 827.5 630M738 541 917 541" stroke="#2F528F" stroke-width="8" stroke-miterlimit="8" fill="none" fill-rule="evenodd"/><path d="M738 541C738 491.847 778.07 452 827.5 452 876.929 452 917 491.847 917 541 917 590.153 876.929 630 827.5 630 778.07 630 738 590.153 738 541Z" stroke="#2F528F" stroke-width="8" stroke-miterlimit="8" fill="none" fill-rule="evenodd"/></g></svg>