<svg width="233" height="233" xmlns="http://www.w3.org/2000/svg" xmlns:xlink="http://www.w3.org/1999/xlink" xmlns:dc="http://purl.org/dc/elements/1.1/" overflow="hidden"><defs><clipPath id="clip0"><path d="M789 418 1022 418 1022 651 789 651Z" fill-rule="evenodd" clip-rule="evenodd"/></clipPath></defs><metadata>OOXML preset shape geometry<dc:publisher>https://xuri.me</dc:publisher><dc:creator>xuri</dc:creator><dc:description>Excelize Official Document</dc:description></metadata><g clip-path="url(#clip0)" transform="translate(-789 -418)"><path d="M794 534C794 472.144 844.144 422 906 422 967.856 422 1018 472.144 1018 534 1018 595.856 967.856 646 906 646 844.144 646 794 595.856 794 534Z" fill="#B4C7E7" fill-rule="evenodd"/><path d="M826.804 454.804 985.196 613.196M985.196 454.804 826.804 613.196" stroke="#2F528F" stroke-width="8" stroke-miterlimit="8" fill="none" fill-rule="evenodd"/><path d="M794 534C794 472.144 844.144 422 906 422 967.856 422 1018 472.144 1018 534 1018 595.856 967.856 646 906 646 844.144 646 794 595.856 794 534Z" stroke="#2F528F" stroke-width="8" stroke-miterlimit="8" fill="none" fill-rule="evenodd"/></g></svg>