<svg width="320" height="258" xmlns="http://www.w3.org/2000/svg" xmlns:xlink="http://www.w3.org/1999/xlink" xmlns:dc="http://purl.org/dc/elements/1.1/" overflow="hidden"><defs><clipPath id="clip0"><path d="M831 415 1151 415 1151 673 831 673Z" fill-rule="evenodd" clip-rule="evenodd"/></clipPath></defs><metadata>OOXML preset shape geometry<dc:publisher>https://xuri.me</dc:publisher><dc:creator>xuri</dc:creator><dc:description>Excelize Official Document</dc:description></metadata><g clip-path="url(#clip0)" transform="translate(-831 -415)"><path d="M838.999 490.847C827.162 457.074 885.843 425.847 970.067 421.101 1054.29 416.354 1132.16 439.885 1144 473.658 1146 479.36 1146 485.145 1144 490.847L1029.63 654.22C1026.67 662.664 1007.2 668.546 986.142 667.36 969.133 666.401 955.765 661.041 953.375 654.22ZM849.851 482.253C849.851 509.537 913.269 531.655 991.5 531.655 1069.73 531.655 1133.15 509.537 1133.15 482.253 1133.15 454.969 1069.73 432.851 991.5 432.851 913.269 432.851 849.851 454.969 849.851 482.253Z" stroke="#2F528F" stroke-width="9" stroke-miterlimit="8" fill="#B4C7E7" fill-rule="evenodd" fill-opacity="0.4"/></g></svg>