<svg width="346" height="232" xmlns="http://www.w3.org/2000/svg" xmlns:xlink="http://www.w3.org/1999/xlink" xmlns:dc="http://purl.org/dc/elements/1.1/" overflow="hidden"><defs><clipPath id="clip0"><path d="M819 404 1165 404 1165 636 819 636Z" fill-rule="evenodd" clip-rule="evenodd"/></clipPath></defs><metadata>OOXML preset shape geometry<dc:publisher>https://xuri.me</dc:publisher><dc:creator>xuri</dc:creator><dc:description>Excelize Official Document</dc:description></metadata><g clip-path="url(#clip0)" transform="translate(-819 -404)"><path d="M1062.99 444.533 1089.13 429.782 1110.01 441.566 1092.95 461.439C1105.08 470.618 1114.3 481.363 1120.06 493.018L1154.17 493.018 1158.91 511.072 1126.85 518.92C1127.37 531.196 1124.16 543.415 1117.43 554.83L1143.57 569.581 1129.94 585.458 1097.88 577.608C1086.55 587.237 1072.42 595.212 1056.35 601.047L1062.28 623.647 1036.66 629.917 1019.61 610.042C1001.72 612.519 983.277 612.519 965.394 610.042L948.336 629.917 922.724 623.647 928.649 601.047C912.583 595.212 898.453 587.237 887.12 577.608L855.06 585.458 841.432 569.581 867.569 554.83C860.837 543.415 857.634 531.196 858.155 518.92L826.094 511.072 830.827 493.018 864.945 493.018C870.698 481.363 879.92 470.618 892.051 461.439L874.991 441.566 895.87 429.782 922.006 444.533C937.551 438.092 954.884 433.848 972.948 432.062L978.872 409.462 1006.13 409.462 1012.05 432.062C1030.12 433.848 1047.45 438.092 1062.99 444.533Z" stroke="#2F528F" stroke-width="9" stroke-miterlimit="8" fill="#B4C7E7" fill-rule="evenodd"/></g></svg>