<svg width="279" height="239" xmlns="http://www.w3.org/2000/svg" xmlns:xlink="http://www.w3.org/1999/xlink" xmlns:dc="http://purl.org/dc/elements/1.1/" overflow="hidden"><defs><clipPath id="clip0"><path d="M835 421 1114 421 1114 660 835 660Z" fill-rule="evenodd" clip-rule="evenodd"/></clipPath></defs><metadata>OOXML preset shape geometry<dc:publisher>https://xuri.me</dc:publisher><dc:creator>xuri</dc:creator><dc:description>Excelize Official Document</dc:description></metadata><g clip-path="url(#clip0)" transform="translate(-835 -421)"><path d="M1048.23 483.513 1091.76 473.153 1107.77 495.061 1074.65 519.651C1079.45 533.631 1079.45 548.369 1074.65 562.349L1107.77 586.939 1091.76 608.847 1048.23 598.487C1035.3 608.761 1019.15 616.13 1001.42 619.836L991.015 654.786 958.985 654.786 948.584 619.836C930.855 616.13 914.695 608.761 901.767 598.487L858.245 608.847 842.23 586.939 875.351 562.349C870.55 548.369 870.55 533.631 875.351 519.651L842.23 495.061 858.245 473.153 901.767 483.513C914.695 473.239 930.855 465.87 948.584 462.164L958.985 427.214 991.015 427.214 1001.42 462.164C1019.15 465.87 1035.3 473.239 1048.23 483.513Z" stroke="#2F528F" stroke-width="9" stroke-miterlimit="8" fill="#B4C7E7" fill-rule="evenodd"/></g></svg>