<svg width="314" height="296" xmlns="http://www.w3.org/2000/svg" xmlns:xlink="http://www.w3.org/1999/xlink" xmlns:dc="http://purl.org/dc/elements/1.1/" overflow="hidden"><defs><clipPath id="clip0"><path d="M734 401 1048 401 1048 697 734 697Z" fill-rule="evenodd" clip-rule="evenodd"/></clipPath></defs><metadata>OOXML preset shape geometry<dc:publisher>https://xuri.me</dc:publisher><dc:creator>xuri</dc:creator><dc:description>Excelize Official Document</dc:description></metadata><g clip-path="url(#clip0)" transform="translate(-734 -401)"><path d="M1043 433.25C1043 442.777 1035.28 450.5 1025.75 450.5L1025.75 433.25C1025.75 438.013 1021.89 441.875 1017.13 441.875 1012.36 441.875 1008.5 438.013 1008.5 433.25L1008.5 450.5 755.25 450.5C745.723 450.5 738 458.223 738 467.75L738 674.75C738 684.277 745.723 692 755.25 692 764.777 692 772.5 684.277 772.5 674.75L772.5 657.5 1025.75 657.5C1035.28 657.5 1043 649.777 1043 640.25ZM755.25 485C764.777 485 772.5 477.277 772.5 467.75 772.5 462.986 768.638 459.125 763.875 459.125 759.112 459.125 755.25 462.986 755.25 467.75Z" fill="#B4C7E7" fill-rule="evenodd"/><path d="M755.25 485C764.777 485 772.5 477.277 772.5 467.75 772.5 462.986 768.638 459.125 763.875 459.125 759.112 459.125 755.25 462.986 755.25 467.75ZM1025.75 450.5C1035.28 450.5 1043 442.777 1043 433.25 1043 423.723 1035.28 416 1025.75 416 1016.22 416 1008.5 423.723 1008.5 433.25 1008.5 438.013 1012.36 441.875 1017.13 441.875 1021.89 441.875 1025.75 438.013 1025.75 433.25Z" fill="#91A0BA" fill-rule="evenodd"/><path d="M738 467.75C738 458.223 745.723 450.5 755.25 450.5L1008.5 450.5 1008.5 433.25C1008.5 423.723 1016.22 416 1025.75 416 1035.28 416 1043 423.723 1043 433.25L1043 640.25C1043 649.777 1035.28 657.5 1025.75 657.5L772.5 657.5 772.5 674.75C772.5 684.277 764.777 692 755.25 692 745.723 692 738 684.277 738 674.75ZM1008.5 450.5 1025.75 450.5C1035.28 450.5 1043 442.777 1043 433.25M1025.75 450.5 1025.75 433.25C1025.75 438.013 1021.89 441.875 1017.13 441.875 1012.36 441.875 1008.5 438.013 1008.5 433.25M755.25 485 755.25 467.75C755.25 462.986 759.112 459.125 763.875 459.125 768.638 459.125 772.5 462.986 772.5 467.75 772.5 477.277 764.777 485 755.25 485 745.723 485 738 477.277 738 467.75M772.5 467.75 772.5 657.5" stroke="#2F528F" stroke-width="8" stroke-miterlimit="8" fill="none" fill-rule="evenodd"/></g></svg>