<svg width="275" height="283" xmlns="http://www.w3.org/2000/svg" xmlns:xlink="http://www.w3.org/1999/xlink" xmlns:dc="http://purl.org/dc/elements/1.1/" overflow="hidden"><defs><clipPath id="clip0"><path d="M726 436 1001 436 1001 719 726 719Z" fill-rule="evenodd" clip-rule="evenodd"/></clipPath></defs><metadata>OOXML preset shape geometry<dc:publisher>https://xuri.me</dc:publisher><dc:creator>xuri</dc:creator><dc:description>Excelize Official Document</dc:description></metadata><g clip-path="url(#clip0)" transform="translate(-726 -436)"><path d="M862 518.593 904.734 452 900.52 513.139 949.03 503.173 929.764 535.987 980.225 545.425 940.154 572.268 986 604.589 931.314 600.593 946.331 659.757 898.97 617.988 890.095 678.61 858.923 623.476 835.42 700 826.58 631.421 792.675 654.269 803.066 612.017 739.55 619.48 780.734 587.194 738 550.913 791.125 539.454 742.248 478.35 821.953 524.563 833.893 478.35Z" stroke="#2F528F" stroke-width="8" stroke-miterlimit="8" fill="#B4C7E7" fill-rule="evenodd"/></g></svg>