<svg width="70" height="224" xmlns="http://www.w3.org/2000/svg" xmlns:xlink="http://www.w3.org/1999/xlink" xmlns:dc="http://purl.org/dc/elements/1.1/" overflow="hidden"><defs><clipPath id="clip0"><path d="M847 448 917 448 917 672 847 672Z" fill-rule="evenodd" clip-rule="evenodd"/></clipPath></defs><metadata>OOXML preset shape geometry<dc:publisher>https://xuri.me</dc:publisher><dc:creator>xuri</dc:creator><dc:description>Excelize Official Document</dc:description></metadata><g clip-path="url(#clip0)" transform="translate(-847 -448)"><path d="M917 667C906.783 667 898.5 665.62 898.5 663.917L898.5 562.583C898.5 560.88 890.217 559.5 880 559.5 890.217 559.5 898.5 558.12 898.5 556.417L898.5 455.083C898.5 453.38 906.783 452 917 452Z" fill="#B4C7E7" fill-rule="evenodd"/><path d="M917 667C906.783 667 898.5 665.62 898.5 663.917L898.5 562.583C898.5 560.88 890.217 559.5 880 559.5 890.217 559.5 898.5 558.12 898.5 556.417L898.5 455.083C898.5 453.38 906.783 452 917 452" stroke="#4472C4" stroke-width="8" stroke-miterlimit="8" fill="none" fill-rule="evenodd"/></g></svg>