<svg width="401" height="176" xmlns="http://www.w3.org/2000/svg" xmlns:xlink="http://www.w3.org/1999/xlink" xmlns:dc="http://purl.org/dc/elements/1.1/" overflow="hidden"><defs><clipPath id="clip0"><path d="M772 449 1173 449 1173 625 772 625Z" fill-rule="evenodd" clip-rule="evenodd"/></clipPath></defs><metadata>OOXML preset shape geometry<dc:publisher>https://xuri.me</dc:publisher><dc:creator>xuri</dc:creator><dc:description>Excelize Official Document</dc:description></metadata><g clip-path="url(#clip0)" transform="translate(-772 -449)"><path d="M780.5 524.666 857.5 460.5 857.5 486.166 973 486.166C979.645 486.166 985.031 489.039 985.031 492.583 985.031 496.127 979.645 499 973 499 966.355 499 960.969 501.872 960.969 505.416 960.969 508.96 966.355 511.833 973 511.833L1088.5 511.833 1088.5 486.167 1165.5 550.333 1088.5 614.5 1088.5 588.833 973 588.833C966.355 588.833 960.969 585.961 960.969 582.417L960.969 563.166 857.5 563.166 857.5 588.833Z" fill="#B4C7E7" fill-rule="evenodd"/><path d="M985.031 492.583C985.031 496.127 979.645 499 973 499 966.355 499 960.969 501.872 960.969 505.416 960.969 508.96 966.355 511.833 973 511.833L985.031 511.833Z" fill="#91A0BA" fill-rule="evenodd"/><path d="M780.5 524.666 857.5 460.5 857.5 486.166 973 486.166C979.645 486.166 985.031 489.039 985.031 492.583 985.031 496.127 979.645 499 973 499 966.355 499 960.969 501.872 960.969 505.416 960.969 508.96 966.355 511.833 973 511.833L1088.5 511.833 1088.5 486.167 1165.5 550.333 1088.5 614.5 1088.5 588.833 973 588.833C966.355 588.833 960.969 585.961 960.969 582.417L960.969 563.166 857.5 563.166 857.5 588.833ZM985.031 492.583 985.031 511.833M960.969 505.417 960.969 563.166" stroke="#2F528F" stroke-width="9" stroke-miterlimit="8" fill="none" fill-rule="evenodd"/></g></svg>