<svg width="162" height="169" xmlns="http://www.w3.org/2000/svg" xmlns:xlink="http://www.w3.org/1999/xlink" xmlns:dc="http://purl.org/dc/elements/1.1/" overflow="hidden"><defs><clipPath id="clip0"><path d="M810 472 972 472 972 641 810 641Z" fill-rule="evenodd" clip-rule="evenodd"/></clipPath></defs><metadata>OOXML preset shape geometry<dc:publisher>https://xuri.me</dc:publisher><dc:creator>xuri</dc:creator><dc:description>Excelize Official Document</dc:description></metadata><g clip-path="url(#clip0)" transform="translate(-810 -472)"><path d="M891 476.641C904.574 476.641 915.578 487.645 915.578 501.219 915.578 514.794 904.574 525.798 891 525.798 877.426 525.798 866.422 514.794 866.422 501.219 866.422 487.645 877.426 476.641 891 476.641ZM891 636.359C877.426 636.359 866.422 625.355 866.422 611.781 866.422 598.206 877.426 587.202 891 587.202 904.574 587.202 915.578 598.206 915.578 611.781 915.578 625.355 904.574 636.359 891 636.359ZM814.57 531.922 967.43 531.922 967.43 581.078 814.57 581.078Z" stroke="#2F528F" stroke-width="8" stroke-miterlimit="8" fill="#B4C7E7" fill-rule="evenodd"/></g></svg>