<svg width="186" height="186" xmlns="http://www.w3.org/2000/svg" xmlns:xlink="http://www.w3.org/1999/xlink" xmlns:dc="http://purl.org/dc/elements/1.1/" overflow="hidden"><defs><clipPath id="clip0"><path d="M279 463 465 463 465 649 279 649Z" fill-rule="evenodd" clip-rule="evenodd"/></clipPath></defs><metadata>OOXML preset shape geometry<dc:publisher>https://xuri.me</dc:publisher><dc:creator>xuri</dc:creator><dc:description>Excelize Official Document</dc:description></metadata><g clip-path="url(#clip0)" transform="translate(-279 -463)"><path d="M284 556C284 507.399 323.399 468 372 468 420.601 468 460 507.399 460 556 460 604.601 420.601 644 372 644 323.399 644 284 604.601 284 556ZM420.426 582.076C434.827 555.331 424.82 521.975 398.076 507.574 381.797 498.809 362.203 498.809 345.925 507.574ZM323.574 529.924C309.173 556.669 319.18 590.025 345.924 604.426 362.203 613.191 381.797 613.191 398.075 604.426Z" stroke="#2F528F" stroke-width="8" stroke-miterlimit="8" fill="#B4C7E7" fill-rule="evenodd"/></g></svg>