<svg width="282" height="155" xmlns="http://www.w3.org/2000/svg" xmlns:xlink="http://www.w3.org/1999/xlink" xmlns:dc="http://purl.org/dc/elements/1.1/" overflow="hidden"><defs><clipPath id="clip0"><path d="M165 100 447 100 447 255 165 255Z" fill-rule="evenodd" clip-rule="evenodd"/></clipPath></defs><metadata>OOXML preset shape geometry<dc:publisher>https://xuri.me</dc:publisher><dc:creator>xuri</dc:creator><dc:description>Excelize Official Document</dc:description></metadata><g clip-path="url(#clip0)" transform="translate(-165 -100)"><path d="M422 250.104C421.944 238.506 431.077 229.058 442.399 229 442.432 229 442.466 229 442.5 229L442.5 250Z" stroke="#2F528F" stroke-width="8" stroke-miterlimit="8" fill="#B4C7E7" fill-rule="evenodd"/><path d="M170.396 229C181.718 228.943 190.942 238.075 191 249.396 191 249.431 191 249.465 191 249.5L170.5 249.5Z" stroke="#2F528F" stroke-width="8" stroke-miterlimit="8" fill="#B4C7E7" fill-rule="evenodd"/><path d="M190 104.894C190.058 116.492 180.704 125.941 169.106 126 169.071 126 169.035 126 169 126L169 105Z" stroke="#2F528F" stroke-width="8" stroke-miterlimit="8" fill="#B4C7E7" fill-rule="evenodd"/><path d="M441.606 126C430.285 126.06 421.059 116.707 421 105.109 421 105.073 421 105.036 421 105L441.5 105Z" stroke="#2F528F" stroke-width="8" stroke-miterlimit="8" fill="#B4C7E7" fill-rule="evenodd"/></g></svg>