<svg width="258" height="258" xmlns="http://www.w3.org/2000/svg" xmlns:xlink="http://www.w3.org/1999/xlink" xmlns:dc="http://purl.org/dc/elements/1.1/" overflow="hidden"><defs><clipPath id="clip0"><path d="M823 446 1081 446 1081 704 823 704Z" fill-rule="evenodd" clip-rule="evenodd"/></clipPath></defs><metadata>OOXML preset shape geometry<dc:publisher>https://xuri.me</dc:publisher><dc:creator>xuri</dc:creator><dc:description>Excelize Official Document</dc:description></metadata><g clip-path="url(#clip0)" transform="translate(-823 -446)"><path d="M829 575 884.125 519.875 884.125 547.437 923.937 547.437 923.937 507.125 896.375 507.125 951.5 452 1006.62 507.125 979.063 507.125 979.063 547.437 1018.88 547.437 1018.88 519.875 1074 575 1018.88 630.125 1018.88 602.563 979.063 602.563 979.063 642.875 1006.62 642.875 951.5 698 896.375 642.875 923.937 642.875 923.937 602.563 884.125 602.563 884.125 630.125Z" stroke="#2F528F" stroke-width="8" stroke-miterlimit="8" fill="#B4C7E7" fill-rule="evenodd"/></g></svg>