<svg width="284" height="284" xmlns="http://www.w3.org/2000/svg" xmlns:xlink="http://www.w3.org/1999/xlink" xmlns:dc="http://purl.org/dc/elements/1.1/" overflow="hidden"><defs><clipPath id="clip0"><path d="M829 394 1113 394 1113 678 829 678Z" fill-rule="evenodd" clip-rule="evenodd"/></clipPath></defs><metadata>OOXML preset shape geometry<dc:publisher>https://xuri.me</dc:publisher><dc:creator>xuri</dc:creator><dc:description>Excelize Official Document</dc:description></metadata><g clip-path="url(#clip0)" transform="translate(-829 -394)"><path d="M835 536 885.361 485.639 885.361 510.819 905.553 510.819 905.553 470.553 945.819 470.553 945.819 450.361 920.639 450.361 971 400 1021.36 450.361 996.181 450.361 996.181 470.553 1036.45 470.553 1036.45 510.819 1056.64 510.819 1056.64 485.639 1107 536 1056.64 586.361 1056.64 561.181 1036.45 561.181 1036.45 601.447 996.181 601.447 996.181 621.639 1021.36 621.639 971 672 920.639 621.639 945.819 621.639 945.819 601.447 905.553 601.447 905.553 561.181 885.361 561.181 885.361 586.361Z" stroke="#2F528F" stroke-width="8" stroke-miterlimit="8" fill="#B4C7E7" fill-rule="evenodd"/></g></svg>