<svg width="393" height="200" xmlns="http://www.w3.org/2000/svg" xmlns:xlink="http://www.w3.org/1999/xlink" xmlns:dc="http://purl.org/dc/elements/1.1/" overflow="hidden"><defs><clipPath id="clip0"><path d="M783 451 1176 451 1176 651 783 651Z" fill-rule="evenodd" clip-rule="evenodd"/></clipPath></defs><metadata>OOXML preset shape geometry<dc:publisher>https://xuri.me</dc:publisher><dc:creator>xuri</dc:creator><dc:description>Excelize Official Document</dc:description></metadata><g clip-path="url(#clip0)" transform="translate(-783 -451)"><path d="M790 646 919.938 646C926.461 646 931.75 642.456 931.75 638.083 931.75 633.711 926.461 630.167 919.938 630.167L896.313 630.167C889.789 630.167 884.5 626.622 884.5 622.25 884.5 617.877 889.789 614.333 896.313 614.333L1061.69 614.333C1068.21 614.333 1073.5 617.877 1073.5 622.249 1073.5 626.622 1068.21 630.166 1061.69 630.166L1038.06 630.167C1031.54 630.167 1026.25 633.711 1026.25 638.083 1026.25 642.456 1031.54 646 1038.06 646L1168 646 1120.75 566.834 1168 487.667 1073.5 487.667 1073.5 463.917C1073.5 459.544 1068.21 456 1061.69 456L896.313 456C889.789 456 884.5 459.544 884.5 463.917L884.5 487.667 790 487.667 837.25 566.834Z" fill="#B4C7E7" fill-rule="evenodd"/><path d="M931.75 638.083C931.75 633.711 926.461 630.167 919.938 630.167L896.313 630.167C889.789 630.167 884.5 626.622 884.5 622.25 884.5 617.877 889.789 614.333 896.313 614.333L931.75 614.333ZM1026.25 638.083C1026.25 633.711 1031.54 630.167 1038.06 630.167L1061.69 630.167C1068.21 630.167 1073.5 626.622 1073.5 622.25 1073.5 617.877 1068.21 614.333 1061.69 614.333L1026.25 614.333Z" fill="#91A0BA" fill-rule="evenodd"/><path d="M790 646 837.25 566.834 790 487.667 884.5 487.667 884.5 463.917C884.5 459.544 889.789 456 896.313 456L1061.69 456C1068.21 456 1073.5 459.544 1073.5 463.917L1073.5 487.667 1073.5 487.667 1168 487.667 1120.75 566.834 1168 646 1038.06 646C1031.54 646 1026.25 642.456 1026.25 638.083 1026.25 633.711 1031.54 630.167 1038.06 630.167L1061.69 630.167C1068.21 630.167 1073.5 626.622 1073.5 622.25 1073.5 617.877 1068.21 614.333 1061.69 614.333L896.313 614.333C889.789 614.333 884.5 617.877 884.5 622.249 884.5 626.622 889.789 630.166 896.313 630.166L919.938 630.167C926.461 630.167 931.75 633.711 931.75 638.083 931.75 642.456 926.461 646 919.938 646ZM931.75 614.333 931.75 638.083M1026.25 638.083 1026.25 614.333M884.5 622.249 884.5 487.667M1073.5 487.667 1073.5 622.249" stroke="#2F528F" stroke-width="8" stroke-miterlimit="8" fill="none" fill-rule="evenodd"/></g></svg>