<svg width="352" height="178" xmlns="http://www.w3.org/2000/svg" xmlns:xlink="http://www.w3.org/1999/xlink" xmlns:dc="http://purl.org/dc/elements/1.1/" overflow="hidden"><defs><clipPath id="clip0"><path d="M821 448 1173 448 1173 626 821 626Z" fill-rule="evenodd" clip-rule="evenodd"/></clipPath></defs><metadata>OOXML preset shape geometry<dc:publisher>https://xuri.me</dc:publisher><dc:creator>xuri</dc:creator><dc:description>Excelize Official Document</dc:description></metadata><g clip-path="url(#clip0)" transform="translate(-821 -448)"><path d="M829 452 944.5 452C950.299 452 955 455.171 955 459.083 955 462.995 950.299 466.167 944.5 466.167L923.5 466.167C917.701 466.167 913 469.338 913 473.25 913 477.162 917.701 480.334 923.5 480.334L1070.5 480.334C1076.3 480.334 1081 477.163 1081 473.251 1081 469.339 1076.3 466.167 1070.5 466.167L1049.5 466.167C1043.7 466.167 1039 462.995 1039 459.083 1039 455.171 1043.7 452 1049.5 452L1165 452 1123 522.833 1165 593.666 1081 593.666 1081 614.917C1081 618.829 1076.3 622 1070.5 622L923.5 622C917.701 622 913 618.829 913 614.917L913 593.666 829 593.666 871 522.833Z" fill="#B4C7E7" fill-rule="evenodd"/><path d="M955 459.083C955 462.995 950.299 466.167 944.5 466.167L923.5 466.167C917.701 466.167 913 469.338 913 473.25 913 477.162 917.701 480.334 923.5 480.334L955 480.334ZM1039 459.083C1039 462.995 1043.7 466.167 1049.5 466.167L1070.5 466.167C1076.3 466.167 1081 469.338 1081 473.25 1081 477.162 1076.3 480.334 1070.5 480.334L1039 480.334Z" fill="#91A0BA" fill-rule="evenodd"/><path d="M829 452 944.5 452C950.299 452 955 455.171 955 459.083 955 462.995 950.299 466.167 944.5 466.167L923.5 466.167C917.701 466.167 913 469.338 913 473.25 913 477.162 917.701 480.334 923.5 480.334L1070.5 480.334C1076.3 480.334 1081 477.163 1081 473.251 1081 469.339 1076.3 466.167 1070.5 466.167L1049.5 466.167C1043.7 466.167 1039 462.995 1039 459.083 1039 455.171 1043.7 452 1049.5 452L1165 452 1123 522.833 1165 593.666 1081 593.666 1081 614.917C1081 618.829 1076.3 622 1070.5 622L923.5 622C917.701 622 913 618.829 913 614.917L913 593.666 829 593.666 871 522.833ZM955 459.083 955 480.334M1039 480.334 1039 459.083M913 593.666 913 473.25M1081 473.25 1081 593.666" stroke="#2F528F" stroke-width="8" stroke-miterlimit="8" fill="none" fill-rule="evenodd"/></g></svg>