<svg width="229" height="229" xmlns="http://www.w3.org/2000/svg" xmlns:xlink="http://www.w3.org/1999/xlink" xmlns:dc="http://purl.org/dc/elements/1.1/" overflow="hidden"><defs><clipPath id="clip0"><path d="M830 448 1059 448 1059 677 830 677Z" fill-rule="evenodd" clip-rule="evenodd"/></clipPath></defs><metadata>OOXML preset shape geometry<dc:publisher>https://xuri.me</dc:publisher><dc:creator>xuri</dc:creator><dc:description>Excelize Official Document</dc:description></metadata><g clip-path="url(#clip0)" transform="translate(-830 -448)"><path d="M835 562C835 501.249 884.249 452 945 452 1005.75 452 1055 501.249 1055 562 1055 622.751 1005.75 672 945 672 884.249 672 835 622.751 835 562Z" fill="#B4C7E7" fill-rule="evenodd"/><path d="M898.301 529.102C898.301 522.773 903.431 517.643 909.759 517.643 916.088 517.643 921.218 522.773 921.218 529.102 921.218 535.43 916.088 540.56 909.759 540.56 903.431 540.56 898.301 535.43 898.301 529.102ZM968.782 529.102C968.782 522.773 973.912 517.643 980.241 517.643 986.569 517.643 991.699 522.773 991.699 529.102 991.699 535.43 986.569 540.56 980.241 540.56 973.912 540.56 968.782 535.43 968.782 529.102Z" stroke="#2F528F" stroke-width="8" stroke-miterlimit="8" fill="#91A0BA" fill-rule="evenodd"/><path d="M885.379 609.972C925.126 637.269 964.827 637.269 1004.48 609.972" stroke="#2F528F" stroke-width="8" stroke-miterlimit="8" fill="none" fill-rule="evenodd"/><path d="M835 562C835 501.249 884.249 452 945 452 1005.75 452 1055 501.249 1055 562 1055 622.751 1005.75 672 945 672 884.249 672 835 622.751 835 562Z" stroke="#2F528F" stroke-width="8" stroke-miterlimit="8" fill="none" fill-rule="evenodd"/></g></svg>