<svg width="233" height="233" xmlns="http://www.w3.org/2000/svg" xmlns:xlink="http://www.w3.org/1999/xlink" xmlns:dc="http://purl.org/dc/elements/1.1/" overflow="hidden"><defs><clipPath id="clip0"><path d="M860 421 1093 421 1093 654 860 654Z" fill-rule="evenodd" clip-rule="evenodd"/></clipPath></defs><metadata>OOXML preset shape geometry<dc:publisher>https://xuri.me</dc:publisher><dc:creator>xuri</dc:creator><dc:description>Excelize Official Document</dc:description></metadata><g clip-path="url(#clip0)" transform="translate(-860 -421)"><path d="M867 537.5 897.036 516.439 881.603 483.25 918.194 479.959 921.5 443.536 954.842 458.898 976 429 997.158 458.898 1030.5 443.536 1033.81 479.959 1070.4 483.25 1054.96 516.439 1085 537.5 1054.96 558.561 1070.4 591.75 1033.81 595.041 1030.5 631.464 997.158 616.102 976 646 954.842 616.102 921.5 631.464 918.194 595.041 881.603 591.75 897.036 558.561Z" stroke="#2F528F" stroke-width="8" stroke-miterlimit="8" fill="#B4C7E7" fill-rule="evenodd"/></g></svg>