<svg width="263" height="263" xmlns="http://www.w3.org/2000/svg" xmlns:xlink="http://www.w3.org/1999/xlink" xmlns:dc="http://purl.org/dc/elements/1.1/" overflow="hidden"><defs><clipPath id="clip0"><path d="M821 440 1084 440 1084 703 821 703Z" fill-rule="evenodd" clip-rule="evenodd"/></clipPath></defs><metadata>OOXML preset shape geometry<dc:publisher>https://xuri.me</dc:publisher><dc:creator>xuri</dc:creator><dc:description>Excelize Official Document</dc:description></metadata><g clip-path="url(#clip0)" transform="translate(-821 -440)"><path d="M833 571.5 863.642 559.801 837.072 540.571 869.697 537.202 849.01 511.75 881.396 516.94 868.001 487.001 897.94 500.396 892.75 468.01 918.202 488.697 921.571 456.072 940.801 482.642 952.5 452 964.199 482.642 983.429 456.072 986.798 488.697 1012.25 468.01 1007.06 500.396 1037 487.001 1023.6 516.94 1055.99 511.75 1035.3 537.202 1067.93 540.571 1041.36 559.801 1072 571.5 1041.36 583.199 1067.93 602.429 1035.3 605.798 1055.99 631.25 1023.6 626.06 1037 655.999 1007.06 642.604 1012.25 674.99 986.798 654.303 983.429 686.928 964.199 660.358 952.5 691 940.801 660.358 921.571 686.928 918.202 654.303 892.75 674.99 897.94 642.604 868.001 655.999 881.396 626.06 849.01 631.25 869.697 605.798 837.072 602.429 863.642 583.199Z" stroke="#2F528F" stroke-width="8" stroke-miterlimit="8" fill="#B4C7E7" fill-rule="evenodd"/></g></svg>