<svg width="293" height="293" xmlns="http://www.w3.org/2000/svg" xmlns:xlink="http://www.w3.org/1999/xlink" xmlns:dc="http://purl.org/dc/elements/1.1/" overflow="hidden"><defs><clipPath id="clip0"><path d="M820 391 1113 391 1113 684 820 684Z" fill-rule="evenodd" clip-rule="evenodd"/></clipPath></defs><metadata>OOXML preset shape geometry<dc:publisher>https://xuri.me</dc:publisher><dc:creator>xuri</dc:creator><dc:description>Excelize Official Document</dc:description></metadata><g clip-path="url(#clip0)" transform="translate(-820 -391)"><path d="M835 537.5 868.224 527.833 837.517 511.846 871.981 508.871 844.972 487.178 879.351 491.008 857.077 464.442 890.052 474.933 873.369 444.516 903.671 461.262 893.22 428.162 919.685 450.521 915.869 416.01 937.48 443.122 940.443 408.526 956.37 439.35 966 406 975.63 439.35 991.557 408.526 994.52 443.122 1016.13 416.01 1012.32 450.521 1038.78 428.162 1028.33 461.262 1058.63 444.516 1041.95 474.933 1074.92 464.442 1052.65 491.008 1087.03 487.178 1060.02 508.871 1094.48 511.846 1063.78 527.833 1097 537.5 1063.78 547.167 1094.48 563.154 1060.02 566.129 1087.03 587.822 1052.65 583.992 1074.92 610.558 1041.95 600.067 1058.63 630.484 1028.33 613.738 1038.78 646.838 1012.32 624.479 1016.13 658.99 994.52 631.878 991.557 666.474 975.63 635.65 966 669 956.37 635.65 940.443 666.474 937.48 631.878 915.869 658.99 919.685 624.479 893.22 646.838 903.671 613.738 873.369 630.484 890.052 600.067 857.077 610.558 879.351 583.992 844.972 587.822 871.981 566.129 837.517 563.154 868.224 547.167Z" stroke="#2F528F" stroke-width="8" stroke-miterlimit="8" fill="#B4C7E7" fill-rule="evenodd"/></g></svg>