<svg width="249" height="248" xmlns="http://www.w3.org/2000/svg" xmlns:xlink="http://www.w3.org/1999/xlink" xmlns:dc="http://purl.org/dc/elements/1.1/" overflow="hidden"><defs><clipPath id="clip0"><path d="M826 420 1075 420 1075 668 826 668Z" fill-rule="evenodd" clip-rule="evenodd"/></clipPath></defs><metadata>OOXML preset shape geometry<dc:publisher>https://xuri.me</dc:publisher><dc:creator>xuri</dc:creator><dc:description>Excelize Official Document</dc:description></metadata><g clip-path="url(#clip0)" transform="translate(-826 -420)"><path d="M835 544 865.539 527.174 843.792 499.992 878.474 496.082 868.829 462.682 902.374 472.286 906.301 437.754 933.6 459.407 950.5 429 967.4 459.407 994.699 437.754 998.626 472.286 1032.17 462.682 1022.53 496.082 1057.21 499.992 1035.46 527.174 1066 544 1035.46 560.826 1057.21 588.008 1022.53 591.918 1032.17 625.318 998.626 615.714 994.699 650.246 967.4 628.593 950.5 659 933.6 628.593 906.301 650.246 902.374 615.714 868.829 625.318 878.474 591.918 843.792 588.008 865.539 560.826Z" stroke="#2F528F" stroke-width="8" stroke-miterlimit="8" fill="#B4C7E7" fill-rule="evenodd"/></g></svg>