<svg width="237" height="236" xmlns="http://www.w3.org/2000/svg" xmlns:xlink="http://www.w3.org/1999/xlink" xmlns:dc="http://purl.org/dc/elements/1.1/" overflow="hidden"><defs><clipPath id="clip0"><path d="M816 440 1053 440 1053 676 816 676Z" fill-rule="evenodd" clip-rule="evenodd"/></clipPath></defs><metadata>OOXML preset shape geometry<dc:publisher>https://xuri.me</dc:publisher><dc:creator>xuri</dc:creator><dc:description>Excelize Official Document</dc:description></metadata><g clip-path="url(#clip0)" transform="translate(-816 -440)"><path d="M1040 557.5 997.426 572.64 997.426 542.36ZM1009.09 482.898 989.699 523.712 968.288 502.301ZM934.5 452 949.64 494.574 919.36 494.574ZM859.898 482.898 900.712 502.301 879.301 523.712ZM829 557.5 871.574 542.36 871.574 572.64ZM859.898 632.092 879.301 591.288 900.712 612.699ZM934.5 663 919.36 620.426 949.64 620.426ZM1009.09 632.092 968.288 612.699 989.699 591.288ZM881.75 557.5C881.75 528.367 905.367 504.75 934.5 504.75 963.633 504.75 987.25 528.367 987.25 557.5 987.25 586.633 963.633 610.25 934.5 610.25 905.367 610.25 881.75 586.633 881.75 557.5Z" stroke="#2F528F" stroke-width="8" stroke-miterlimit="8" fill="#B4C7E7" fill-rule="evenodd"/></g></svg>