<svg width="220" height="225" xmlns="http://www.w3.org/2000/svg" xmlns:xlink="http://www.w3.org/1999/xlink" xmlns:dc="http://purl.org/dc/elements/1.1/" overflow="hidden"><defs><clipPath id="clip0"><path d="M809 402 1029 402 1029 627 809 627Z" fill-rule="evenodd" clip-rule="evenodd"/></clipPath></defs><metadata>OOXML preset shape geometry<dc:publisher>https://xuri.me</dc:publisher><dc:creator>xuri</dc:creator><dc:description>Excelize Official Document</dc:description></metadata><g clip-path="url(#clip0)" transform="translate(-809 -402)"><path d="M841.188 622C847.919 622 853.375 616.543 853.375 609.812L841.188 609.812C844.553 609.812 847.281 607.084 847.281 603.719 847.281 600.353 844.553 597.625 841.188 597.625L853.375 597.625 853.375 418.188C853.375 411.457 858.832 406 865.563 406L1011.81 406C1018.54 406 1024 411.457 1024 418.188 1024 424.919 1018.54 430.375 1011.81 430.375L999.625 430.375 999.625 609.812C999.625 616.543 994.169 622 987.438 622ZM877.75 418.188C877.75 424.919 872.293 430.375 865.562 430.375 862.197 430.375 859.469 427.647 859.469 424.281 859.469 420.916 862.197 418.188 865.562 418.188Z" fill="#B4C7E7" fill-rule="evenodd"/><path d="M877.75 418.188C877.75 424.919 872.293 430.375 865.562 430.375 862.197 430.375 859.469 427.647 859.469 424.281 859.469 420.916 862.197 418.188 865.562 418.188ZM853.375 609.812C853.375 616.543 847.919 622 841.188 622 834.457 622 829 616.543 829 609.812 829 603.081 834.457 597.625 841.188 597.625 844.553 597.625 847.281 600.353 847.281 603.719 847.281 607.084 844.553 609.812 841.188 609.812Z" fill="#91A0BA" fill-rule="evenodd"/><path d="M853.375 597.625 853.375 418.188C853.375 411.457 858.832 406 865.563 406L1011.81 406C1018.54 406 1024 411.457 1024 418.188 1024 424.919 1018.54 430.375 1011.81 430.375L999.625 430.375 999.625 609.812C999.625 616.543 994.169 622 987.438 622L841.188 622C834.457 622 829 616.543 829 609.812 829 603.081 834.457 597.625 841.188 597.625ZM865.562 406C872.293 406 877.75 411.457 877.75 418.188 877.75 424.919 872.293 430.375 865.562 430.375 862.197 430.375 859.469 427.647 859.469 424.281 859.469 420.916 862.197 418.188 865.562 418.188L877.75 418.188M999.625 430.375 865.562 430.375M841.188 597.625C844.553 597.625 847.281 600.353 847.281 603.719 847.281 607.084 844.553 609.813 841.188 609.813L853.375 609.812M841.188 622C847.919 622 853.375 616.543 853.375 609.812L853.375 597.625" stroke="#2F528F" stroke-width="8" stroke-miterlimit="8" fill="none" fill-rule="evenodd"/></g></svg>