<svg width="221" height="169" xmlns="http://www.w3.org/2000/svg" xmlns:xlink="http://www.w3.org/1999/xlink" xmlns:dc="http://purl.org/dc/elements/1.1/" overflow="hidden"><defs><clipPath id="clip0"><path d="M830 448 1051 448 1051 617 830 617Z" fill-rule="evenodd" clip-rule="evenodd" /></clipPath></defs><metadata>OOXML preset shape geometry<dc:publisher>https://xuri.me</dc:publisher><dc:creator>xuri</dc:creator><dc:description>Excelize Official Document</dc:description></metadata><g clip-path="url(#clip0)" transform="translate(-830 -448)"><path d="M835 475.667C835 462.596 845.596 452 858.667 452L870.167 452 870.167 452 922.917 452 1022.33 452C1035.4 452 1046 462.596 1046 475.667L1046 534.833 1046 534.833 1046 570.333 1046 570.333C1046 583.404 1035.4 594 1022.33 594L922.917 594 896.542 611.75 870.167 594 858.667 594C845.596 594 835 583.404 835 570.333L835 570.333 835 534.833 835 534.833Z" stroke="#2F528F" stroke-width="8" stroke-miterlimit="8" fill="#B4C7E7" fill-rule="evenodd" /></g></svg>