<svg id="Layer_1" data-name="Layer 1" xmlns="http://www.w3.org/2000/svg" viewBox="0 0 1366 217"><title>Untitled-2</title><rect width="1366" height="217" style="fill:#f6f2e9"/><path d="M60.22,84.7V88H40.71V99h18.4v3.26H40.71v12.06H61v3.26H36.94V84.7Z" transform="translate(0 8)" style="fill:#7d6c52"/><path d="M68.49,93.76l6.17,8.46,6.12-8.46H85.1l-8.42,11.18,9.43,12.6H81.74l-7.08-9.89-7.13,9.89H63.16l9.43-12.6L64.17,93.76Z" transform="translate(0 8)" style="fill:#7d6c52"/><path d="M106.54,95.18a9.52,9.52,0,0,1,3.36,6.49h-3.64a6.49,6.49,0,0,0-2.21-4.14,7.26,7.26,0,0,0-4.6-1.33A6.51,6.51,0,0,0,94,98.82a11.15,11.15,0,0,0-1.93,6.9c0,2.9.59,5.2,1.88,6.85a6.47,6.47,0,0,0,5.48,2.53c4,0,6.39-2.06,6.94-6.16H110a11.45,11.45,0,0,1-3.54,7,10.61,10.61,0,0,1-7.08,2.3,10.2,10.2,0,0,1-8.33-3.59,13.29,13.29,0,0,1-2.81-8.83,13.48,13.48,0,0,1,2.81-8.88,10.13,10.13,0,0,1,8.37-3.78A11.29,11.29,0,0,1,106.54,95.18Z" transform="translate(0 8)" style="fill:#7d6c52"/><path d="M132.8,97c1.75,2.3,2.67,5.56,2.76,9.71H116.79A10.3,10.3,0,0,0,119,112.9a6.72,6.72,0,0,0,5.33,2.2,7.33,7.33,0,0,0,4.74-1.47,8.28,8.28,0,0,0,2.39-3.72h3.68a10.71,10.71,0,0,1-3.22,5.61,11,11,0,0,1-7.59,2.67,10.65,10.65,0,0,1-8.19-3.36c-2.11-2.3-3.12-5.34-3.12-9.2a13,13,0,0,1,3-8.79,10,10,0,0,1,8.18-3.73C128,93.11,130.87,94.4,132.8,97Zm-13.66,1.29a9.15,9.15,0,0,0-2.25,5.56h14.86c-.46-5.1-3-7.63-7.5-7.63A6.66,6.66,0,0,0,119.14,98.27Z" transform="translate(0 8)" style="fill:#7d6c52"/><path d="M144.26,84.05v33.49h-3.64V84.05Z" transform="translate(0 8)" style="fill:#7d6c52"/><path d="M155.71,85.57a2.38,2.38,0,0,1,.83,1.93,2.69,2.69,0,0,1-.83,2,2.9,2.9,0,0,1-4,0,2.64,2.64,0,0,1-.78-2,2.34,2.34,0,0,1,.78-1.93,2.9,2.9,0,0,1,4,0Zm-.14,8.19v23.78h-3.68V93.76Z" transform="translate(0 8)" style="fill:#7d6c52"/><path d="M180.14,93.76v2.57l-14.59,18.13h15.32v3.08h-20.1v-2.66l14.54-18H161.23V93.76Z" transform="translate(0 8)" style="fill:#7d6c52"/><path d="M203.32,97c1.75,2.3,2.67,5.56,2.76,9.71H187.31a10.36,10.36,0,0,0,2.16,6.21,6.76,6.76,0,0,0,5.34,2.2,7.37,7.37,0,0,0,4.74-1.47,8.37,8.37,0,0,0,2.39-3.72h3.68a10.71,10.71,0,0,1-3.22,5.61,11.06,11.06,0,0,1-7.59,2.67,10.65,10.65,0,0,1-8.19-3.36c-2.12-2.3-3.13-5.34-3.13-9.2a13,13,0,0,1,3-8.79,10,10,0,0,1,8.19-3.73C198.49,93.11,201.39,94.4,203.32,97Zm-13.66,1.29a9.16,9.16,0,0,0-2.26,5.56h14.86c-.46-5.1-3-7.63-7.5-7.63A6.65,6.65,0,0,0,189.66,98.27Z" transform="translate(0 8)" style="fill:#7d6c52"/><path d="M228.11,85.62V82.35h36.35v3.27h-15.6V99h13.25v3.18H248.86V116.9h17.53v3.22h-41V116.9h7.22V94.82h3.22V116.9h9.66V85.62Z" transform="translate(0 8)" style="fill:#7d6c52"/><path d="M272.55,108.48l-2.07-2.71a53,53,0,0,0,13.43-16.29H272.09V86.21h13.39a53.62,53.62,0,0,0,2.39-6.58l3.45.42c-.65,2.12-1.34,4.19-2.16,6.16H312.3v3.27H287.68a56.4,56.4,0,0,1-6.44,10.17v22.63H278V103.42A72.8,72.8,0,0,1,272.55,108.48Zm23.37-7.09V92.84h3.36v8.55h11v3.23h-11v12.69h13.06v3.27H283.5v-3.27h12.42V104.62H285.38v-3.23Z" transform="translate(0 8)" style="fill:#7d6c52"/><path d="M333.22,93.76A16.2,16.2,0,0,0,335.29,90c-4.09.19-8.32.32-12.69.46l-.51-2.9q4.49-1.09,11.32-7.86l3.22,1.1a46.09,46.09,0,0,1-8,6.67c6.16-.18,12-.5,17.48-.87-1.33-1.2-2.76-2.39-4.28-3.64l2.53-1.61a87.16,87.16,0,0,1,10.45,9.25l-2.76,1.93A41,41,0,0,0,349,89.3c-3.31.18-6.77.41-10.31.59a24.67,24.67,0,0,1-1.88,3.87h21v3H346.29c2.76,2.76,7,5,12.7,6.58l-1.43,3c-6.9-2.48-11.82-5.66-14.77-9.62h-8.32c-3.59,4-9,7.27-16.15,9.85l-1.52-2.94q8.7-2.57,13.62-6.91h-12.7v-3Zm19.6,13.06q-6.35,11.33-27.56,15.83l-1.88-2.58c13.89-2.94,22.73-7.82,26.5-14.53ZM346.43,104A34.43,34.43,0,0,1,326,115.33l-1.89-2.53q12.76-2.07,19.78-10.58Zm-5.85-4q-4.62,5.79-14.35,9.15l-1.43-2.57q9-3,13.21-8.15Z" transform="translate(0 8)" style="fill:#7d6c52"/><path d="M374.12,80.09v9.3h9.38q0,21.52-.69,26.64c-.46,3.77-2.71,5.7-6.76,5.7-.69,0-1.84-.09-3.5-.19l-.82-3c1.47.09,2.76.18,3.86.18,2.35,0,3.73-1.33,4.09-4,.28-2.4.46-9.8.56-22.13h-6.12Q373.84,113,365,122.33l-2.44-2.16q8-8.64,8.23-27.56h-7.36V89.39h7.36v-9.3Zm28.66,41.36h-3.22v-3.08h-8.65v3.08h-3.18V86.81h15Zm-3.22-6.25V90h-8.65V115.2Z" transform="translate(0 8)" style="fill:#7d6c52"/><path d="M444,86.67a9,9,0,0,1,2.94,7,11.18,11.18,0,0,1-3.22,7.73,46.49,46.49,0,0,1-6.81,5.29c-4.19,2.81-6.58,5.34-7.18,7.54h17.26v3.36H425a11.82,11.82,0,0,1,3.26-8.14,40.2,40.2,0,0,1,7.13-5.84,41,41,0,0,0,5.16-4.1,8.62,8.62,0,0,0,2.53-5.89,5.94,5.94,0,0,0-1.8-4.64,7.13,7.13,0,0,0-5-1.66,6.15,6.15,0,0,0-5.2,2.3c-1.29,1.47-2,3.68-2,6.58h-3.78a12.39,12.39,0,0,1,3.09-8.79,10.45,10.45,0,0,1,8.05-3.31A10.94,10.94,0,0,1,444,86.67Z" transform="translate(0 8)" style="fill:#4183c4"/><path d="M472.47,89.25q2.61,4.41,2.62,11.87T472.47,113a9.72,9.72,0,0,1-8.88,5.2,9.62,9.62,0,0,1-8.88-5.2q-2.62-4.42-2.63-11.87t2.63-11.87a9.53,9.53,0,0,1,8.88-5.2A9.63,9.63,0,0,1,472.47,89.25ZM457.24,92a24.29,24.29,0,0,0-1.38,9.11,24.65,24.65,0,0,0,1.38,9.11c1.29,3.13,3.4,4.74,6.35,4.74s5.06-1.61,6.35-4.74a24.77,24.77,0,0,0,1.42-9.11A24.4,24.4,0,0,0,469.94,92c-1.29-3.17-3.41-4.74-6.35-4.74S458.53,88.84,457.24,92Z" transform="translate(0 8)" style="fill:#4183c4"/><path d="M499.14,86.67a9,9,0,0,1,2.95,7,11.22,11.22,0,0,1-3.22,7.73,47.07,47.07,0,0,1-6.81,5.29c-4.19,2.81-6.58,5.34-7.18,7.54h17.26v3.36h-21.9a11.78,11.78,0,0,1,3.26-8.14,40.2,40.2,0,0,1,7.13-5.84,41,41,0,0,0,5.16-4.1,8.62,8.62,0,0,0,2.53-5.89,5.94,5.94,0,0,0-1.8-4.64,7.13,7.13,0,0,0-5-1.66,6.15,6.15,0,0,0-5.2,2.3c-1.29,1.47-2,3.68-2,6.58h-3.78a12.39,12.39,0,0,1,3.09-8.79,10.45,10.45,0,0,1,8-3.31A10.89,10.89,0,0,1,499.14,86.67Z" transform="translate(0 8)" style="fill:#4183c4"/><path d="M527.66,89.25q2.63,4.41,2.63,11.87T527.66,113a10.17,10.17,0,0,1-17.75,0q-2.62-4.42-2.63-11.87t2.63-11.87a10.17,10.17,0,0,1,17.75,0ZM512.44,92a24.29,24.29,0,0,0-1.38,9.11,24.65,24.65,0,0,0,1.38,9.11c1.29,3.13,3.4,4.74,6.35,4.74s5.06-1.61,6.34-4.74a24.53,24.53,0,0,0,1.43-9.11A24.17,24.17,0,0,0,525.13,92c-1.28-3.17-3.4-4.74-6.34-4.74S513.73,88.84,512.44,92Z" transform="translate(0 8)" style="fill:#4183c4"/><path d="M552.23,96.52,550,93.76a25.56,25.56,0,0,0,9.38-14.22l3.45.65a45.1,45.1,0,0,1-1.75,4.92h28.57v3.22H575.23v7.36h12.83v3.17H575.23v9.94h15.92V112H575.23v10.26h-3.36V112H550.62V108.8h7.59V95.69h13.66V88.33H559.5A27.81,27.81,0,0,1,552.23,96.52Zm19.64,12.28V98.86H561.52v9.94Z" transform="translate(0 8)" style="fill:#4183c4"/><path d="M603.24,98.54q-.27,14.64-5,23.47l-2.48-2.21q4-7.67,4.14-21.26v-15h17.71a26.36,26.36,0,0,0-1.75-3.26l3.5-.55c.55,1.15,1.1,2.44,1.61,3.81h15.78v3.13H603.24v5.25H611V88.19h3.22v3.73h12.19V88.15h3.22v3.77h7.09v3H629.6v7.18H611V95h-7.73Zm29.63,6.72v2.44a35.85,35.85,0,0,1-9.43,8,55.84,55.84,0,0,0,14.4,3.72l-1.43,2.86a56.37,56.37,0,0,1-16.1-4.88,60.63,60.63,0,0,1-16.1,4.88l-1.43-2.9A58.83,58.83,0,0,0,617,115.66a29.55,29.55,0,0,1-8.33-7.55h-2.8v-2.85Zm-12.75,8.92a35.64,35.64,0,0,0,8.42-6.07H612.21A27.23,27.23,0,0,0,620.12,114.18Zm-5.93-14.86h12.19V95H614.19Z" transform="translate(0 8)" style="fill:#4183c4"/><path d="M664.61,79.77v8.28h16.51v21.63h-3.31v-2.9h-13.2v15.68H661.2V106.78H648v2.9h-3.31V88.05H661.2V79.77Zm-3.41,23.79V91.27H648v12.29Zm16.61,0V91.27h-13.2v12.29Z" transform="translate(0 8)" style="fill:#4183c4"/><path d="M727.81,122.05h-3.36v-2h-31.1v2H690v-40h37.81Zm-3.36-5.1V85.2h-31.1V117Zm-4.18-27.56v3h-9.66V99h8.23v3h-8.23v7.31h11v3H696.25v-3h11V102H699V99h8.23V92.38h-9.7v-3ZM719,108l-2.58,1.2a29.21,29.21,0,0,0-3-5.38l2.63-.88A30.47,30.47,0,0,1,719,108Z" transform="translate(0 8)" style="fill:#4183c4"/><path d="M772.89,82.72v3.22h-7.68V98.13h10.07v3.17H765.21v20.38h-3.36V101.3H748.56a37.62,37.62,0,0,1-2.67,11.78,18.63,18.63,0,0,1-8.7,9l-1.79-2.85a17.48,17.48,0,0,0,7.82-8.42,39.84,39.84,0,0,0,2-9.48H734.57V98.13h10.81c0-.6,0-1.15,0-1.61V85.94h-8.38V82.72Zm-24.06,13.8c0,.55,0,1.1,0,1.61h13.06V85.94h-13Z" transform="translate(0 8)" style="fill:#4183c4"/><path d="M790.05,99l-2.26,2.25a45.65,45.65,0,0,0-7.68-6.9l2.25-2.16A57.3,57.3,0,0,1,790.05,99Zm.5,6.71A142,142,0,0,1,783.7,122l-3.08-1.39a127.34,127.34,0,0,0,7.08-16.05Zm.92-17.75-2.25,2.25A55.72,55.72,0,0,0,780.94,83l2.25-2.16A66.38,66.38,0,0,1,791.47,87.92Zm15.09,1.19a28.91,28.91,0,0,0,1.29-4.32H796.76V98.17c-.18,9.94-1.93,18-5.24,23.93L789,119.89c2.86-5.2,4.38-12.42,4.51-21.72V81.8h27.61v3H811a31.85,31.85,0,0,1-1.24,4.32h9v16.15h-7.64v13c0,2.48-1.24,3.73-3.63,3.73h-3.87l-.69-3a32.39,32.39,0,0,0,3.45.23c1,0,1.57-.6,1.57-1.75V105.26H800V89.11Zm-2.44,20.06a35.67,35.67,0,0,1-5,10.58l-2.67-1.65a28.75,28.75,0,0,0,4.69-9.57ZM815.76,96V91.73H803V96Zm0,2.48H803v4.14h12.79Zm6,20-2.8,1.25a68.93,68.93,0,0,0-4.88-10.45l2.76-1A66.72,66.72,0,0,1,821.74,118.46Z" transform="translate(0 8)" style="fill:#4183c4"/><path d="M826.43,87.69V84.47h14.22v3.22h-5.34v20.79c2-.69,3.86-1.38,5.66-2.12v3.32a110.35,110.35,0,0,1-14.08,4.69l-1-3.27c2.07-.5,4-1,6-1.56V87.69Zm30.09,8.37V104c-.19,5-1.47,8.93-4,11.92-2.44,2.71-6.39,4.87-11.91,6.44l-1.8-2.86c5.34-1.42,9.11-3.35,11.23-5.75a16.46,16.46,0,0,0,3.13-9.75V96.06Zm11.36-14.12v3.22h-11c-.28,1.74-.6,3.35-1,4.92h9.75V111.7h-3.22V93.11H847.69V111.7h-3.18V90.08h8.1a33.48,33.48,0,0,0,1-4.92H842.4V81.94Zm.51,38.13L866,122.46a63.92,63.92,0,0,0-9.39-8.55l2.21-2.12A68.51,68.51,0,0,1,868.39,120.07Z" transform="translate(0 8)" style="fill:#4183c4"/><path d="M908.36,122.1h-3.31v-3h-24.2v3.08h-3.36v-40h30.87Zm-3.31-29V85.43h-24.2v7.64Zm0,11.13V96.1h-24.2v8.1Zm0,11.69v-8.65h-24.2v8.65Z" transform="translate(0 8)" style="fill:#4183c4"/><path d="M927.77,94v20.38c1.47-1.28,3-2.76,4.74-4.46l.92,3.5a62.76,62.76,0,0,1-8.6,7.08l-1.29-2.94a2.77,2.77,0,0,0,1.06-2V97.21h-6.77V94Zm3.45-6.53L929,89.8a50.6,50.6,0,0,0-7.92-7.13l2.3-2.25A52.41,52.41,0,0,1,931.22,87.5Zm27.51-5.43V85.2h-10.9v17.34h12.28v3.18H947.83v16.42h-3.22V105.72h-12.1v-3.18h12.1V85.2H933.8V82.07ZM941,99.37l-2.85.74a71.38,71.38,0,0,0-3.68-11.41l2.85-.92A86,86,0,0,1,941,99.37Zm16.42-11.09A60.89,60.89,0,0,1,953.76,100l-2.8-1a59,59,0,0,0,3.59-11.55Z" transform="translate(0 8)" style="fill:#4183c4"/><path d="M986.24,121.22a30,30,0,0,1-7.22-.82,10.65,10.65,0,0,1-4.84-3.36,2.5,2.5,0,0,0-1.79-1.15c-1.15,0-3,2.11-5.57,6.44l-2.48-2.26c2.48-3.91,4.65-6.3,6.58-7.13V99h-6.53v-3H974v17.21a7.13,7.13,0,0,1,1.1,1.05,10.5,10.5,0,0,0,3.59,2.9,17,17,0,0,0,6.26,1.11c2.39,0,5.43.09,9,.09,2.2,0,4.46,0,6.76-.09s4-.09,5.2-.19l-.83,3.32H994.43C991.94,121.32,989.18,121.27,986.24,121.22ZM975.47,87.87l-2.3,2.3a50,50,0,0,0-7.73-7.32l2.26-2.16A56.65,56.65,0,0,1,975.47,87.87Zm18.22-8.05v5.89h9.2v3.17h-9.2v6.58h10.81v3.22h-7.73V111c0,.83.46,1.29,1.48,1.29h1.65a2.28,2.28,0,0,0,1.47-.42c.56-.41.92-2.25,1.11-5.52l2.9,1c-.28,3.82-.79,6.07-1.48,6.81a4.82,4.82,0,0,1-3.31,1.06h-3.31a3.43,3.43,0,0,1-2.67-1,3.33,3.33,0,0,1-.92-2.48V98.68H989a29.23,29.23,0,0,1-1.38,8.24c-1.19,3.49-4,6.39-8.32,8.64l-2.17-2.62c3.73-1.84,6.17-4.14,7.37-6.9a23.93,23.93,0,0,0,1.38-7.36h-7.41V95.46h12V88.88H983a35.08,35.08,0,0,1-2.76,4.79l-2.9-1.8a34.68,34.68,0,0,0,5.38-11.41l3.18.65c-.46,1.61-1,3.13-1.52,4.6h6.07V79.82Z" transform="translate(0 8)" style="fill:#4183c4"/><path d="M1019,113.36a5.3,5.3,0,0,1,.92,3.22,8.6,8.6,0,0,1-1.8,5.38,8.87,8.87,0,0,1-4.73,3V122.7a6.3,6.3,0,0,0,2.89-2,5.15,5.15,0,0,0,1-3.08,2.58,2.58,0,0,1-1,.18,2.66,2.66,0,0,1-2-.82,2.78,2.78,0,0,1-.83-2,2.65,2.65,0,0,1,.83-2.07,2.85,2.85,0,0,1,2.16-.78A3,3,0,0,1,1019,113.36Z" transform="translate(0 8)" style="fill:#7d6c52"/><path d="M1067.06,107.61a35,35,0,0,1-9.66,12.65l-1.66-3a30.65,30.65,0,0,0,9.34-12.38c-2.81-3.72-5.61-7.13-8.37-10.17l2.21-2.11a96.75,96.75,0,0,1,7.54,8.78,78.7,78.7,0,0,0,3-12.92h-13V85.25h16.24v3a80.75,80.75,0,0,1-4.19,15.88c1.8,2.43,3.68,5.15,5.71,8.09l-2.4,2.44C1070.23,112.21,1068.62,109.81,1067.06,107.61Zm20-14.08a60.25,60.25,0,0,1-.56,8.55,34.76,34.76,0,0,0,11.5,17.39l-2.2,2.58a38.24,38.24,0,0,1-10.31-14.63l-.37,1.29q-2.47,8.15-11.31,13.39l-2.12-2.63q7.66-4.48,10.17-11.31a49.66,49.66,0,0,0,1.93-14.63ZM1082.84,80c-.37,2.58-.78,4.93-1.29,7.09h14.81v2.16a104.83,104.83,0,0,1-2.89,11.78l-3.22-.92a57.89,57.89,0,0,0,2.66-9.85h-12.23a27.32,27.32,0,0,1-4.28,8.6L1073.73,97c3-4.19,5-10,5.84-17.48Z" transform="translate(0 8)" style="fill:#7d6c52"/><path d="M1124.93,121.18a32.45,32.45,0,0,1-7.55-.83,10.64,10.64,0,0,1-5.06-3.36,2.53,2.53,0,0,0-1.88-1.2c-1.15,0-3,2.21-5.71,6.72l-2.39-2.21c2.58-4.09,4.78-6.53,6.72-7.36V99h-6.72v-3h9.71v17.21a6.45,6.45,0,0,1,1.24,1.1,12.78,12.78,0,0,0,3.77,2.94,18.61,18.61,0,0,0,6.53,1.06c2.53,0,5.71.1,9.48.1,2,0,4.1,0,6.21,0s3.68-.09,4.83-.18l-.78,3.17h-9.84C1130.86,121.27,1128,121.22,1124.93,121.18Zm-11.5-33.49-2.3,2.25a48.79,48.79,0,0,0-7.59-7.32l2.2-2.11A55.12,55.12,0,0,1,1113.43,87.69Zm2.39,21.71a1.64,1.64,0,0,0,1.06-1.66V84.19a35.53,35.53,0,0,0,9.29-4.14l1.84,2.67a33.13,33.13,0,0,1-8.1,3.68v22c2.49-.64,4.88-1.38,7.18-2.2l.6,3.12c-3.13,1-6.81,2-11,3Zm19.23,1.56-.88-3.22,3.32.19a1.41,1.41,0,0,0,1.56-1.57V85.75h-6.44v30.78h-3.22V82.81h12.74v24.24c0,2.58-1.19,3.91-3.58,3.91Z" transform="translate(0 8)" style="fill:#7d6c52"/><path d="M1149.4,121.64l-.69-3.22c1.19.09,2.39.18,3.49.18a1.69,1.69,0,0,0,1.89-1.93V105.44c-1.84.79-3.77,1.52-5.7,2.17l-.83-3.32a52.25,52.25,0,0,0,6.53-2.21V91.6h-5.61V88.42h5.61V80h3.31v8.42h5.25V91.6h-5.25v9c1.7-.82,3.36-1.75,5-2.76v3.41c-1.66.92-3.32,1.84-5,2.67V117.5c0,2.76-1.38,4.14-4.05,4.14Zm36.76-22v3.08a26.2,26.2,0,0,1-7.09,11.13,47.75,47.75,0,0,0,11.32,5.52l-1.8,2.86a49.71,49.71,0,0,1-11.87-6.35,43.67,43.67,0,0,1-13.2,6.44l-1.79-2.81a43.45,43.45,0,0,0,12.33-5.84,23.71,23.71,0,0,1-7.13-10.81h-2.76V99.65Zm-3-17.85v9.89c0,1.1.64,1.7,1.93,1.7H1189v3.08h-4.69c-2.94,0-4.37-1.38-4.37-4V84.93H1171v2.66q0,6.5-6.34,10.08l-2.21-2.53c3.49-1.7,5.29-4.1,5.29-7.22V81.8Zm-6.77,30a24.75,24.75,0,0,0,6.49-9H1170A21.27,21.27,0,0,0,1176.4,111.84Z" transform="translate(0 8)" style="fill:#7d6c52"/><path d="M1235.33,81.75v2.9h-13.85v3.68H1232V98.54h-34.18V88.33h10.53V84.65h-13.89v-2.9Zm-.74,26.32V111H1217v7.18c0,2.53-1.38,3.82-4.14,3.82h-4.14l-.64-2.94c1.28.09,2.53.18,3.72.18s2-.6,2-1.8V111h-18.59v-2.89Zm-26,6.53a44.38,44.38,0,0,1-11.37,6.94l-2-2.57a47.39,47.39,0,0,0,11.18-6.35ZM1230.27,102v2.76h-30.5V102Zm-21.9-10.86H1201v4.74h7.36Zm10-6.44h-6.85v3.68h6.85Zm0,6.44h-6.85v4.74h6.85Zm10.49,0h-7.36v4.74h7.36Zm6.12,28.2-2.3,2.3a60.67,60.67,0,0,0-10.53-7l2.2-2.07A70.71,70.71,0,0,1,1235,119.29Z" transform="translate(0 8)" style="fill:#7d6c52"/><path d="M1262.51,80v6h18.08V89.2h-18.08v7h12.38v3a37.52,37.52,0,0,1-11.18,13.25,65.4,65.4,0,0,0,7.59,3.63,91.06,91.06,0,0,0,10.49,3.22l-1.93,2.9a90.3,90.3,0,0,1-11.27-3.82,52.79,52.79,0,0,1-7.69-4,68.63,68.63,0,0,1-18.81,7.91l-1.89-2.94a64.31,64.31,0,0,0,17.94-6.9,33.5,33.5,0,0,1-6.3-6.17,20.75,20.75,0,0,1-3.59-7h-3.54V96.24h14.4v-7h-17.9V86h17.9V80Zm8.65,19.36h-19.64a17.85,17.85,0,0,0,3.86,6.49,28.68,28.68,0,0,0,5.48,4.83A33,33,0,0,0,1271.16,99.32Z" transform="translate(0 8)" style="fill:#7d6c52"/><path d="M1287.54,121.73l-.69-3.18a32.12,32.12,0,0,0,3.58.24c1.2,0,1.84-.69,1.84-2v-10.9c-1.79.64-3.58,1.24-5.33,1.79l-.83-3.31a55.38,55.38,0,0,0,6.16-1.84V92h-5.65V88.79h5.65V80.55h3.27v8.24h4.79V92h-4.79v9.25c1.66-.73,3.27-1.52,4.83-2.35v3.41c-1.56.83-3.17,1.56-4.83,2.25v13.07c0,2.76-1.33,4.14-4,4.14Zm30.82-19.46V98.73h3.31v3.54h5.66v3.08h-5.66v12.38c0,2.71-1.38,4.09-4.05,4.09h-6.12l-.73-3.22c2,.09,3.86.19,5.66.19a1.7,1.7,0,0,0,1.93-1.89V105.35h-16.93v-3.08Zm-2.25-22.18v4.79h9.43v3h-9.43v5.38h11.17v3.13h-25.11V93.25h10.67V87.87h-9v-3h9V80.09Zm-4.38,34.83-2.62,1.84a62.22,62.22,0,0,0-5.56-7.64l2.66-1.61A58.08,58.08,0,0,1,1311.73,114.92Z" transform="translate(0 8)" style="fill:#7d6c52"/></svg>