<?xml version="1.0" encoding="UTF-8" standalone="no"?><svg width="24px" height="24px" viewBox="0 0 24 24" version="1.1" xmlns="http://www.w3.org/2000/svg" xmlns:xlink="http://www.w3.org/1999/xlink"><title>ico-more</title><defs></defs><g id="Page-1" stroke="none" stroke-width="1" fill="none" fill-rule="evenodd"><g id="ico-more" fill="#FFFFFF"><path d="M12.5,10 C12.1405211,10 11.813727,10.0653588 11.5196078,10.1960784 C11.2254887,10.326798 10.9640534,10.5065348 10.7352941,10.7352941 C10.5065348,10.9640534 10.326798,11.2254887 10.1960784,11.5196078 C10.0653588,11.813727 10,12.1405211 10,12.5 C10,12.8594789 10.0653588,13.186273 10.1960784,13.4803922 C10.326798,13.7745113 10.5065348,14.0359466 10.7352941,14.2647059 C10.9640534,14.4934652 11.2254887,14.673202 11.5196078,14.8039216 C11.813727,14.9346412 12.1405211,15 12.5,15 C12.8594789,15 13.186273,14.9346412 13.4803922,14.8039216 C13.7745113,14.673202 14.0359466,14.4934652 14.2647059,14.2647059 C14.4934652,14.0359466 14.673202,13.7745113 14.8039216,13.4803922 C14.9346412,13.186273 15,12.8594789 15,12.5 C15,12.1405211 14.9346412,11.813727 14.8039216,11.5196078 C14.673202,11.2254887 14.4934652,10.9640534 14.2647059,10.7352941 C14.0359466,10.5065348 13.7745113,10.326798 13.4803922,10.1960784 C13.186273,10.0653588 12.8594789,10 12.5,10 L12.5,10 Z M12.5,14 C12.2941166,14 12.1029421,13.9632357 11.9264706,13.8897059 C11.7499991,13.8161761 11.588236,13.7058831 11.4411765,13.5588235 C11.2941169,13.411764 11.1838239,13.2500009 11.1102941,13.0735294 C11.0367643,12.8970579 11,12.7058834 11,12.5 C11,12.2941166 11.0367643,12.1029421 11.1102941,11.9264706 C11.1838239,11.7499991 11.2941169,11.588236 11.4411765,11.4411765 C11.588236,11.2941169 11.7499991,11.1838239 11.9264706,11.1102941 C12.1029421,11.0367643 12.2941166,11 12.5,11 C12.7058834,11 12.8970579,11.0367643 13.0735294,11.1102941 C13.2500009,11.1838239 13.411764,11.2941169 13.5588235,11.4411765 C13.7058831,11.588236 13.8161761,11.7499991 13.8897059,11.9264706 C13.9632357,12.1029421 14,12.2941166 14,12.5 C14,12.7058834 13.9632357,12.8970579 13.8897059,13.0735294 C13.8161761,13.2500009 13.7058831,13.411764 13.5588235,13.5588235 C13.411764,13.7058831 13.2500009,13.8161761 13.0735294,13.8897059 C12.8970579,13.9632357 12.7058834,14 12.5,14 L12.5,14 Z M5.5,10 C5.14052108,10 4.81372696,10.0653588 4.51960784,10.1960784 C4.22548873,10.326798 3.96405343,10.5065348 3.73529412,10.7352941 C3.5065348,10.9640534 3.32679804,11.2254887 3.19607843,11.5196078 C3.06535882,11.813727 3,12.1405211 3,12.5 C3,12.8594789 3.06535882,13.186273 3.19607843,13.4803922 C3.32679804,13.7745113 3.5065348,14.0359466 3.73529412,14.2647059 C3.96405343,14.4934652 4.22548873,14.673202 4.51960784,14.8039216 C4.81372696,14.9346412 5.14052108,15 5.5,15 C5.85947892,15 6.18627304,14.9346412 6.48039216,14.8039216 C6.77451127,14.673202 7.03594657,14.4934652 7.26470588,14.2647059 C7.4934652,14.0359466 7.67320196,13.7745113 7.80392157,13.4803922 C7.93464118,13.186273 8,12.8594789 8,12.5 C8,12.1405211 7.93464118,11.813727 7.80392157,11.5196078 C7.67320196,11.2254887 7.4934652,10.9640534 7.26470588,10.7352941 C7.03594657,10.5065348 6.77451127,10.326798 6.48039216,10.1960784 C6.18627304,10.0653588 5.85947892,10 5.5,10 L5.5,10 Z M5.5,14 C5.29411662,14 5.10294206,13.9632357 4.92647059,13.8897059 C4.74999912,13.8161761 4.58823603,13.7058831 4.44117647,13.5588235 C4.29411691,13.411764 4.1838239,13.2500009 4.11029412,13.0735294 C4.03676434,12.8970579 4,12.7058834 4,12.5 C4,12.2941166 4.03676434,12.1029421 4.11029412,11.9264706 C4.1838239,11.7499991 4.29411691,11.588236 4.44117647,11.4411765 C4.58823603,11.2941169 4.74999912,11.1838239 4.92647059,11.1102941 C5.10294206,11.0367643 5.29411662,11 5.5,11 C5.70588338,11 5.89705794,11.0367643 6.07352941,11.1102941 C6.25000088,11.1838239 6.41176397,11.2941169 6.55882353,11.4411765 C6.70588309,11.588236 6.8161761,11.7499991 6.88970588,11.9264706 C6.96323566,12.1029421 7,12.2941166 7,12.5 C7,12.7058834 6.96323566,12.8970579 6.88970588,13.0735294 C6.8161761,13.2500009 6.70588309,13.411764 6.55882353,13.5588235 C6.41176397,13.7058831 6.25000088,13.8161761 6.07352941,13.8897059 C5.89705794,13.9632357 5.70588338,14 5.5,14 L5.5,14 Z M19.5,10 C19.1405211,10 18.813727,10.0653588 18.5196078,10.1960784 C18.2254887,10.326798 17.9640534,10.5065348 17.7352941,10.7352941 C17.5065348,10.9640534 17.326798,11.2254887 17.1960784,11.5196078 C17.0653588,11.813727 17,12.1405211 17,12.5 C17,12.8594789 17.0653588,13.186273 17.1960784,13.4803922 C17.326798,13.7745113 17.5065348,14.0359466 17.7352941,14.2647059 C17.9640534,14.4934652 18.2254887,14.673202 18.5196078,14.8039216 C18.813727,14.9346412 19.1405211,15 19.5,15 C19.8594789,15 20.186273,14.9346412 20.4803922,14.8039216 C20.7745113,14.673202 21.0359466,14.4934652 21.2647059,14.2647059 C21.4934652,14.0359466 21.673202,13.7745113 21.8039216,13.4803922 C21.9346412,13.186273 22,12.8594789 22,12.5 C22,12.1405211 21.9346412,11.813727 21.8039216,11.5196078 C21.673202,11.2254887 21.4934652,10.9640534 21.2647059,10.7352941 C21.0359466,10.5065348 20.7745113,10.326798 20.4803922,10.1960784 C20.186273,10.0653588 19.8594789,10 19.5,10 L19.5,10 Z M19.5,14 C19.2941166,14 19.1029421,13.9632357 18.9264706,13.8897059 C18.7499991,13.8161761 18.588236,13.7058831 18.4411765,13.5588235 C18.2941169,13.411764 18.1838239,13.2500009 18.1102941,13.0735294 C18.0367643,12.8970579 18,12.7058834 18,12.5 C18,12.2941166 18.0367643,12.1029421 18.1102941,11.9264706 C18.1838239,11.7499991 18.2941169,11.588236 18.4411765,11.4411765 C18.588236,11.2941169 18.7499991,11.1838239 18.9264706,11.1102941 C19.1029421,11.0367643 19.2941166,11 19.5,11 C19.7058834,11 19.8970579,11.0367643 20.0735294,11.1102941 C20.2500009,11.1838239 20.411764,11.2941169 20.5588235,11.4411765 C20.7058831,11.588236 20.8161761,11.7499991 20.8897059,11.9264706 C20.9632357,12.1029421 21,12.2941166 21,12.5 C21,12.7058834 20.9632357,12.8970579 20.8897059,13.0735294 C20.8161761,13.2500009 20.7058831,13.411764 20.5588235,13.5588235 C20.411764,13.7058831 20.2500009,13.8161761 20.0735294,13.8897059 C19.8970579,13.9632357 19.7058834,14 19.5,14 L19.5,14 Z" id=""></path></g></g></svg>