<?xml version="1.0" encoding="UTF-8" standalone="no"?><svg width="36px" height="36px" viewBox="0 0 36 36" version="1.1" xmlns="http://www.w3.org/2000/svg" xmlns:xlink="http://www.w3.org/1999/xlink"><title>ico-donate-btn</title><defs></defs><g id="Page-1" stroke="none" stroke-width="1" fill="none" fill-rule="evenodd"><g id="ico-donate-btn" fill="#FFFFFF"><path d="M29.3767064,15.868188 L28.7846442,15.868188 C28.5872891,15.3550649 28.3504666,14.8715523 28.0741695,14.4176357 C27.7978725,13.963719 27.4821091,13.539412 27.12687,13.1447019 C26.7716309,12.7499918 26.3670591,12.3750229 25.9131425,12.0197838 C25.4592259,11.6645447 24.9954485,11.3290461 24.5217964,11.013278 C24.5217964,10.3422709 24.531664,9.78968502 24.5513995,9.3555039 C24.571135,8.92132279 24.620473,8.52661861 24.699415,8.17137952 C24.778357,7.81614042 24.8671655,7.47077426 24.965843,7.13527068 C25.0645205,6.79976709 25.1730642,6.43466572 25.2914772,6.03995562 C24.7783541,6.07942663 24.2652387,6.19783788 23.7521155,6.39519294 C23.2389924,6.59254799 22.7653474,6.84910571 22.3311663,7.16487379 C21.8575141,7.44117086 21.4332071,7.76680181 21.0582325,8.14177641 C20.6832579,8.516751 20.357627,8.941058 20.0813299,9.41471012 C19.9234459,9.37523911 19.7556966,9.3357687 19.5780771,9.29629768 C19.4004575,9.25682667 19.2327082,9.23709147 19.0748242,9.23709147 C18.8774691,9.19762046 18.6899847,9.17788525 18.5123651,9.17788525 C18.3347456,9.17788525 18.1669963,9.15815004 18.0091122,9.11867903 C18.0485832,8.92132398 18.0880537,8.71410428 18.1275247,8.49701372 C18.1669957,8.27992317 18.1867309,8.03323305 18.1867309,7.75693598 C18.1867309,7.12539982 18.0683196,6.53334354 17.8314936,5.9807494 C17.5946675,5.42815526 17.2789042,4.95451024 16.8841941,4.55980013 C16.450013,4.16509003 15.9566327,3.84932669 15.4040386,3.61250062 C14.8514444,3.37567456 14.2593882,3.25726331 13.627852,3.25726331 C12.9963158,3.25726331 12.4042596,3.37567456 11.8516654,3.61250062 C11.2990713,3.84932669 10.8254263,4.16509003 10.4307162,4.55980013 C9.99653505,4.95451024 9.66103649,5.42815526 9.42421043,5.9807494 C9.18738437,6.53334354 9.06897311,7.12539982 9.06897311,7.75693598 C9.06897311,8.07270406 9.10844353,8.3785998 9.18738555,8.67463238 C9.26632757,8.97066496 9.34526841,9.25682549 9.42421043,9.53312256 C9.54262346,9.80941963 9.69063753,10.075845 9.86825708,10.3324065 C10.0458766,10.5889681 10.2333611,10.815923 10.4307162,11.013278 C9.95706404,11.2895751 9.50315423,11.6053385 9.06897311,11.9605776 C8.634792,12.3158166 8.24008782,12.6907856 7.88484873,13.0854957 C7.52960963,13.4802058 7.20397868,13.8946452 6.90794611,14.3288263 C6.61191353,14.7630074 6.36522342,15.2169173 6.16786836,15.6905694 C5.81262927,15.5721563 5.50673353,15.4340099 5.25017196,15.2761258 C4.9936104,15.1182418 4.76665549,14.9406249 4.56930044,14.7432699 C4.4114164,14.5853858 4.28313754,14.3979013 4.18446001,14.1808108 C4.08578249,13.9637202 4.03644447,13.7367653 4.03644447,13.4999393 C4.03644447,13.2236422 4.08578249,12.9670845 4.18446001,12.7302584 C4.28313754,12.4934323 4.4114164,12.276345 4.56930044,12.07899 C4.72718448,11.8421639 4.90480136,11.6546794 5.10215642,11.5165309 C5.29951147,11.3783824 5.47712835,11.2698387 5.63501239,11.1908967 L5.33898129,10.2435972 C5.02321321,10.3225392 4.72718507,10.4705533 4.450888,10.6876438 C4.17459093,10.9047344 3.93776842,11.1514245 3.74041337,11.4277216 C3.50358731,11.7040187 3.32597043,12.0099144 3.2075574,12.345418 C3.08914436,12.6809216 3.02993874,13.0262877 3.02993874,13.3815268 C3.02993874,13.5788819 3.05954155,13.8157044 3.11874807,14.0920015 C3.17795458,14.3682985 3.30623344,14.6643267 3.50358849,14.9800947 C3.70094354,15.2563918 3.98710408,15.5425523 4.36207867,15.8385849 C4.73705327,16.1346175 5.22056589,16.4010428 5.81263105,16.6378689 C5.77316004,16.7957529 5.73368962,16.9536346 5.69421861,17.1115186 C5.6547476,17.2694027 5.63501239,17.4272844 5.63501239,17.5851684 C5.59554138,17.7825234 5.57580617,17.9601403 5.57580617,18.1180244 L5.57580617,18.6508803 C5.57580617,19.2824165 5.6448794,19.894208 5.78302794,20.4862731 C5.92117647,21.0783383 6.14813138,21.6506594 6.46389946,22.2032535 C6.74019653,22.7953187 7.07569509,23.3380369 7.47040519,23.8314245 C7.86511529,24.3248122 8.3190251,24.7885896 8.83214824,25.2227707 L8.24008604,26.9989573 C8.12167301,27.2752544 8.07233499,27.5712825 8.09207049,27.8870506 C8.111806,28.2028187 8.20061444,28.4791116 8.35849848,28.7159376 C8.47691151,28.9922347 8.64466079,29.2290572 8.86175135,29.4264123 C9.0788419,29.6237673 9.34526723,29.7619138 9.66103531,29.8408558 L11.0819846,30.3737118 C11.2003976,30.4131828 11.3188089,30.4427856 11.4372219,30.4625211 C11.5556349,30.4822566 11.6740462,30.4921242 11.7924592,30.4921242 C12.0687563,30.4921242 12.3154464,30.4625214 12.5325369,30.4033149 C12.7496275,30.3441084 12.9568472,30.2355647 13.1542023,30.0776807 C13.3120863,29.9592677 13.469968,29.8112536 13.627852,29.633634 C13.785736,29.4560145 13.9041473,29.2487948 13.9830893,29.0119687 L14.3975329,27.8278444 C14.6343589,27.8673154 14.881049,27.9166534 15.1376106,27.9758599 C15.3941722,28.0350664 15.6605975,28.0646692 15.9368946,28.0646692 C16.1737206,28.1041402 16.4302783,28.1337431 16.7065754,28.1534786 C16.9828725,28.1732141 17.2591654,28.1830817 17.5354625,28.1830817 L18.0387153,28.1830817 L18.6011744,28.1830817 C18.7590585,28.1436107 18.9268078,28.1140078 19.1044273,28.0942723 C19.2820468,28.0745368 19.4497961,28.0646692 19.6076802,28.0646692 L20.1997424,29.3079998 C20.3181554,29.5053549 20.4464342,29.6829718 20.5845828,29.8408558 C20.7227313,29.9987399 20.8904806,30.1368863 21.0878356,30.2552993 C21.2457197,30.3342414 21.4332042,30.4033146 21.6502947,30.4625211 C21.8673853,30.5217276 22.074605,30.5513304 22.27196,30.5513304 C22.4693151,30.5513304 22.646932,30.5414628 22.804816,30.5217273 C22.9627001,30.5019918 23.1205817,30.4329186 23.2784658,30.3145056 L24.5810026,29.6632372 C24.8572997,29.5053531 25.0941222,29.3178686 25.2914772,29.1007781 C25.4888323,28.8836875 25.6467139,28.6369974 25.765127,28.3607003 C25.844069,28.0844033 25.8835394,27.7982427 25.8835394,27.5022101 C25.8835394,27.2061776 25.8045986,26.920017 25.6467145,26.64372 L25.2914772,25.8740391 C25.6467163,25.637213 25.9723473,25.3905229 26.2683798,25.1339614 C26.5644124,24.8773998 26.850573,24.6109745 27.12687,24.3346774 C27.4031671,24.0189093 27.6498572,23.7130136 27.8669478,23.416981 C28.0840383,23.1209484 28.291258,22.7953175 28.4886131,22.4400784 L29.4951188,22.4400784 C29.8503579,22.4400784 30.1759888,22.3710052 30.4720214,22.2328566 C30.768054,22.0947081 31.0344793,21.9269588 31.2713054,21.7296038 C31.4686604,21.4927777 31.6364097,21.2263524 31.7745582,20.9303198 C31.9127068,20.6342872 31.98178,20.3086563 31.98178,19.9534172 L31.98178,18.3548492 C31.942309,17.9996102 31.843633,17.6739792 31.6857489,17.3779466 C31.5278649,17.0819141 31.3305128,16.8154887 31.0936867,16.5786627 C30.8963317,16.3813076 30.639774,16.2135583 30.3240059,16.0754098 C30.0082378,15.9372613 29.6924744,15.868188 29.3767064,15.868188 L29.3767064,15.868188 Z M10.0754788,7.75693598 C10.0754788,7.28328386 10.1741549,6.82937405 10.3715099,6.39519294 C10.568865,5.96101182 10.8254227,5.58604285 11.1411908,5.27027477 C11.4569589,4.95450669 11.8319278,4.70781657 12.266109,4.53019703 C12.7002901,4.35257748 13.1541999,4.26376904 13.627852,4.26376904 C14.1409751,4.26376904 14.6047526,4.35257748 15.0191982,4.53019703 C15.4336438,4.70781657 15.8184803,4.95450669 16.1737194,5.27027477 C16.4894875,5.58604285 16.7361776,5.96101182 16.9137972,6.39519294 C17.0914167,6.82937405 17.1802252,7.28328386 17.1802252,7.75693598 C17.1802252,8.03323305 17.1506224,8.28979077 17.0914158,8.52661683 C17.0322093,8.76344289 16.9631361,8.98053019 16.8841941,9.17788525 C16.3710709,9.21735626 15.8678231,9.26669428 15.3744355,9.32590079 C14.8810478,9.38510731 14.4172704,9.47391575 13.9830893,9.59232878 C13.5094372,9.71074181 13.0555274,9.84888828 12.6213463,10.0067723 C12.1871652,10.1646564 11.7727258,10.322538 11.3780157,10.4804221 C11.1806606,10.322538 11.0030437,10.1449211 10.8451597,9.9475661 C10.6872757,9.75021105 10.5491292,9.53312375 10.4307162,9.29629768 C10.3517741,9.05947162 10.2728333,8.81278151 10.1938913,8.55621994 C10.1149493,8.29965838 10.0754788,8.03323305 10.0754788,7.75693598 L10.0754788,7.75693598 Z M30.7976556,19.9534172 C30.7976556,20.1507722 30.7581852,20.3382567 30.6792432,20.5158763 C30.6003012,20.6934958 30.5016251,20.8612451 30.3832121,21.0191291 C30.2647991,21.1375422 30.116785,21.2362182 29.9391654,21.3151602 C29.7615459,21.3941022 29.5740614,21.4335727 29.3767064,21.4335727 L27.7189322,21.4335727 L27.4229011,21.9072224 C27.2650171,22.2229905 27.0874002,22.5190186 26.8900451,22.7953157 C26.6926901,23.0716128 26.4756028,23.3281705 26.2387767,23.5649966 C26.0019507,23.8412936 25.745393,24.0978513 25.4690959,24.3346774 C25.1927988,24.5715035 24.8967707,24.7885908 24.5810026,24.9859458 L23.870528,25.5188018 L24.2849715,26.2884826 L24.6402088,27.0581635 C24.7191508,27.1765765 24.7684889,27.3245906 24.7882244,27.5022101 C24.8079599,27.6798297 24.778357,27.847579 24.699415,28.005463 C24.659944,28.163347 24.5810032,28.3113611 24.4625902,28.4495097 C24.3441771,28.5876582 24.2060307,28.6962018 24.0481466,28.7751439 L22.7456098,29.3672061 C22.6666678,29.4066771 22.5778593,29.4362799 22.4791818,29.4560154 C22.3805043,29.4757509 22.2719606,29.4856185 22.1535476,29.4856185 C21.9167215,29.4856185 21.6996342,29.4264129 21.5022792,29.3079998 C21.3049241,29.1895868 21.1470425,29.0119699 21.0286294,28.7751439 L20.4365672,27.5318133 L20.0813299,26.8805448 L19.3708553,26.9989573 C19.0156162,27.0384283 18.6801176,27.0680311 18.3643496,27.0877666 C18.0485815,27.1075021 17.7328181,27.1173697 17.41705,27.1173697 L16.7065754,27.1173697 C16.4697494,27.1173697 16.2131916,27.0976345 15.9368946,27.0581635 C15.7000685,27.0186925 15.463246,26.9792221 15.2264199,26.9397511 C14.9895939,26.90028 14.7527714,26.8608096 14.5159453,26.8213386 L13.627852,26.64372 L13.3910271,27.472607 L12.9765836,28.6567314 C12.8976416,28.8935575 12.7496275,29.0909096 12.5325369,29.2487936 C12.3154464,29.4066777 12.0687563,29.4856185 11.7924592,29.4856185 L11.5556343,29.4856185 C11.4766923,29.4856185 11.4174867,29.4658833 11.3780157,29.4264123 L9.9570664,28.9527625 C9.79918236,28.8738205 9.6610359,28.7850121 9.54262287,28.6863345 C9.42420984,28.587657 9.32553379,28.4593781 9.24659177,28.3014941 C9.16764975,28.1436101 9.12817933,27.9857284 9.12817933,27.8278444 C9.12817933,27.6699603 9.14791454,27.5120786 9.18738555,27.3541946 L9.77944775,25.5188018 L10.0754788,24.8675334 L9.48341665,24.3938836 C9.00976453,23.9991735 8.59532513,23.5847341 8.24008604,23.150553 C7.88484695,22.7163719 7.5690836,22.2427269 7.29278653,21.7296038 C7.05596047,21.2559516 6.87834359,20.7625714 6.75993056,20.2494483 C6.64151753,19.7363251 6.5823119,19.2034745 6.5823119,18.6508803 C6.5823119,17.46675 6.86847243,16.3615783 7.44080208,15.3353321 C8.01313173,14.3090858 8.79267249,13.4210014 9.77944775,12.6710522 C10.766223,11.881632 11.9108651,11.2698405 13.2134085,10.8356594 C14.5159518,10.4014783 15.9171517,10.184391 17.41705,10.184391 L18.0387153,10.184391 C18.2558059,10.184391 18.4630256,10.2041262 18.6603807,10.2435972 C18.8577357,10.2435972 19.0649554,10.2534648 19.282046,10.2732003 C19.4991365,10.2929358 19.7063562,10.3225386 19.9037113,10.3620096 L20.6141859,10.4804221 L20.9694232,9.88835988 C21.1273072,9.65153382 21.3049241,9.4048437 21.5022792,9.14828214 C21.6996342,8.89172057 21.9167215,8.66476567 22.1535476,8.46741061 C22.3903737,8.27005556 22.6469314,8.08257108 22.9232284,7.90495153 C23.1995255,7.72733198 23.4955537,7.57931792 23.8113217,7.46090488 C23.7323797,7.69773095 23.6731741,7.93455346 23.6337031,8.17137952 C23.5942321,8.40820558 23.5744969,8.6647633 23.5744969,8.94106037 C23.5350259,9.21735744 23.505423,9.52325318 23.4856875,9.85875677 C23.465952,10.1942604 23.4560844,10.5790969 23.4560844,11.013278 L23.4560844,11.546134 L23.9297342,11.9013713 C24.4033863,12.1776684 24.8375609,12.4736965 25.232271,12.7894646 C25.6269811,13.1052327 25.9822149,13.4407313 26.297983,13.7959704 C26.653222,14.1906805 26.9591178,14.5853846 27.2156794,14.9800947 C27.4722409,15.3748048 27.6794606,15.7892442 27.8373447,16.2234254 L28.0741695,16.8746938 L29.3767064,16.8746938 C29.5740614,16.8746938 29.7615459,16.9141642 29.9391654,16.9931062 C30.116785,17.0720482 30.2647991,17.1707243 30.3832121,17.2891373 C30.5016251,17.4470213 30.6003012,17.6147706 30.6792432,17.7923902 C30.7581852,17.9700097 30.7976556,18.1574942 30.7976556,18.3548492 L30.7976556,19.9534172 Z M25.232271,16.6378689 C25.232271,16.4405138 25.2026682,16.2727646 25.1434617,16.134616 C25.0842552,15.9964675 24.9954467,15.8681886 24.8770337,15.7497756 C24.7586207,15.6313626 24.6303418,15.5326865 24.4921933,15.4537445 C24.3540447,15.3748025 24.1862954,15.3353321 23.9889404,15.3353321 C23.8310564,15.3353321 23.6731747,15.3748025 23.5152906,15.4537445 C23.3574066,15.5326865 23.2192601,15.6313626 23.1008471,15.7497756 C22.9824341,15.8681886 22.8936256,15.9964675 22.8344191,16.134616 C22.7752126,16.2727646 22.7456098,16.4405138 22.7456098,16.6378689 C22.7456098,16.7957529 22.7752126,16.9536346 22.8344191,17.1115186 C22.8936256,17.2694027 22.9824341,17.4075491 23.1008471,17.5259622 C23.2192601,17.6443752 23.3574066,17.7331837 23.5152906,17.7923902 C23.6731747,17.8515967 23.8310564,17.8811995 23.9889404,17.8811995 C24.1862954,17.8811995 24.3540447,17.8515967 24.4921933,17.7923902 C24.6303418,17.7331837 24.7586207,17.6443752 24.8770337,17.5259622 C24.9954467,17.4075491 25.0842552,17.2694027 25.1434617,17.1115186 C25.2026682,16.9536346 25.232271,16.7957529 25.232271,16.6378689 L25.232271,16.6378689 Z"></path></g></g></svg>