<?xml version="1.0" encoding="UTF-8" standalone="no"?><svg width="36px" height="36px" viewBox="0 0 36 36" version="1.1" xmlns="http://www.w3.org/2000/svg" xmlns:xlink="http://www.w3.org/1999/xlink"><title>ico-circle-github</title><g id="Page-1" stroke="none" stroke-width="1" fill="none" fill-rule="evenodd"><g id="ico-circle-github" fill="#0082D3"><path d="M17.9987146,3.55271368e-15 C8.05970149,3.55271368e-15 3.55271368e-15,8.02268085 3.55271368e-15,17.9200457 C3.55271368e-15,25.8362922 5.1571806,32.552453 12.3103906,34.9222881 C13.2101978,35.0863101 13.538756,34.5330572 13.538756,34.0584732 C13.538756,33.63325 13.5233307,32.5061772 13.5145897,31.0109548 C8.50754838,32.0938085 7.45091766,28.6087267 7.45091766,28.6087267 C6.63286439,26.538656 5.45283154,25.9874598 5.45283154,25.9874598 C3.81826751,24.8758123 5.57623366,24.898436 5.57623366,24.898436 C7.38253231,25.0249232 8.33324288,26.7448404 8.33324288,26.7448404 C9.93901307,29.4833393 12.5463972,28.6925373 13.5716632,28.2338927 C13.735171,27.0759694 14.2004999,26.2861958 14.7146754,25.8383489 C10.7174748,25.3863886 6.51563236,23.8490038 6.51563236,16.9821895 C6.51563236,15.0262658 7.21696779,13.4266657 8.36820681,12.1741341 C8.18310362,11.7206313 7.5655788,9.89890738 8.5450832,7.43189317 C8.5450832,7.43189317 10.0562451,6.95011069 13.4945369,9.26904235 C14.9306292,8.87158466 16.4700707,8.67259873 18.0007713,8.66540027 C19.5294151,8.67259873 21.0693708,8.87158466 22.5075198,9.26904235 C25.9437549,6.95011069 27.4523459,7.43189317 27.4523459,7.43189317 C28.4344212,9.89890738 27.8163822,11.7206313 27.631279,12.1741341 C28.7850889,13.4266657 29.4817968,15.0262658 29.4817968,16.9821895 C29.4817968,23.8659716 25.27327,25.3807327 21.263215,25.8244662 C21.9095337,26.3777191 22.4854103,27.4713704 22.4854103,29.1429551 C22.4854103,31.5384989 22.4633007,33.4707705 22.4633007,34.0584732 C22.4633007,34.5376848 22.7872313,35.0950511 23.7009212,34.9202314 C30.8469328,32.5457688 36,25.8342355 36,17.9200457 C36,8.02268085 27.9397843,3.55271368e-15 17.9987146,3.55271368e-15 L17.9987146,3.55271368e-15 Z" id="Shape"></path></g></g></svg>