<?xml version="1.0" encoding="utf-8"?><svg version="1.1" id="Layer_1" xmlns="http://www.w3.org/2000/svg" xmlns:xlink="http://www.w3.org/1999/xlink" x="0px" y="0px" viewBox="0 0 120 55" width="120" height="55" style="enable-background:new 0 0 120 55;" xml:space="preserve"><style type="text/css">.st0{fill:#F38B00;} .st1{fill:#009BDE;}</style><g><g><g><path class="st0" d="M35.4,38h-4.5l3.9-7.9h0.1L35.4,38L35.4,38z M35.6,41.5l0.3,3.1h4.9l-1.6-18.2h-7.4l-9.3,18.2h5.1l1.6-3.1 H35.6L35.6,41.5z"/><polygon class="st0" points="47.7,36.7 48.5,36.7 52,31.9 56.6,31.9 51.7,38 54.7,44.6 49.8,44.6 47.9,39.5 47.2,39.5 46,44.6  41.9,44.6 45.7,26.4 49.9,26.4"/><path class="st0" d="M61.9,39.4c1.4,0,2.3,0.1,2,1.2c-0.3,1.3-0.9,1.6-2.6,1.6c-0.6,0-1.8,0-1.5-1.4 C60.1,39.6,60.9,39.4,61.9,39.4L61.9,39.4z M63.1,44.6h4.2l1.7-8c0.9-4.4-0.8-4.9-5-4.9c-3,0-5.9,0-6.7,3.9h4.2 c0.2-1.2,0.9-1.4,2-1.4c1.8,0,1.7,0.8,1.5,1.9l-0.4,2h-0.2c-0.2-1.5-2-1.4-3.2-1.4c-3,0-4.8,0.9-5.5,4c-0.7,3.3,0.9,4,3.8,4 c1.5,0,3.4-0.3,4.1-2h0.1L63.1,44.6L63.1,44.6z"/><path class="st0" d="M75.7,31.9l-0.4,1.8h0.2c0.8-1.5,2.5-1.9,3.9-1.9c1.8,0,3.6,0.3,3.3,2.5h0.2c0.6-1.8,2.5-2.5,4.1-2.5 c2.9,0,4.2,1.2,3.5,4.2l-1.9,8.7h-4.2l1.6-7.4c0.2-1.3,0.4-2.3-1.2-2.3c-1.6,0-2.2,1.1-2.4,2.4l-1.5,7.2h-4.2l1.6-7.7 c0.2-1.2,0.3-2-1.2-2c-1.7,0-2.2,0.9-2.6,2.4l-1.5,7.2H69l2.7-12.7L75.7,31.9L75.7,31.9z"/><path class="st0" d="M97.1,39.4c1.3,0,2.3,0.1,2,1.2c-0.3,1.3-0.9,1.6-2.6,1.6c-0.6,0-1.8,0-1.5-1.4 C95.2,39.6,96.1,39.4,97.1,39.4L97.1,39.4z M98.3,44.6h4.2l1.7-8c0.9-4.4-0.8-4.9-5-4.9c-3,0-5.9,0-6.7,3.9h4.2 c0.2-1.2,0.9-1.4,2-1.4c1.8,0,1.7,0.8,1.5,1.9l-0.4,2h-0.2c-0.2-1.5-2-1.4-3.2-1.4c-3,0-4.8,0.9-5.5,4c-0.7,3.3,0.9,4,3.8,4 c1.5,0,3.4-0.3,4.1-2h0.1L98.3,44.6L98.3,44.6z"/><path class="st0" d="M108.4,44.6h-4.2l2.7-12.7h4.2L108.4,44.6L108.4,44.6z"/></g><path class="st1" d="M24.6,49c-9.2-2.8-16-11.4-16-21.5C8.6,17.3,15.5,8.7,24.9,6c1-0.3,0.7-0.9-0.5-0.9 C11.9,5.1,1.8,15.1,1.8,27.6S11.9,50,24.4,50C25.6,50,25.6,49.4,24.6,49z"/><path class="st1" d="M12.9,32.8c-0.1-0.6-0.1-1.2-0.1-1.8c0-9.9,8-17.8,17.8-17.8c9.3,0,12.1,4.2,12.5,3.9 c0.4-0.3-3.4-8.5-14.3-8.5c-9.9,0-17.8,8-17.8,17.8c0,2.3,0.4,4.5,1.2,6.5C12.5,33.6,13,33.6,12.9,32.8z"/><path class="st1" d="M20.4,20c4.6-2,10.5-2.1,16.2-0.1c3.8,1.3,6.1,3.3,6.3,3.2c0.3-0.1-2.2-4.2-6.8-5.9c-5.6-2.1-11.5-1-15.9,2.4 C19.6,20,19.8,20.2,20.4,20z"/><path class="st0" d="M112.1,28.4c0,1.3-1,2.3-2.3,2.3c-1.3,0-2.3-1-2.3-2.3c0-1.3,1-2.3,2.3-2.3C111,26,112.1,27.1,112.1,28.4z"/></g></g></svg>