<?xml version="1.0" encoding="UTF-8" standalone="no"?>
<svg width="24px" height="24px" viewBox="0 0 24 24" version="1.1" xmlns="http://www.w3.org/2000/svg" xmlns:xlink="http://www.w3.org/1999/xlink">
    <!-- Generator: Sketch 3.8.2 (29753) - http://www.bohemiancoding.com/sketch -->
    <title>ico-docs</title>
    <desc>Created with Sketch.</desc>
    <defs></defs>
    <g id="Page-1" stroke="none" stroke-width="1" fill="none" fill-rule="evenodd">
        <g id="ico-docs" fill="#FFFFFF">
            <path d="M12,3 C10.7707256,3 9.60732256,3.234144 8.5097561,3.70243902 C7.41218963,4.17073405 6.45366263,4.81463005 5.63414634,5.63414634 C4.81463005,6.45366263 4.17073405,7.41218963 3.70243902,8.5097561 C3.234144,9.60732256 3,10.7707256 3,12 C3,13.2292744 3.234144,14.3926774 3.70243902,15.4902439 C4.17073405,16.5878104 4.81463005,17.5463374 5.63414634,18.3658537 C6.45366263,19.18537 7.41218963,19.829266 8.5097561,20.297561 C9.60732256,20.765856 10.7707256,21 12,21 C13.2292744,21 14.3926774,20.765856 15.4902439,20.297561 C16.5878104,19.829266 17.5463374,19.18537 18.3658537,18.3658537 C19.18537,17.5463374 19.829266,16.5878104 20.297561,15.4902439 C20.765856,14.3926774 21,13.2292744 21,12 C21,10.7707256 20.765856,9.60732256 20.297561,8.5097561 C19.829266,7.41218963 19.18537,6.45366263 18.3658537,5.63414634 C17.5463374,4.81463005 16.5878104,4.17073405 15.4902439,3.70243902 C14.3926774,3.234144 13.2292744,3 12,3 L12,3 Z M12,16.1268293 C11.4438997,16.1268293 10.9097587,16.0170743 10.397561,15.797561 C9.88536329,15.5780477 9.45366029,15.2780507 9.10243902,14.897561 C8.72194932,14.5463397 8.42195232,14.1146367 8.20243902,13.602439 C7.98292573,13.0902413 7.87317073,12.5561003 7.87317073,12 C7.87317073,11.4438997 7.98292573,10.9097587 8.20243902,10.397561 C8.42195232,9.88536329 8.72194932,9.45366029 9.10243902,9.10243902 C9.45366029,8.72194932 9.88536329,8.42195232 10.397561,8.20243902 C10.9097587,7.98292573 11.4438997,7.87317073 12,7.87317073 C12.5561003,7.87317073 13.0902413,7.98292573 13.602439,8.20243902 C14.1146367,8.42195232 14.5463397,8.72194932 14.897561,9.10243902 C15.2780507,9.45366029 15.5780477,9.88536329 15.797561,10.397561 C16.0170743,10.9097587 16.1268293,11.4438997 16.1268293,12 C16.1268293,12.5561003 16.0170743,13.0902413 15.797561,13.602439 C15.5780477,14.1146367 15.2780507,14.5463397 14.897561,14.897561 C14.5463397,15.2780507 14.1146367,15.5780477 13.602439,15.797561 C13.0902413,16.0170743 12.5561003,16.1268293 12,16.1268293 L12,16.1268293 Z M16.4780488,10.1121951 L19.3317073,8.22439024 C19.4780495,8.51707463 19.6097555,8.80975463 19.7268293,9.10243902 C19.843903,9.39512341 19.931707,9.70243741 19.9902439,10.0243902 C20.0780492,10.3463431 20.1439022,10.6682911 20.1878049,10.9902439 C20.2317075,11.3121967 20.2536585,11.6487787 20.2536585,12 C20.2536585,12.3219528 20.2317075,12.6512178 20.1878049,12.9878049 C20.1439022,13.3243919 20.0780492,13.6390229 19.9902439,13.9317073 C19.931707,14.2536601 19.843903,14.5609741 19.7268293,14.8536585 C19.6097555,15.1463429 19.4780495,15.4390229 19.3317073,15.7317073 L16.5219512,13.8439024 C16.5804881,13.6975602 16.6317071,13.5512202 16.6756098,13.404878 C16.7195124,13.2585359 16.7560974,13.1121959 16.7853659,12.9658537 C16.8146343,12.790243 16.8365853,12.629269 16.8512195,12.4829268 C16.8658537,12.3365846 16.8731707,12.1756106 16.8731707,12 C16.8731707,11.8243894 16.8658537,11.6560984 16.8512195,11.495122 C16.8365853,11.3341455 16.8146343,11.1804885 16.7853659,11.0341463 C16.7560974,10.8878041 16.7121954,10.7341471 16.6536585,10.5731707 C16.5951217,10.4121943 16.5365857,10.2585373 16.4780488,10.1121951 L16.4780488,10.1121951 Z M18.9365854,7.56585366 L16.1268293,9.45365854 C16.039024,9.2780479 15.936586,9.1170739 15.8195122,8.97073171 C15.7024384,8.82438951 15.5707324,8.67804951 15.4243902,8.53170732 C15.278048,8.41463356 15.131708,8.29756156 14.9853659,8.1804878 C14.8390237,8.06341405 14.6780497,7.94634205 14.502439,7.82926829 L16.3902439,5.0195122 C16.6536599,5.19512283 16.9024379,5.37804783 17.1365854,5.56829268 C17.3707329,5.75853754 17.5902429,5.95609654 17.795122,6.16097561 C18.0292695,6.36585468 18.2414625,6.59268168 18.4317073,6.84146341 C18.6219522,7.09024515 18.7902432,7.33170615 18.9365854,7.56585366 L18.9365854,7.56585366 Z M15.7317073,4.66829268 L13.8439024,7.47804878 C13.6975602,7.4195119 13.5512202,7.3682929 13.404878,7.32439024 C13.2585359,7.28048759 13.1121959,7.24390259 12.9658537,7.21463415 C12.790243,7.18536571 12.629269,7.16341471 12.4829268,7.14878049 C12.3365846,7.13414627 12.1756106,7.12682927 12,7.12682927 C11.8243894,7.12682927 11.6634154,7.13414627 11.5170732,7.14878049 C11.370731,7.16341471 11.209757,7.18536571 11.0341463,7.21463415 C10.8878041,7.24390259 10.7414641,7.28048759 10.595122,7.32439024 C10.4487798,7.3682929 10.3024398,7.4195119 10.1560976,7.47804878 L8.26829268,4.66829268 C8.56097707,4.52195049 8.85365707,4.39024449 9.14634146,4.27317073 C9.43902585,4.15609698 9.74633985,4.06829298 10.0682927,4.0097561 C10.3609771,3.92195078 10.6756081,3.85609778 11.0121951,3.81219512 C11.3487822,3.76829246 11.6780472,3.74634146 12,3.74634146 C12.3219528,3.74634146 12.6512178,3.76829246 12.9878049,3.81219512 C13.3243919,3.85609778 13.6390229,3.92195078 13.9317073,4.0097561 C14.2536601,4.06829298 14.5609741,4.15609698 14.8536585,4.27317073 C15.1463429,4.39024449 15.4390229,4.52195049 15.7317073,4.66829268 L15.7317073,4.66829268 Z M7.6097561,5.0195122 L9.49756098,7.82926829 C9.32195034,7.94634205 9.16097634,8.06341405 9.01463415,8.1804878 C8.86829195,8.29756156 8.72195195,8.41463356 8.57560976,8.53170732 C8.42926756,8.67804951 8.29756156,8.82438951 8.1804878,8.97073171 C8.06341405,9.1170739 7.96097605,9.2780479 7.87317073,9.45365854 L5.06341463,7.56585366 C5.20975683,7.33170615 5.37804783,7.09024515 5.56829268,6.84146341 C5.75853754,6.59268168 5.97073054,6.36585468 6.20487805,6.16097561 C6.40975712,5.95609654 6.62926712,5.75853754 6.86341463,5.56829268 C7.09756215,5.37804783 7.34634015,5.19512283 7.6097561,5.0195122 L7.6097561,5.0195122 Z M4.66829268,8.22439024 L7.52195122,10.1121951 C7.46341434,10.2585373 7.40487834,10.4121943 7.34634146,10.5731707 C7.28780459,10.7341471 7.24390259,10.8878041 7.21463415,11.0341463 C7.18536571,11.1804885 7.16341471,11.3341455 7.14878049,11.495122 C7.13414627,11.6560984 7.12682927,11.8243894 7.12682927,12 C7.12682927,12.1756106 7.13414627,12.3365846 7.14878049,12.4829268 C7.16341471,12.629269 7.18536571,12.775609 7.21463415,12.9219512 C7.24390259,13.0975619 7.28048759,13.2585359 7.32439024,13.404878 C7.3682929,13.5512202 7.4195119,13.6975602 7.47804878,13.8439024 L4.66829268,15.7317073 C4.52195049,15.4390229 4.39024449,15.1463429 4.27317073,14.8536585 C4.15609698,14.5609741 4.06829298,14.2536601 4.0097561,13.9317073 C3.92195078,13.6390229 3.85609778,13.3243919 3.81219512,12.9878049 C3.76829246,12.6512178 3.74634146,12.3219528 3.74634146,12 C3.74634146,11.6487787 3.76829246,11.3121967 3.81219512,10.9902439 C3.85609778,10.6682911 3.92195078,10.3463431 4.0097561,10.0243902 C4.06829298,9.70243741 4.15609698,9.39512341 4.27317073,9.10243902 C4.39024449,8.80975463 4.52195049,8.51707463 4.66829268,8.22439024 L4.66829268,8.22439024 Z M5.0195122,16.3902439 L7.82926829,14.502439 C7.91707361,14.6780497 8.02682861,14.8390237 8.15853659,14.9853659 C8.29024456,15.131708 8.41463356,15.278048 8.53170732,15.4243902 C8.67804951,15.5707324 8.83170651,15.7024384 8.99268293,15.8195122 C9.15365934,15.936586 9.30731634,16.053658 9.45365854,16.1707317 L7.6097561,18.9365854 C7.34634015,18.7902432 7.09024515,18.6219522 6.84146341,18.4317073 C6.59268168,18.2414625 6.36585468,18.0292695 6.16097561,17.795122 C5.95609654,17.5902429 5.75853754,17.3707329 5.56829268,17.1365854 C5.37804783,16.9024379 5.19512283,16.6536599 5.0195122,16.3902439 L5.0195122,16.3902439 Z M8.22439024,19.3317073 L10.1560976,16.4780488 C10.2731713,16.5365857 10.4121943,16.5951217 10.5731707,16.6536585 C10.7341471,16.7121954 10.8878041,16.7560974 11.0341463,16.7853659 C11.1804885,16.8146343 11.3341455,16.8365853 11.495122,16.8512195 C11.6560984,16.8658537 11.8243894,16.8731707 12,16.8731707 L12,16.8731707 C12.1756106,16.8731707 12.3439016,16.8658537 12.504878,16.8512195 C12.6658545,16.8365853 12.8195115,16.8146343 12.9658537,16.7853659 C13.1121959,16.7560974 13.2658529,16.7121954 13.4268293,16.6536585 C13.5878057,16.5951217 13.7414627,16.5365857 13.8878049,16.4780488 L15.7756098,19.3317073 C15.4829254,19.4780495 15.1829284,19.6097555 14.8756098,19.7268293 C14.5682911,19.843903 14.2682941,19.931707 13.9756098,19.9902439 C13.6536569,20.0780492 13.3317089,20.1439022 13.0097561,20.1878049 C12.6878033,20.2317075 12.3512213,20.2536585 12,20.2536585 C11.6487787,20.2536585 11.3121967,20.2317075 10.9902439,20.1878049 C10.6682911,20.1439022 10.3463431,20.0780492 10.0243902,19.9902439 C9.73170585,19.931707 9.43170885,19.843903 9.12439024,19.7268293 C8.81707163,19.6097555 8.51707463,19.4780495 8.22439024,19.3317073 L8.22439024,19.3317073 Z M16.3902439,18.9365854 L14.5463415,16.1707317 C14.6926837,16.053658 14.8463407,15.936586 15.0073171,15.8195122 C15.1682935,15.7024384 15.3219505,15.5707324 15.4682927,15.4243902 C15.5853664,15.278048 15.7097554,15.131708 15.8414634,14.9853659 C15.9731714,14.8390237 16.0829264,14.6780497 16.1707317,14.502439 L18.9804878,16.3902439 C18.8048772,16.6536599 18.6219522,16.9024379 18.4317073,17.1365854 C18.2414625,17.3707329 18.0439035,17.5902429 17.8390244,17.795122 C17.6341453,18.0292695 17.4073183,18.2414625 17.1585366,18.4317073 C16.9097549,18.6219522 16.6536599,18.7902432 16.3902439,18.9365854 L16.3902439,18.9365854 Z" id=""></path>
        </g>
    </g>
</svg>