<?xml version="1.0" encoding="UTF-8" standalone="no"?><svg width="36px" height="36px" viewBox="0 0 36 36" version="1.1" xmlns="http://www.w3.org/2000/svg" xmlns:xlink="http://www.w3.org/1999/xlink"><title>ico-circle-twitter</title><g id="Page-1" stroke="none" stroke-width="1" fill="none" fill-rule="evenodd"><g id="ico-circle-twitter" fill="#0082D3"><path d="M18,35.6893462 C8.05857949,35.6893462 1.0658141e-14,27.6999668 1.0658141e-14,17.8446731 C1.0658141e-14,7.98937936 8.05857949,-1.0658141e-14 18,-1.0658141e-14 C27.9414205,-1.0658141e-14 36,7.98937936 36,17.8446731 C36,27.6999668 27.9414205,35.6893462 18,35.6893462 L18,35.6893462 Z M28.845005,9.71191503 C27.9767673,10.2306671 27.0149353,10.6070362 25.9913707,10.810156 C25.1714238,9.93046797 24.0034849,9.38134749 22.7110853,9.38134749 C20.2288417,9.38134749 18.2165616,11.4070694 18.2165616,13.9057418 C18.2165616,14.2602058 18.256389,14.6057086 18.3330568,14.936774 C14.598241,14.7480916 11.2865914,12.9468968 9.06969798,10.2092599 C8.68287421,10.8773648 8.46133422,11.654995 8.46133422,12.4839031 C8.46133422,14.0536011 9.25489545,15.4385994 10.4606704,16.250083 C9.72386326,16.2266844 9.03136409,16.0230667 8.4249917,15.6840358 L8.4249917,15.7407899 C8.4249917,17.9332891 9.97378029,19.7618653 12.0298706,20.1775639 C11.6525058,20.2806173 11.2557252,20.3358779 10.8460007,20.3358779 C10.5562562,20.3358779 10.2744773,20.3079987 10.0001659,20.2552273 C10.5721872,22.0524394 12.2319947,23.36077 14.1984733,23.3971125 C12.6601394,24.610853 10.7225357,25.3342184 8.61715898,25.3342184 C8.25423166,25.3342184 7.89678062,25.3128112 7.54480584,25.2709924 C9.53368735,26.5544308 11.8959509,27.303684 14.4339529,27.303684 C22.7006306,27.303684 27.2210422,20.4090607 27.2210422,14.4299701 C27.2210422,14.2338201 27.2165616,14.0391636 27.2076004,13.845005 C28.0857949,13.2067707 28.847992,12.4102224 29.4503817,11.5026552 C28.6443744,11.8625954 27.7781281,12.1060405 26.8690674,12.215068 C27.7970461,11.654995 28.509459,10.7683372 28.845005,9.71191503 L28.845005,9.71191503 Z" id="Shape"></path></g></g></svg>