<?xml version="1.0" encoding="UTF-8" standalone="no"?><svg width="256" height="256" version="1.1" xmlns="http://www.w3.org/2000/svg" xmlns:xlink="http://www.w3.org/1999/xlink"><title>ico-circle-x</title><g fill="#0082D3"><path d="M127.857 1.407c-45.053 0-84.575 23.582-106.971 59.052 7.668 5.536 17.054 8.837 27.237 8.837h91.041c47.995 0 90.266 24.458 115.064 61.581l.079-3.021c0-69.837-56.613-126.45-126.45-126.45z"/><path d="M254.307 127.857c0-3.392-.174-6.741-.436-10.068-24.849-38.446-66.948-57.695-114.707-57.695H48.123c-8.877 0-17.144-1.388-24.205-4.226C10.924 74.596 2.84 96.986 1.584 121.194c25.355 31.267 64.051 51.274 107.443 51.274h2.091c25.397 0 36.814 11.077 37.454 36.319.011-.402.062-.792.062-1.197 0 23.652-9.88 43.148-31.393 46.241 3.504.289 7.036.475 10.616.475 69.837 0 126.45-56.613 126.45-126.45z"/><path d="M117.375 253.84c22.446-3.012 39.815-21.924 40.402-45.056-.641-25.242-21.26-45.522-46.657-45.522h-2.091c-42.982 0-81.341-19.648-106.704-50.406-.584 4.923-.919 9.922-.919 15 0 66.302 51.041 120.65 115.969 125.984z"/></g><path d="M51.672 56.202l59.117 79.045-59.491 64.265h13.39l52.083-56.265 42.08 56.265h45.561l-62.441-83.491 55.371-59.819h-13.39l-47.964 51.819-38.756-51.819H51.672zm19.69 9.86h20.932l92.429 123.584h-20.932L71.362 66.062z" fill="#FFFFFF"/></svg>