<?xml version="1.0" encoding="UTF-8" standalone="no"?><svg width="36px" height="36px" viewBox="0 0 36 36" version="1.1" xmlns="http://www.w3.org/2000/svg" xmlns:xlink="http://www.w3.org/1999/xlink"><title>ico-circle-docs</title><g id="Page-1" stroke="none" stroke-width="1" fill="none" fill-rule="evenodd"><g id="ico-circle-docs" fill="#0082D3"><path d="M18,36 C8.059,36 0,27.941 0,18 C0,8.059 8.059,0 18,0 C27.941,0 36,8.059 36,18 C36,27.941 27.941,36 18,36 L18,36 Z M29.604,13.1205 C28.937,11.558 28.02,10.194 26.854,9.027 C25.687,7.861 24.323,6.944 22.7605,6.277 C21.198,5.611 19.5415,5.277 17.7915,5.277 C16.0415,5.277 14.3855,5.611 12.823,6.277 C11.2605,6.944 9.895,7.861 8.729,9.027 C7.562,10.194 6.645,11.558 5.979,13.1205 C5.312,14.683 4.979,16.3395 4.979,18.0895 C4.979,19.8395 5.312,21.4955 5.979,23.058 C6.645,24.6205 7.562,25.986 8.729,27.152 C9.895,28.319 11.2605,29.236 12.823,29.902 C14.3855,30.569 16.0415,30.902 17.7915,30.902 C19.5415,30.902 21.198,30.569 22.7605,29.902 C24.323,29.236 25.687,28.319 26.854,27.152 C28.02,25.986 28.937,24.6205 29.604,23.058 C30.27,21.4955 30.604,19.8395 30.604,18.0895 C30.604,16.3395 30.27,14.683 29.604,13.1205 L29.604,13.1205 Z M29.1665,20.8395 C29.0825,21.2985 28.9575,21.736 28.7915,22.152 C28.6245,22.569 28.437,22.986 28.229,23.402 L24.229,20.7145 C24.312,20.5065 24.3855,20.2985 24.448,20.0895 C24.5105,19.8815 24.562,19.6735 24.604,19.4645 C24.645,19.2145 24.6765,18.986 24.698,18.777 C24.7185,18.569 24.729,18.3395 24.729,18.0895 C24.729,17.8395 24.7185,17.6 24.698,17.3705 C24.6765,17.142 24.645,16.9235 24.604,16.7145 C24.562,16.5065 24.4995,16.2875 24.4165,16.058 C24.3325,15.8295 24.2495,15.611 24.1665,15.402 L28.229,12.7145 C28.437,13.1315 28.6245,13.5485 28.7915,13.9645 C28.9575,14.3815 29.0825,14.819 29.1665,15.277 C29.2915,15.736 29.3855,16.194 29.448,16.652 C29.5105,17.111 29.5415,17.5895 29.5415,18.0895 C29.5415,18.5485 29.5105,19.017 29.448,19.4955 C29.3855,19.975 29.2915,20.4235 29.1665,20.8395 L29.1665,20.8395 Z M23.229,13.777 C23.062,13.569 22.8745,13.361 22.6665,13.152 C22.4575,12.986 22.2495,12.819 22.0415,12.652 C21.8325,12.486 21.604,12.319 21.354,12.152 L24.0415,8.152 C24.4165,8.402 24.77,8.6625 25.104,8.933 C25.437,9.2045 25.7495,9.486 26.0415,9.777 C26.3745,10.069 26.6765,10.392 26.948,10.7455 C27.2185,11.1 27.4575,11.444 27.6665,11.777 L23.6665,14.4645 C23.5415,14.2145 23.395,13.986 23.229,13.777 L23.229,13.777 Z M19.7915,11.433 C19.5825,11.3705 19.3745,11.319 19.1665,11.277 C18.9165,11.236 18.687,11.2045 18.479,11.183 C18.27,11.1625 18.0415,11.152 17.7915,11.152 C17.5415,11.152 17.312,11.1625 17.104,11.183 C16.895,11.2045 16.6665,11.236 16.4165,11.277 C16.2075,11.319 15.9995,11.3705 15.7915,11.433 C15.5825,11.4955 15.3745,11.569 15.1665,11.652 L12.479,7.652 C12.895,7.444 13.312,7.2565 13.729,7.0895 C14.145,6.9235 14.5825,6.7985 15.0415,6.7145 C15.4575,6.5895 15.906,6.4955 16.3855,6.433 C16.864,6.3705 17.3325,6.3395 17.7915,6.3395 C18.2495,6.3395 18.7185,6.3705 19.198,6.433 C19.6765,6.4955 20.1245,6.5895 20.5415,6.7145 C20.9995,6.7985 21.437,6.9235 21.854,7.0895 C22.27,7.2565 22.687,7.444 23.104,7.652 L20.4165,11.652 C20.2075,11.569 19.9995,11.4955 19.7915,11.433 L19.7915,11.433 Z M13.5415,12.652 C13.3325,12.819 13.1245,12.986 12.9165,13.152 C12.7075,13.361 12.52,13.569 12.354,13.777 C12.187,13.986 12.0415,14.2145 11.9165,14.4645 L7.9165,11.777 C8.1245,11.444 8.364,11.1 8.6355,10.7455 C8.906,10.392 9.2075,10.069 9.5415,9.777 C9.8325,9.486 10.145,9.2045 10.479,8.933 C10.812,8.6625 11.1665,8.402 11.5415,8.152 L14.229,12.152 C13.979,12.319 13.7495,12.486 13.5415,12.652 L13.5415,12.652 Z M11.1665,16.058 C11.0825,16.2875 11.02,16.5065 10.979,16.7145 C10.937,16.9235 10.906,17.142 10.8855,17.3705 C10.864,17.6 10.854,17.8395 10.854,18.0895 C10.854,18.3395 10.864,18.569 10.8855,18.777 C10.906,18.986 10.937,19.194 10.979,19.402 C11.02,19.652 11.073,19.8815 11.1355,20.0895 C11.198,20.2985 11.27,20.5065 11.354,20.7145 L7.354,23.402 C7.145,22.986 6.9575,22.569 6.7915,22.152 C6.6245,21.736 6.4995,21.2985 6.4165,20.8395 C6.2915,20.4235 6.198,19.975 6.1355,19.4955 C6.073,19.017 6.0415,18.5485 6.0415,18.0895 C6.0415,17.5895 6.073,17.111 6.1355,16.652 C6.198,16.194 6.2915,15.736 6.4165,15.277 C6.4995,14.819 6.6245,14.3815 6.7915,13.9645 C6.9575,13.5485 7.145,13.1315 7.354,12.7145 L11.4165,15.402 C11.3325,15.611 11.2495,15.8295 11.1665,16.058 L11.1665,16.058 Z M12.323,22.3395 C12.5105,22.5485 12.687,22.7565 12.854,22.9645 C13.062,23.1735 13.281,23.361 13.5105,23.527 C13.739,23.694 13.9575,23.861 14.1665,24.027 L11.5415,27.9645 C11.1665,27.7565 10.8015,27.517 10.448,27.2455 C10.0935,26.975 9.77,26.6735 9.479,26.3395 C9.187,26.0485 8.906,25.736 8.6355,25.402 C8.364,25.069 8.104,24.7145 7.854,24.3395 L11.854,21.652 C11.979,21.902 12.1355,22.1315 12.323,22.3395 L12.323,22.3395 Z M15.7605,24.7145 C15.989,24.7985 16.2075,24.861 16.4165,24.902 C16.6245,24.944 16.8435,24.975 17.073,24.9955 C17.3015,25.017 17.5415,25.027 17.7915,25.027 C18.0415,25.027 18.281,25.017 18.5105,24.9955 C18.739,24.975 18.9575,24.944 19.1665,24.902 C19.3745,24.861 19.5935,24.7985 19.823,24.7145 C20.0515,24.6315 20.27,24.5485 20.479,24.4645 L23.1665,28.527 C22.7495,28.736 22.323,28.9235 21.8855,29.0895 C21.448,29.2565 21.02,29.3815 20.604,29.4645 C20.145,29.5895 19.687,29.683 19.229,29.7455 C18.77,29.808 18.2915,29.8395 17.7915,29.8395 C17.2915,29.8395 16.812,29.808 16.354,29.7455 C15.895,29.683 15.437,29.5895 14.979,29.4645 C14.562,29.3815 14.1355,29.2565 13.698,29.0895 C13.2605,28.9235 12.8325,28.736 12.4165,28.527 L15.1665,24.4645 C15.3325,24.5485 15.531,24.6315 15.7605,24.7145 L15.7605,24.7145 Z M21.9165,22.2145 C21.4165,22.7565 20.8015,23.183 20.073,23.4955 C19.3435,23.808 18.5825,23.9645 17.7915,23.9645 C16.9995,23.9645 16.239,23.808 15.5105,23.4955 C14.781,23.183 14.1665,22.7565 13.6665,22.2145 C13.1245,21.7145 12.698,21.1 12.3855,20.3705 C12.073,19.642 11.9165,18.8815 11.9165,18.0895 C11.9165,17.2985 12.073,16.5375 12.3855,15.808 C12.698,15.0795 13.1245,14.4645 13.6665,13.9645 C14.1665,13.4235 14.781,12.9955 15.5105,12.683 C16.239,12.3705 16.9995,12.2145 17.7915,12.2145 C18.5825,12.2145 19.3435,12.3705 20.073,12.683 C20.8015,12.9955 21.4165,13.4235 21.9165,13.9645 C22.4575,14.4645 22.8855,15.0795 23.198,15.808 C23.5105,16.5375 23.6665,17.2985 23.6665,18.0895 C23.6665,18.8815 23.5105,19.642 23.198,20.3705 C22.8855,21.1 22.4575,21.7145 21.9165,22.2145 L21.9165,22.2145 Z M22.073,23.527 C22.3015,23.361 22.52,23.1735 22.729,22.9645 C22.895,22.7565 23.073,22.5485 23.2605,22.3395 C23.448,22.1315 23.604,21.902 23.729,21.652 L27.729,24.3395 C27.479,24.7145 27.2185,25.069 26.948,25.402 C26.6765,25.736 26.395,26.0485 26.104,26.3395 C25.812,26.6735 25.489,26.975 25.1355,27.2455 C24.781,27.517 24.4165,27.7565 24.0415,27.9645 L21.4165,24.027 C21.6245,23.861 21.8435,23.694 22.073,23.527 L22.073,23.527 Z" id="Shape"></path></g></g></svg>