<?xml version="1.0" encoding="UTF-8" standalone="no"?><svg width="39px" height="46px" viewBox="0 0 39 46" version="1.1" xmlns="http://www.w3.org/2000/svg" xmlns:xlink="http://www.w3.org/1999/xlink"><title>ico-linode</title><defs></defs><g id="Page-1" stroke="none" stroke-width="1" fill="none" fill-rule="evenodd"><g id="ico-linode"><g id="linode-logo" transform="translate(1.000000, 1.000000)"><path d="M36.5877375,19.37662 C36.5124205,19.3101266 30.5109367,16.0037834 30.5109367,16.0037834 C30.428246,15.9582328 30.32677,15.9601526 30.2460105,16.0093681 L25.1823902,19.0865623 C25.1049664,19.1617818 25.0981194,19.1692863 25.0928525,19.177838 C25.0593198,19.2874386 25.0565107,19.2958157 25.0563352,19.3047164 L25.002437,21.9768421 L22.9425432,20.6242868 C22.857219,20.5682648 22.7471403,20.5663451 22.6600605,20.6192256 L19.6965382,22.4199567 L19.5680253,19.4254865 C19.5281723,19.2993062 19.5215008,19.29058 19.515005,19.2816793 C19.463038,19.2294969 16.3678426,17.1601745 16.3678426,17.1601745 L19.2544678,15.6669535 C19.3450589,15.6198322 19.4003616,15.5250661 19.3959725,15.4234935 L18.9110644,4.15033776 C18.8722647,4.02503005 18.8687534,4.02136506 18.8657688,4.01717651 C18.7865894,3.93881556 18.7797424,3.93672128 18.7735977,3.93340534 C18.7695597,3.93113654 10.984169,0.194767963 10.984169,0.194767963 C10.9239505,0.165971625 10.8551293,0.160735927 10.7913996,0.180631579 L0.183288938,3.46568299 C0.0802328013,3.52851137 0.0675921849,3.53863371 0.0575850303,3.55085034 C0.00649587232,3.66114905 0.00193120528,3.6712714 0.000351128233,3.68244088 C0.00386241057,3.76516491 2.37064227,15.1334359 2.37064227,15.1334359 C2.38328288,15.1941699 2.41734232,15.2486212 2.46650028,15.2868418 L5.67914805,17.7760671 L3.35661035,18.8753892 C3.25460759,18.9623018 3.2453027,18.9774853 3.23705118,18.9933669 C3.20720528,19.1150096 3.20790754,19.1357779 3.21159439,19.1563716 C3.21212108,19.1593385 4.99286791,27.7183085 4.99286791,27.7183085 C5.00392845,27.7710145 5.03096533,27.8190084 5.07029169,27.8558328 L7.30627628,29.9495884 L5.82451513,30.850303 C5.74954926,30.9201123 5.73866428,30.9365175 5.72953495,30.9537953 C5.69740671,31.0689806 5.69951348,31.0937629 5.70372702,31.1181962 C5.70425371,31.1209886 7.08383654,37.7506038 7.08383654,37.7506038 C7.09366813,37.7982487 7.11649147,37.8418795 7.15002422,37.8771332 L12.7305052,43.7655481 C12.8272411,43.8302963 12.8293478,43.8299472 12.8311035,43.8306453 C12.9478536,43.8479231 12.973486,43.8426874 12.9985916,43.8350084 C13.0709241,43.798533 20.2643126,38.1055841 20.2643126,38.1055841 C20.3301491,38.0535762 20.366842,37.9732955 20.3633308,37.8896989 L20.1954915,33.9866606 L22.5935217,35.9931545 C22.7093941,36.049002 22.7360798,36.0545867 22.7631167,36.0545867 C22.8633638,36.0334694 22.869333,36.0324223 22.8751266,36.0298044 C22.9149796,36.0036259 28.6812075,31.435654 28.6812075,31.435654 C28.7394948,31.3894053 28.7753099,31.3206432 28.779699,31.2468198 L28.9547364,28.3842892 L30.7054618,29.5956552 C30.8076401,29.6382389 30.8315168,29.6424275 30.8557446,29.6424275 C30.9558162,29.6214847 30.9619609,29.6204375 30.967579,29.6178197 C31.0123478,29.5888488 35.7137793,25.8660931 35.7137793,25.8660931 C35.7669752,25.824033 35.8015614,25.7634734 35.8106907,25.696631 L36.6432157,19.5719115 C36.6052939,19.4000061 36.5968668,19.3881385 36.5877375,19.37662 Z" id="black" fill="#1A1918"></path><path d="M9.15443974,19.8049001 L9.1546153,19.8049001 L7.48745845,8.49020778 L0.64396918,4.26028741 L2.8666109,14.9329086 L9.15443974,19.8049001 L9.15443974,19.8049001 Z M6.39580077,31.8649812 L7.58436984,37.5720665 L12.5401937,42.8013071 L11.6916924,37.0427375 L6.39580077,31.8649812 L6.39580077,31.8649812 Z M19.9133599,27.4696128 L19.932672,27.9198828 C19.9365344,28.0108095 19.8926434,28.0971985 19.8166241,28.1481593 L17.9064865,29.4272403 L19.9835856,31.1126114 C19.9849901,31.1138331 19.9860435,31.1154038 19.987448,31.1166255 C19.9932416,31.1215121 19.9978063,31.1274459 20.0032488,31.1328561 C20.0134315,31.1429785 20.0230875,31.1534499 20.031339,31.1651429 C20.0362548,31.1721239 20.0401172,31.1792793 20.0443308,31.1866093 C20.0510022,31.1983024 20.0569714,31.2103445 20.0618872,31.2229101 C20.0648718,31.2309382 20.0675052,31.2389663 20.0697876,31.2471689 C20.0734744,31.2606072 20.0755812,31.27422 20.0771613,31.2881818 C20.0776879,31.2935921 20.0797947,31.2986532 20.0799703,31.304238 L20.1649433,33.2766999 L22.4948547,35.2262993 L22.4458723,29.3912885 L19.9133599,27.4696128 L19.9133599,27.4696128 Z M25.5737226,19.7757547 L25.5224579,22.3182096 L29.0519989,24.635704 C29.0625327,24.6425105 29.0711354,24.6515857 29.0804403,24.6597883 C29.0857072,24.6645004 29.0916764,24.6683399 29.0964166,24.6734011 C29.1283693,24.7065605 29.1508415,24.7472244 29.161902,24.7917278 C29.1636577,24.7987088 29.1638332,24.8060387 29.1648866,24.8131942 C29.1668178,24.8252363 29.1698024,24.8369294 29.1701535,24.8493205 C29.1701535,24.8533346 29.1689246,24.8571741 29.1689246,24.8611881 C29.168749,24.864155 29.1698024,24.8669474 29.1696269,24.8699143 L28.9921315,27.7722362 L30.6327782,28.9073355 L31.1282201,23.2157828 L25.5737226,19.7757547 L25.5737226,19.7757547 Z M11.058257,32.7433568 L5.49182113,27.5312195 L3.88049367,19.7926834 L9.88373308,24.7650258 L11.058257,32.7433568 L11.058257,32.7433568 Z" id="dark-green" fill="#073D1A"></path><path d="M18.8626087,15.2793373 L18.4005239,4.53655774 L8.02134893,8.50137727 L9.71729829,20.010314 L18.8626087,15.2793373 L18.8626087,15.2793373 Z M19.400186,27.7956223 L19.0602939,19.8762801 L10.4163946,24.7671201 L11.6284893,33.0000805 L19.400186,27.7956223 L19.400186,27.7956223 Z M19.5746968,31.8096574 L12.2234761,37.0378508 L13.1162196,43.0976476 L13.1163952,43.0976476 L19.8313715,37.7790511 L19.5746968,31.8096574 L19.5746968,31.8096574 Z M22.9727402,29.3946044 L23.0218982,35.2528268 L28.2610826,31.0988241 L28.6102796,25.3866777 L22.9727402,29.3946044 L22.9727402,29.3946044 Z M36.0398019,20.1026368 L35.3027837,25.5222822 L31.1710578,28.7961641 L31.656317,23.221193 L36.0398019,20.1026368 L36.0398019,20.1026368 Z" id="light-green" fill="#00A756"></path></g></g></g></svg>