<?xml version="1.0" encoding="UTF-8" standalone="no"?>
<svg width="108px" height="108px" viewBox="0 0 108 108" version="1.1" xmlns="http://www.w3.org/2000/svg" xmlns:xlink="http://www.w3.org/1999/xlink">
    <!-- Generator: Sketch 3.8.2 (29753) - http://www.bohemiancoding.com/sketch -->
    <title>illu-docs</title>
    <desc>Created with Sketch.</desc>
    <defs></defs>
    <g id="Page-1" stroke="none" stroke-width="1" fill="none" fill-rule="evenodd">
        <g id="illu-docs" fill="#CBDBD1">
            <g transform="translate(3.000000, 3.000000)" id="Page-1">
                <g>
                    <g id="illu-docs">
                        <path d="M51,0 C57.9658537,0 64.5585366,1.32948293 70.7780488,3.9804878 C76.997561,6.63547317 82.4279415,10.2855805 87.0731707,14.9268293 C91.7144195,19.5720585 95.3645268,25.002439 98.019512,31.2219512 C100.670517,37.4414634 102,44.0341463 102,51 C102,57.9658537 100.670517,64.5585366 98.019512,70.7780488 C95.3645268,76.997561 91.7144195,82.431922 87.0731707,87.0731707 C82.4279415,91.7184 76.997561,95.3685073 70.7780488,98.019512 C64.5585366,100.674498 57.9658537,102 51,102 C44.0341463,102 37.4414634,100.674498 31.2219512,98.019512 C25.002439,95.3685073 19.568078,91.7184 14.9268293,87.0731707 C10.2816,82.431922 6.63149268,76.997561 3.9804878,70.7780488 C1.32550244,64.5585366 0,57.9658537 0,51 C0,44.0341463 1.32550244,37.4414634 3.9804878,31.2219512 C6.63149268,25.002439 10.2816,19.5720585 14.9268293,14.9268293 C19.568078,10.2855805 25.002439,6.63547317 31.2219512,3.9804878 C37.4414634,1.32948293 44.0341463,0 51,0 L51,0 L51,0 L51,0 Z M51,74.3853659 C54.1485659,74.3853659 57.176722,73.7634146 60.0804878,72.5195122 C62.9802732,71.2756098 65.4292683,69.5769366 67.4195122,67.4195122 C69.5729561,65.4292683 71.2756098,62.9842537 72.5195122,60.0804878 C73.7634146,57.1807024 74.3853659,54.1525463 74.3853659,51 C74.3853659,47.8514341 73.7634146,44.823278 72.5195122,41.9195122 C71.2756098,39.0197268 69.5729561,36.5707317 67.4195122,34.5804878 C65.4292683,32.4270439 62.9802732,30.7243902 60.0804878,29.4804878 C57.176722,28.2365854 54.1485659,27.6146341 51,27.6146341 C47.8474537,27.6146341 44.8192976,28.2365854 41.9195122,29.4804878 C39.0157463,30.7243902 36.5707317,32.4270439 34.5804878,34.5804878 C32.4230634,36.5707317 30.7243902,39.0197268 29.4804878,41.9195122 C28.2365854,44.823278 27.6146341,47.8514341 27.6146341,51 C27.6146341,54.1525463 28.2365854,57.1807024 29.4804878,60.0804878 C30.7243902,62.9842537 32.4230634,65.4292683 34.5804878,67.4195122 C36.5707317,69.5769366 39.0157463,71.2756098 41.9195122,72.5195122 C44.8192976,73.7634146 47.8474537,74.3853659 51,74.3853659 L51,74.3853659 L51,74.3853659 L51,74.3853659 Z M76.3756098,40.302439 C76.7059902,41.134361 77.0363707,42.0050927 77.3707317,42.9146341 C77.7011122,43.8281561 77.9498927,44.6988878 78.1170732,45.5268293 C78.2802732,46.3587512 78.4046634,47.2294829 78.4902439,48.1390244 C78.5718439,49.0525463 78.6146341,50.004878 78.6146341,51 C78.6146341,51.995122 78.5718439,52.9086439 78.4902439,53.7365854 C78.4046634,54.5685073 78.2802732,55.4780488 78.1170732,56.4731707 C77.9498927,57.3050927 77.7439024,58.1330341 77.495122,58.9609756 C77.2463415,59.7928976 76.9547707,60.620839 76.6243902,61.4487805 L92.5463415,72.1463415 C93.3742829,70.4904585 94.1206244,68.8305951 94.7853659,67.1707317 C95.4461268,65.5148488 95.9436878,63.7733854 96.2780488,61.9463415 C96.7756098,60.2904585 97.14878,58.5062049 97.397561,56.597561 C97.646341,54.6928976 97.770732,52.8270439 97.770732,51 C97.770732,49.0097561 97.646341,47.1050927 97.397561,45.2780488 C97.14878,43.4549854 96.7756098,41.631922 96.2780488,39.804878 C95.9436878,37.9818146 95.4461268,36.2403512 94.7853659,34.5804878 C94.1206244,32.9246049 93.3742829,31.2647415 92.5463415,29.604878 L76.3756098,40.302439 L76.3756098,40.302439 L76.3756098,40.302439 Z M90.3073171,25.8731707 C89.4753951,24.5476683 88.5230634,23.1793756 87.4463415,21.7682927 C86.365639,20.3611902 85.1645268,19.0744976 83.8390244,17.9121951 C82.676722,16.7538732 81.4328195,15.634361 80.1073171,14.5536585 C78.7778341,13.4769366 77.3707317,12.4390244 75.8780488,11.4439024 L65.1804878,27.3658537 C66.1756098,28.0305951 67.0851512,28.6953366 67.9170732,29.3560976 C68.7450146,30.020839 69.5729561,30.6855805 70.404878,31.3463415 C71.2328195,32.1782634 71.979161,33.0062049 72.6439024,33.8341463 C73.3046634,34.6660683 73.8878049,35.5756098 74.3853659,36.5707317 L90.3073171,25.8731707 L90.3073171,25.8731707 L90.3073171,25.8731707 Z M72.1463415,9.4536585 C70.486478,8.6257171 68.8266146,7.8793756 67.1707317,7.2146341 C65.5108683,6.55387317 63.7694049,6.0563122 61.9463415,5.72195122 C60.286478,5.22439024 58.5022244,4.85121951 56.597561,4.60243902 C54.6889171,4.35365854 52.8230634,4.22926829 51,4.22926829 C49.1729561,4.22926829 47.3071024,4.35365854 45.402439,4.60243902 C43.4937951,4.85121951 41.7095415,5.22439024 40.0536585,5.72195122 C38.2266146,6.0563122 36.4851512,6.55387317 34.8292683,7.2146341 C33.1694049,7.8793756 31.5095415,8.6257171 29.8536585,9.4536585 L40.5512195,25.3756098 C41.379161,25.0452293 42.2071024,24.7536585 43.0390244,24.504878 C43.8669659,24.2560976 44.6949073,24.0501073 45.5268293,23.8829268 C46.5219512,23.7197268 47.4314927,23.5953366 48.2634146,23.5097561 C49.0913561,23.4281561 50.004878,23.3853659 51,23.3853659 C51.995122,23.3853659 52.9046634,23.4281561 53.7365854,23.5097561 C54.5645268,23.5953366 55.4780488,23.7197268 56.4731707,23.8829268 C57.3011122,24.0501073 58.1290537,24.2560976 58.9609756,24.504878 C59.7889171,24.7536585 60.6168585,25.0452293 61.4487805,25.3756098 L72.1463415,9.4536585 L72.1463415,9.4536585 L72.1463415,9.4536585 Z M26.1219512,11.4439024 C24.6292683,12.4390244 23.2181854,13.4769366 21.8926829,14.5536585 C20.5632,15.634361 19.3192976,16.7538732 18.1609756,17.9121951 C16.8314927,19.0744976 15.6303805,20.3611902 14.5536585,21.7682927 C13.4729561,23.1793756 12.5206244,24.5476683 11.6926829,25.8731707 L27.6146341,36.5707317 C28.1121951,35.5756098 28.6913561,34.6660683 29.3560976,33.8341463 C30.0168585,33.0062049 30.7632,32.1782634 31.595122,31.3463415 C32.4230634,30.6855805 33.2510049,30.020839 34.0829268,29.3560976 C34.9108683,28.6953366 35.8243902,28.0305951 36.8195122,27.3658537 L26.1219512,11.4439024 L26.1219512,11.4439024 L26.1219512,11.4439024 Z M9.4536585,29.604878 C8.6217366,31.2647415 7.8753951,32.9246049 7.2146341,34.5804878 C6.54989268,36.2403512 6.05233171,37.9818146 5.72195122,39.804878 C5.22439024,41.631922 4.85121951,43.4549854 4.60243902,45.2780488 C4.35365854,47.1050927 4.22926829,49.0097561 4.22926829,51 C4.22926829,52.8270439 4.35365854,54.6928976 4.60243902,56.597561 C4.85121951,58.5062049 5.22439024,60.2904585 5.72195122,61.9463415 C6.05233171,63.7733854 6.54989268,65.5148488 7.2146341,67.1707317 C7.8753951,68.8305951 8.6217366,70.4904585 9.4536585,72.1463415 L25.3756098,61.4487805 C25.0412488,60.620839 24.7536585,59.7928976 24.504878,58.9609756 C24.2560976,58.1330341 24.0461268,57.2195122 23.8829268,56.2243902 C23.7157463,55.3964488 23.5913561,54.5685073 23.5097561,53.7365854 C23.4241756,52.9086439 23.3853659,51.995122 23.3853659,51 C23.3853659,50.004878 23.4241756,49.0525463 23.5097561,48.1390244 C23.5913561,47.2294829 23.7157463,46.3587512 23.8829268,45.5268293 C24.0461268,44.6988878 24.2949073,43.8281561 24.6292683,42.9146341 C24.9596488,42.0050927 25.2900293,41.134361 25.6243902,40.302439 L9.4536585,29.604878 L9.4536585,29.604878 L9.4536585,29.604878 Z M11.4439024,75.8780488 C12.4390244,77.3707317 13.4729561,78.7818146 14.5536585,80.1073171 C15.6303805,81.4368 16.7498927,82.6807024 17.9121951,83.8390244 C19.0705171,85.1685073 20.3572098,86.3696195 21.7682927,87.4463415 C23.1753951,88.5270439 24.6292683,89.4793756 26.1219512,90.3073171 L36.5707317,74.6341463 C35.7388098,73.9733854 34.868078,73.3086439 33.9585366,72.6439024 C33.0450146,71.9831415 32.1742829,71.2368 31.3463415,70.404878 C30.6816,69.5769366 29.9780488,68.7489951 29.2317073,67.9170732 C28.4853659,67.0891317 27.8634146,66.1756098 27.3658537,65.1804878 L11.4439024,75.8780488 L11.4439024,75.8780488 L11.4439024,75.8780488 Z M29.604878,92.5463415 C31.260761,93.3782634 32.9634146,94.1246049 34.704878,94.7853659 C36.4463415,95.4501073 38.1450146,95.9476683 39.804878,96.2780488 C41.6279415,96.7756098 43.4510049,97.14878 45.2780488,97.397561 C47.1011122,97.646341 49.0097561,97.770732 51,97.770732 C52.9902439,97.770732 54.8949073,97.646341 56.7219512,97.397561 C58.5450146,97.14878 60.368078,96.7756098 62.195122,96.2780488 C63.8510049,95.9476683 65.5536585,95.4501073 67.295122,94.7853659 C69.0365854,94.1246049 70.7352585,93.3782634 72.395122,92.5463415 L61.697561,76.3756098 C60.865639,76.7099707 59.9949073,77.0403512 59.0853659,77.3707317 C58.1718439,77.7050927 57.3011122,77.9538732 56.4731707,78.1170732 C55.6412488,78.2842537 54.7705171,78.4086439 53.8609756,78.4902439 C52.9474537,78.5758244 51.995122,78.6146341 51,78.6146341 C50.004878,78.6146341 49.0485659,78.5758244 48.1390244,78.4902439 C47.2255024,78.4086439 46.3547707,78.2842537 45.5268293,78.1170732 C44.6949073,77.9538732 43.8241756,77.7050927 42.9146341,77.3707317 C42.0011122,77.0403512 41.2119805,76.7099707 40.5512195,76.3756098 L29.604878,92.5463415 L29.604878,92.5463415 L29.604878,92.5463415 Z M75.8780488,90.3073171 C77.3707317,89.4793756 78.8206244,88.5270439 80.2317073,87.4463415 C81.6388098,86.3696195 82.9255024,85.1685073 84.0878049,83.8390244 C85.2461268,82.6807024 86.365639,81.4368 87.4463415,80.1073171 C88.5230634,78.7818146 89.5609756,77.3707317 90.5560976,75.8780488 L74.6341463,65.1804878 C74.1365854,66.1756098 73.5146341,67.0891317 72.7682927,67.9170732 C72.0219512,68.7489951 71.3144195,69.5769366 70.6536585,70.404878 C69.8217366,71.2368 68.9510049,71.9831415 68.0414634,72.6439024 C67.1279415,73.3086439 66.2572098,73.9733854 65.4292683,74.6341463 L75.8780488,90.3073171 L75.8780488,90.3073171 L75.8780488,90.3073171 Z" id="Shape"></path>
                    </g>
                </g>
            </g>
        </g>
    </g>
</svg>