<?xml version="1.0" encoding="UTF-8" standalone="no"?>
<svg width="108px" height="108px" viewBox="0 0 108 108" version="1.1" xmlns="http://www.w3.org/2000/svg" xmlns:xlink="http://www.w3.org/1999/xlink">
    <!-- Generator: Sketch 3.8.2 (29753) - http://www.bohemiancoding.com/sketch -->
    <title>illu-octocat</title>
    <desc>Created with Sketch.</desc>
    <defs></defs>
    <g id="Page-1" stroke="none" stroke-width="1" fill="none" fill-rule="evenodd">
        <g id="illu-octocat" fill="#FED2A7">
            <g id="Group" transform="translate(3.000000, 3.000000)">
                <path d="M51.0918843,0.377044335 C22.9811901,0.377044335 0.186297521,23.2843941 0.186297521,51.5432315 C0.186297521,74.1497931 14.7722975,93.329064 34.9986446,100.09468 C37.5427438,100.568315 38.4767603,98.9847291 38.4767603,97.6333005 C38.4767603,96.413202 38.4295537,92.3826404 38.4076364,88.1072118 C24.2456529,91.2023645 21.2573058,82.070266 21.2573058,82.070266 C18.9416529,76.1561773 15.605157,74.5836059 15.605157,74.5836059 C10.9864959,71.4079606 15.9533058,71.473202 15.9533058,71.473202 C21.0651074,71.8341478 23.7567273,76.7458916 23.7567273,76.7458916 C28.2969917,84.5680788 35.665438,82.3066601 38.5703306,80.9992906 C39.0272231,77.6923153 40.3464793,75.435133 41.8022975,74.1574187 C30.4954711,72.8636059 18.6095207,68.476335 18.6095207,48.8708768 C18.6095207,43.2846897 20.5980992,38.720335 23.8545124,35.1371429 C23.3259669,33.8484138 21.5835372,28.6443547 24.3476529,21.5965911 C24.3476529,21.5965911 28.6223802,20.2214384 38.350314,26.8413202 C42.4109256,25.7076453 46.7657355,25.1391133 51.0918843,25.1196256 C55.4180331,25.1391133 59.7762149,25.7076453 63.8444132,26.8413202 C73.5605455,20.2214384 77.8293719,21.5965911 77.8293719,21.5965911 C80.6002314,28.6443547 78.8569587,33.8484138 78.3284132,35.1371429 C81.5924132,38.720335 83.5675041,43.2846897 83.5675041,48.8708768 C83.5675041,68.522936 71.6587934,72.8500493 60.3233058,74.1167488 C62.1491901,75.7045714 63.7761322,78.8183645 63.7761322,83.592 C63.7761322,90.4381084 63.717124,95.9480394 63.717124,97.6333005 C63.717124,98.9948966 64.633438,100.590345 67.2137851,100.087901 C87.4291736,93.3146601 101.996628,74.1421675 101.996628,51.5432315 C101.996628,23.2843941 79.2051074,0.377044335 51.0918843,0.377044335" id="Fill-4"></path>
                <path d="M19.4668264,73.840532 C19.3547107,74.0947192 18.9568264,74.1709754 18.5943471,73.9964335 C18.225124,73.8295172 18.0177521,73.4829754 18.1374545,73.2279409 C18.2470413,72.9661281 18.6457686,72.8932611 19.0141488,73.0686502 C19.3842149,73.2355665 19.5949587,73.5854975 19.4668264,73.840532" id="Fill-5"></path>
                <path d="M21.5287438,76.1519409 C21.2859669,76.3781675 20.8113719,76.2731034 20.4893554,75.9155468 C20.1563802,75.5588374 20.094,75.0818128 20.3401488,74.852197 C20.5905124,74.6259704 21.0507769,74.7318818 21.384595,75.0885911 C21.7175702,75.4495369 21.7824793,75.9231724 21.5287438,76.1519409" id="Fill-6"></path>
                <path d="M23.5358678,79.0988177 C23.2239669,79.3165714 22.7139669,79.1123744 22.3986942,78.6573793 C22.0867934,78.2023842 22.0867934,77.6567291 22.405438,77.4381281 C22.7215537,77.2195271 23.2239669,77.4160985 23.5434545,77.8677044 C23.8545124,78.3303251 23.8545124,78.8759803 23.5358678,79.0988177" id="Fill-7"></path>
                <path d="M26.2856529,81.9457143 C26.0066281,82.2549754 25.4123306,82.1719409 24.9773554,81.7499901 C24.5322645,81.3373596 24.4083471,80.7518818 24.6882149,80.4426207 C24.9706116,80.1325123 25.568281,80.2197833 26.0066281,80.6383448 C26.4483471,81.0501281 26.5832231,81.6398424 26.2856529,81.9457143" id="Fill-8"></path>
                <path d="M30.0790413,83.5987783 C29.9559669,83.9995468 29.3835868,84.1817143 28.8069917,84.0114089 C28.2312397,83.8360197 27.8544298,83.3666207 27.9707603,82.9616158 C28.0904628,82.5583054 28.6653719,82.3685123 29.2461818,82.5506798 C29.8210909,82.7252217 30.1987438,83.1912315 30.0790413,83.5987783" id="Fill-9"></path>
                <path d="M34.2450248,83.9054975 C34.2593554,84.3274483 33.7704298,84.6773793 33.1651736,84.6850049 C32.5565455,84.6985616 32.0642479,84.3571034 32.0575041,83.941931 C32.0575041,83.5157438 32.5354711,83.169202 33.1440992,83.1590345 C33.7493554,83.1471724 34.2450248,83.4860887 34.2450248,83.9054975" id="Fill-10"></path>
                <path d="M38.1218678,83.242069 C38.1943636,83.6538522 37.773719,84.0766502 37.1726777,84.1893399 C36.5817521,84.2977931 36.0346612,84.0436059 35.9596364,83.6352118 C35.8862975,83.2132611 36.3145289,82.7904631 36.9046116,82.6811626 C37.5064959,82.5760985 38.045157,82.8235074 38.1218678,83.242069" id="Fill-11"></path>
            </g>
        </g>
    </g>
</svg>