<?xml version="1.0" encoding="UTF-8" standalone="no"?><svg viewBox="0 0 419.15 97.25" xmlns="http://www.w3.org/2000/svg"><title>Excelize Slack Channel</title><desc>https://xuri.me/excelize</desc><g transform="translate(0 -5.88)"><path d="m35.58 5.88a9.72 9.72 0 0 0 0 19.44h9.72v-9.72a9.72 9.72 0 0 0 -9.72-9.72zm0 25.93h-25.87a9.73 9.73 0 0 0 0 19.45h25.87a9.73 9.73 0 0 0 0-19.45z" fill="#36c5f0"/><path d="m97.06 41.53a9.71 9.71 0 1 0 -19.42 0v9.73h9.71a9.73 9.73 0 0 0 9.71-9.73zm-25.89 0v-25.93a9.71 9.71 0 1 0 -19.41 0v25.93a9.71 9.71 0 1 0 19.41 0z" fill="#2eb67d"/><path d="m61.47 103.12a9.72 9.72 0 0 0 0-19.44h-9.71v9.72a9.72 9.72 0 0 0 9.71 9.72zm0-25.93h25.88a9.73 9.73 0 0 0 0-19.45h-25.88a9.73 9.73 0 0 0 0 19.45z" fill="#ecb22e"/><path d="m0 67.46a9.71 9.71 0 1 0 19.41 0v-9.72h-9.7a9.72 9.72 0 0 0 -9.71 9.72m25.88 0v25.94a9.71 9.71 0 1 0 19.41 0v-25.93a9.71 9.71 0 1 0 -19.41 0" fill="#e01e5a"/><path d="m124.13 28.88a5.36 5.36 0 0 1 -.91 2.23 5.43 5.43 0 0 1 -2 1.74 7.91 7.91 0 0 1 -3.61.69 8.88 8.88 0 0 1 -2.47-.35 6.37 6.37 0 0 1 -2.14-1.11 5.46 5.46 0 0 1 -1.5-1.93 6.54 6.54 0 0 1 -.57-2.86v-1.76h4v.91a8.36 8.36 0 0 0 .11 1.37 3 3 0 0 0 .4 1.06 2 2 0 0 0 .78.7 2.82 2.82 0 0 0 1.29.25 2.5 2.5 0 0 0 1.37-.31 1.8 1.8 0 0 0 .69-.81 3.17 3.17 0 0 0 .26-1.08c0-.39 0-.76 0-1.12v-13.69h4.46v13.89a13.58 13.58 0 0 1 -.16 2.18z" fill="#424242"/><path d="m127.91 22.57a6.66 6.66 0 0 1 3.92-4 8.38 8.38 0 0 1 3.17-.57 8.48 8.48 0 0 1 3.14.55 6.83 6.83 0 0 1 2.4 1.56 7 7 0 0 1 1.46 2.46 9 9 0 0 1 .54 3.19 8.88 8.88 0 0 1 -.54 3.18 6.89 6.89 0 0 1 -1.53 2.43 6.67 6.67 0 0 1 -2.4 1.55 8.69 8.69 0 0 1 -3.14.54 8.58 8.58 0 0 1 -3.12-.54 6.81 6.81 0 0 1 -2.39-1.55 6.89 6.89 0 0 1 -1.53-2.43 8.88 8.88 0 0 1 -.54-3.18 9 9 0 0 1 .56-3.19zm3.66 4.91a4.52 4.52 0 0 0 .59 1.5 3 3 0 0 0 1.09 1.07 3.37 3.37 0 0 0 1.7.4 3.47 3.47 0 0 0 1.72-.4 3.16 3.16 0 0 0 1.11-1.05 4.51 4.51 0 0 0 .58-1.5 8.88 8.88 0 0 0 .17-1.72 9.06 9.06 0 0 0 -.17-1.73 4.48 4.48 0 0 0 -.58-1.51 3.32 3.32 0 0 0 -1.11-1.06 3.27 3.27 0 0 0 -1.72-.41 3.09 3.09 0 0 0 -2.79 1.47 4.5 4.5 0 0 0 -.59 1.51 9.06 9.06 0 0 0 -.17 1.73 8.88 8.88 0 0 0 .17 1.7z" fill="#424242"/><path d="m145.29 16.13v-3.32h4v3.32zm4 2.28v14.68h-4v-14.68z" fill="#424242"/><path d="m156.34 18.41v2h.08a4.67 4.67 0 0 1 2-1.86 5.72 5.72 0 0 1 2.5-.58 6.69 6.69 0 0 1 2.65.44 3.89 3.89 0 0 1 1.64 1.22 4.65 4.65 0 0 1 .84 1.9 12 12 0 0 1 .24 2.49v9h-4v-8.3a5.14 5.14 0 0 0 -.56-2.71 2.21 2.21 0 0 0 -2-.89 2.79 2.79 0 0 0 -2.39 1 5.46 5.46 0 0 0 -.73 3.22v7.7h-4v-14.63z" fill="#424242"/><path d="m185.3 18.41v2.69h-3v7.27a2 2 0 0 0 .34 1.37 2 2 0 0 0 1.37.34h.65a4.89 4.89 0 0 0 .59-.09v3.13c-.34 0-.72.09-1.13.11h-1.22a11.2 11.2 0 0 1 -1.78-.13 4.11 4.11 0 0 1 -1.47-.49 2.58 2.58 0 0 1 -1-1.06 3.69 3.69 0 0 1 -.37-1.79v-8.66h-2.44v-2.69h2.44v-4.41h4v4.41z" fill="#424242"/><path d="m191.27 12.81v7.64h.08a4.72 4.72 0 0 1 2-1.86 5.27 5.27 0 0 1 2.33-.58 6.75 6.75 0 0 1 2.66.44 3.92 3.92 0 0 1 1.63 1.22 4.65 4.65 0 0 1 .84 1.9 12 12 0 0 1 .24 2.49v9h-4v-8.3a5.13 5.13 0 0 0 -.57-2.71 2.21 2.21 0 0 0 -2-.89 2.76 2.76 0 0 0 -2.38 1 5.38 5.38 0 0 0 -.74 3.22v7.7h-4v-20.27z" fill="#424242"/><path d="m208.39 29.57a4.15 4.15 0 0 0 4.72.27 2.61 2.61 0 0 0 1.08-1.3h3.55a6.75 6.75 0 0 1 -2.62 3.78 7.65 7.65 0 0 1 -4.26 1.14 8.38 8.38 0 0 1 -3.12-.56 6.56 6.56 0 0 1 -2.36-1.57 7.13 7.13 0 0 1 -1.49-2.45 8.88 8.88 0 0 1 -.52-3.12 8.58 8.58 0 0 1 .54-3.07 7.13 7.13 0 0 1 3.9-4.09 7.75 7.75 0 0 1 3.05-.59 7 7 0 0 1 3.27.72 6.47 6.47 0 0 1 2.29 1.95 8.16 8.16 0 0 1 1.29 2.78 10.4 10.4 0 0 1 .28 3.27h-10.59a4.14 4.14 0 0 0 .99 2.84zm4.61-7.73a2.83 2.83 0 0 0 -2.2-.79 3.59 3.59 0 0 0 -1.6.32 3.15 3.15 0 0 0 -1 .81 3.19 3.19 0 0 0 -.54 1 4.83 4.83 0 0 0 -.18 1h6.52a4.71 4.71 0 0 0 -1-2.34z" fill="#424242"/><path d="m232.11 28.09a3.14 3.14 0 0 0 1 1.15 4.17 4.17 0 0 0 1.43.65 6.45 6.45 0 0 0 1.7.22 9.83 9.83 0 0 0 1.28-.1 4.54 4.54 0 0 0 1.28-.39 2.85 2.85 0 0 0 1-.78 2 2 0 0 0 .39-1.26 1.79 1.79 0 0 0 -.52-1.34 4.21 4.21 0 0 0 -1.38-.85 14.74 14.74 0 0 0 -1.93-.6c-.72-.17-1.45-.35-2.19-.56a18.32 18.32 0 0 1 -2.21-.7 7.48 7.48 0 0 1 -1.96-1.06 5 5 0 0 1 -1.38-1.64 4.94 4.94 0 0 1 -.53-2.37 5.26 5.26 0 0 1 .67-2.71 6 6 0 0 1 1.75-1.92 7.48 7.48 0 0 1 2.49-1.13 10.26 10.26 0 0 1 2.73-.37 13.26 13.26 0 0 1 3.05.35 7.76 7.76 0 0 1 2.6 1.15 5.86 5.86 0 0 1 1.8 2 6.33 6.33 0 0 1 .67 3h-4.32a3.76 3.76 0 0 0 -.38-1.51 2.52 2.52 0 0 0 -.87-.93 3.73 3.73 0 0 0 -1.23-.49 8 8 0 0 0 -1.52-.14 5 5 0 0 0 -1.08.12 2.72 2.72 0 0 0 -1 .39 2.47 2.47 0 0 0 -.73.71 1.93 1.93 0 0 0 -.28 1.08 1.77 1.77 0 0 0 .23 1 2.09 2.09 0 0 0 .89.68 10.66 10.66 0 0 0 1.85.62l3.08.8c.38.08.9.21 1.57.41a7.8 7.8 0 0 1 2 .95 6.24 6.24 0 0 1 1.72 1.75 5 5 0 0 1 .72 2.8 6.15 6.15 0 0 1 -.54 2.58 5.7 5.7 0 0 1 -1.6 2.06 7.79 7.79 0 0 1 -2.65 1.35 12.52 12.52 0 0 1 -3.65.48 13 13 0 0 1 -3.25-.41 8 8 0 0 1 -2.81-1.29 6.44 6.44 0 0 1 -1.92-2.25 6.67 6.67 0 0 1 -.68-3.23h4.32a3.66 3.66 0 0 0 .39 1.73z" fill="#424242"/><path d="m250.85 12.81v20.28h-4v-20.28z" fill="#424242"/><path d="m253.86 22.92a4.7 4.7 0 0 1 .71-2.36 5 5 0 0 1 1.59-1.5 6.87 6.87 0 0 1 2.17-.81 12.51 12.51 0 0 1 2.43-.24 17.23 17.23 0 0 1 2.25.15 7.22 7.22 0 0 1 2.07.61 4.21 4.21 0 0 1 1.53 1.23 3.5 3.5 0 0 1 .6 2.14v7.64a16.47 16.47 0 0 0 .11 1.9 3.5 3.5 0 0 0 .4 1.37h-4.09a4.23 4.23 0 0 1 -.18-.7 5.67 5.67 0 0 1 -.1-.72 5.33 5.33 0 0 1 -2.28 1.39 9.29 9.29 0 0 1 -2.67.4 7.13 7.13 0 0 1 -1.95-.26 4.4 4.4 0 0 1 -1.59-.79 3.62 3.62 0 0 1 -1.07-1.37 4.54 4.54 0 0 1 -.38-2 4.22 4.22 0 0 1 .44-2.06 3.73 3.73 0 0 1 1.15-1.21 5.24 5.24 0 0 1 1.59-.72c.6-.16 1.2-.29 1.81-.39s1.2-.17 1.79-.22a10.55 10.55 0 0 0 1.56-.26 2.71 2.71 0 0 0 1.08-.5 1.09 1.09 0 0 0 .37-.95 2 2 0 0 0 -.22-1 1.5 1.5 0 0 0 -.57-.6 2.1 2.1 0 0 0 -.82-.28 6.41 6.41 0 0 0 -1-.07 3.05 3.05 0 0 0 -1.87.51 2.28 2.28 0 0 0 -.8 1.7zm9.32 3a2 2 0 0 1 -.64.36 8.37 8.37 0 0 1 -.83.21 8.45 8.45 0 0 1 -.92.14l-1 .14a8.93 8.93 0 0 0 -.89.23 2.93 2.93 0 0 0 -.77.39 1.82 1.82 0 0 0 -.52.61 1.94 1.94 0 0 0 -.2.93 1.91 1.91 0 0 0 .2.91 1.44 1.44 0 0 0 .54.58 2 2 0 0 0 .79.3 4.91 4.91 0 0 0 .94.09 3.53 3.53 0 0 0 1.85-.4 2.73 2.73 0 0 0 1-.95 3.06 3.06 0 0 0 .39-1.12c0-.38.07-.69.07-.91z" fill="#424242"/><path d="m277.35 21.05a2.76 2.76 0 0 0 -1.62.44 3.51 3.51 0 0 0 -1.07 1.13 5.28 5.28 0 0 0 -.58 1.54 8.5 8.5 0 0 0 -.17 1.66 8.26 8.26 0 0 0 .17 1.62 5.4 5.4 0 0 0 .55 1.49 3.28 3.28 0 0 0 1 1.09 2.9 2.9 0 0 0 1.59.43 3 3 0 0 0 2.23-.81 3.84 3.84 0 0 0 1-2.18h3.89a6.6 6.6 0 0 1 -2.27 4.46 7.3 7.3 0 0 1 -4.8 1.54 8 8 0 0 1 -3-.56 6.81 6.81 0 0 1 -2.35-1.54 7.19 7.19 0 0 1 -1.5-2.38 8.16 8.16 0 0 1 -.54-3 9.58 9.58 0 0 1 .5-3.17 7 7 0 0 1 1.46-2.52 6.7 6.7 0 0 1 2.36-1.67 8.09 8.09 0 0 1 3.18-.59 9.11 9.11 0 0 1 2.51.34 7 7 0 0 1 2.16 1 5.75 5.75 0 0 1 1.55 1.74 5.66 5.66 0 0 1 .68 2.45h-3.95a2.7 2.7 0 0 0 -2.98-2.51z" fill="#424242"/><path d="m291 12.81v10.88l5.08-5.28h4.77l-5.54 5.39 6.17 9.29h-4.89l-4-6.56-1.59 1.47v5.06h-4v-20.25z" fill="#424242"/><path d="m324.26 18.22a4.22 4.22 0 0 0 -1-1.12 4.68 4.68 0 0 0 -2.93-1 5.17 5.17 0 0 0 -2.55.58 4.93 4.93 0 0 0 -1.71 1.56 7 7 0 0 0 -.95 2.23 11 11 0 0 0 -.3 2.58 10.29 10.29 0 0 0 .3 2.49 6.85 6.85 0 0 0 .95 2.17 4.9 4.9 0 0 0 1.71 1.55 5.17 5.17 0 0 0 2.55.58 4.11 4.11 0 0 0 3.2-1.25 5.75 5.75 0 0 0 1.47-3.31h4.31a10.24 10.24 0 0 1 -.88 3.43 8.22 8.22 0 0 1 -1.87 2.62 7.87 7.87 0 0 1 -2.78 1.67 10 10 0 0 1 -3.44.57 10.36 10.36 0 0 1 -4.18-.81 8.93 8.93 0 0 1 -3.16-2.26 9.81 9.81 0 0 1 -2-3.33 12.15 12.15 0 0 1 -.68-4.14 12.48 12.48 0 0 1 .68-4.21 10.13 10.13 0 0 1 2-3.4 9 9 0 0 1 3.14-2.27 10.91 10.91 0 0 1 7.35-.34 8.54 8.54 0 0 1 2.67 1.41 7.43 7.43 0 0 1 1.95 2.28 8.15 8.15 0 0 1 1 3.13h-4.31a3.69 3.69 0 0 0 -.54-1.41z" fill="#424242"/><path d="m335.91 12.81v7.64h.09a4.72 4.72 0 0 1 2-1.86 5.27 5.27 0 0 1 2.33-.58 6.75 6.75 0 0 1 2.66.44 3.92 3.92 0 0 1 1.63 1.22 4.65 4.65 0 0 1 .84 1.9 12 12 0 0 1 .24 2.49v9h-4v-8.3a5.13 5.13 0 0 0 -.57-2.71 2.21 2.21 0 0 0 -2-.89 2.76 2.76 0 0 0 -2.38 1 5.38 5.38 0 0 0 -.74 3.22v7.7h-4v-20.27z" fill="#424242"/><path d="m348.54 22.92a4.7 4.7 0 0 1 .72-2.36 4.76 4.76 0 0 1 1.59-1.5 6.78 6.78 0 0 1 2.17-.81 12.36 12.36 0 0 1 2.43-.24 17.08 17.08 0 0 1 2.24.15 7 7 0 0 1 2.07.61 4.16 4.16 0 0 1 1.54 1.23 3.57 3.57 0 0 1 .59 2.14v7.64a14.46 14.46 0 0 0 .12 1.9 3.35 3.35 0 0 0 .39 1.37h-4.09c-.07-.23-.13-.46-.18-.7a5.67 5.67 0 0 1 -.1-.72 5.3 5.3 0 0 1 -2.27 1.39 9.29 9.29 0 0 1 -2.67.4 7.25 7.25 0 0 1 -2-.26 4.4 4.4 0 0 1 -1.59-.79 3.72 3.72 0 0 1 -1.03-1.37 4.69 4.69 0 0 1 -.38-2 4.34 4.34 0 0 1 .44-2.06 3.66 3.66 0 0 1 1.14-1.29 5 5 0 0 1 1.59-.72c.59-.16 1.2-.29 1.8-.39s1.2-.17 1.79-.22a10.12 10.12 0 0 0 1.56-.26 2.58 2.58 0 0 0 1.08-.5 1.06 1.06 0 0 0 .37-.95 2.14 2.14 0 0 0 -.21-1 1.5 1.5 0 0 0 -.57-.6 2.15 2.15 0 0 0 -.82-.28 6.5 6.5 0 0 0 -1-.07 3.09 3.09 0 0 0 -1.88.51 2.27 2.27 0 0 0 -.79 1.7zm9.32 3a1.88 1.88 0 0 1 -.64.36 8.15 8.15 0 0 1 -.82.21 8.64 8.64 0 0 1 -.93.14l-1 .14a8.93 8.93 0 0 0 -.89.23 2.78 2.78 0 0 0 -.77.39 1.84 1.84 0 0 0 -.53.61 1.94 1.94 0 0 0 -.2.93 1.91 1.91 0 0 0 .2.91 1.51 1.51 0 0 0 .54.58 2 2 0 0 0 .8.3 4.73 4.73 0 0 0 .93.09 3.53 3.53 0 0 0 1.85-.4 2.68 2.68 0 0 0 1-.95 3.24 3.24 0 0 0 .38-1.12 7.26 7.26 0 0 0 .07-.91z" fill="#424242"/><path d="m368.85 18.41v2h.09a4.65 4.65 0 0 1 2-1.86 5.75 5.75 0 0 1 2.5-.58 6.75 6.75 0 0 1 2.66.44 3.92 3.92 0 0 1 1.63 1.22 4.65 4.65 0 0 1 .84 1.9 12 12 0 0 1 .24 2.49v9h-4v-8.3a5.13 5.13 0 0 0 -.57-2.71 2.21 2.21 0 0 0 -2-.89 2.77 2.77 0 0 0 -2.38 1 5.38 5.38 0 0 0 -.74 3.22v7.7h-4v-14.63z" fill="#424242"/><path d="m385.69 18.41v2h.09a4.62 4.62 0 0 1 2-1.86 5.67 5.67 0 0 1 2.49-.58 6.75 6.75 0 0 1 2.66.44 3.92 3.92 0 0 1 1.63 1.22 4.65 4.65 0 0 1 .84 1.9 12 12 0 0 1 .24 2.49v9h-4v-8.3a5.13 5.13 0 0 0 -.57-2.71 2.21 2.21 0 0 0 -2-.89 2.77 2.77 0 0 0 -2.38 1 5.46 5.46 0 0 0 -.74 3.22v7.7h-4v-14.63z" fill="#424242"/><path d="m403 29.57a3.61 3.61 0 0 0 2.61.88 3.66 3.66 0 0 0 2.1-.61 2.51 2.51 0 0 0 1.08-1.3h3.55a6.78 6.78 0 0 1 -2.61 3.78 7.7 7.7 0 0 1 -4.26 1.14 8.39 8.39 0 0 1 -3.13-.56 6.56 6.56 0 0 1 -2.34-1.57 7.13 7.13 0 0 1 -1.49-2.45 8.88 8.88 0 0 1 -.52-3.12 8.58 8.58 0 0 1 .54-3.07 7.13 7.13 0 0 1 3.9-4.09 7.77 7.77 0 0 1 3.06-.59 7 7 0 0 1 3.26.72 6.47 6.47 0 0 1 2.25 1.95 8 8 0 0 1 1.29 2.78 10.4 10.4 0 0 1 .29 3.27h-10.58a4.09 4.09 0 0 0 1 2.84zm4.55-7.73a2.82 2.82 0 0 0 -2.2-.79 3.59 3.59 0 0 0 -1.6.32 3 3 0 0 0 -1 .81 2.84 2.84 0 0 0 -.54 1 4.27 4.27 0 0 0 -.19 1h6.56a4.62 4.62 0 0 0 -1.01-2.34z" fill="#424242"/><path d="m419.15 12.81v20.28h-4v-20.28z" fill="#424242"/><g fill="#797979"><path d="m114.54 62.64v-1.64h11.46v1.6h-4.8v12.72h-1.9v-12.68z"/><path d="m134.2 75.27a2.32 2.32 0 0 1 -1.22.27 1.49 1.49 0 0 1 -1-.37 1.61 1.61 0 0 1 -.39-1.21 4.12 4.12 0 0 1 -1.63 1.21 5.52 5.52 0 0 1 -2 .37 5.7 5.7 0 0 1 -1.33-.16 3.31 3.31 0 0 1 -1.09-.5 2.45 2.45 0 0 1 -.73-.89 3.51 3.51 0 0 1 0-2.77 2.5 2.5 0 0 1 .79-.91 3.51 3.51 0 0 1 1.12-.53q.63-.18 1.29-.3a11.74 11.74 0 0 1 1.33-.21 9 9 0 0 0 1.11-.2 2 2 0 0 0 .76-.38.92.92 0 0 0 .28-.73 1.66 1.66 0 0 0 -.21-.9 1.42 1.42 0 0 0 -.54-.52 2 2 0 0 0 -.74-.24 5.52 5.52 0 0 0 -.81-.06 3.53 3.53 0 0 0 -1.8.41 1.74 1.74 0 0 0 -.78 1.55h-1.7a3.72 3.72 0 0 1 .4-1.62 3 3 0 0 1 1-1.07 3.93 3.93 0 0 1 1.37-.59 7.19 7.19 0 0 1 1.65-.18 10.7 10.7 0 0 1 1.39.09 3.83 3.83 0 0 1 1.25.41 2.5 2.5 0 0 1 .9.87 2.77 2.77 0 0 1 .34 1.46v5.31a3.8 3.8 0 0 0 .07.88c0 .18.2.28.47.28a1.88 1.88 0 0 0 .52-.1zm-2.76-5.27a2.17 2.17 0 0 1 -.84.35c-.35.07-.71.13-1.09.18s-.76.09-1.15.16a4 4 0 0 0 -1 .29 1.79 1.79 0 0 0 -.75.57 1.6 1.6 0 0 0 -.29 1 1.43 1.43 0 0 0 .17.71 1.41 1.41 0 0 0 .44.47 2 2 0 0 0 .63.26 3.69 3.69 0 0 0 .76.08 4.1 4.1 0 0 0 1.44-.23 3.18 3.18 0 0 0 1-.58 2.44 2.44 0 0 0 .56-.76 2 2 0 0 0 .18-.77z"/><path d="m137.58 61v14.32h-1.7v-14.32z"/><path d="m142 61v8.5l4.74-4.5h2.26l-4.1 3.76 4.4 6.58h-2.16l-3.54-5.4-1.6 1.46v3.92h-1.7v-14.32z"/><path d="m160.58 65v1.5h-2.06v6.4a2 2 0 0 0 0 .48.51.51 0 0 0 .19.28.89.89 0 0 0 .39.13 5.67 5.67 0 0 0 .65 0h.78v1.5h-1.3a6.08 6.08 0 0 1 -1.13-.09 1.66 1.66 0 0 1 -.76-.33 1.43 1.43 0 0 1 -.43-.68 4.08 4.08 0 0 1 -.14-1.16v-6.55h-1.76v-1.48h1.76v-3.1h1.7v3.1z"/><path d="m162.22 68a4.67 4.67 0 0 1 1-1.72 4.48 4.48 0 0 1 1.58-1.15 5.79 5.79 0 0 1 4.33 0 4.53 4.53 0 0 1 1.57 1.15 4.67 4.67 0 0 1 1 1.72 7.22 7.22 0 0 1 0 4.25 4.79 4.79 0 0 1 -1 1.71 4.48 4.48 0 0 1 -1.57 1.13 5.79 5.79 0 0 1 -4.33 0 4.43 4.43 0 0 1 -1.62-1.09 4.79 4.79 0 0 1 -1-1.71 7.22 7.22 0 0 1 0-4.25zm1.73 3.8a3.7 3.7 0 0 0 .69 1.22 3.18 3.18 0 0 0 1 .75 3.13 3.13 0 0 0 2.5 0 3.18 3.18 0 0 0 1-.75 3.7 3.7 0 0 0 .69-1.22 5.1 5.1 0 0 0 .25-1.67 5 5 0 0 0 -.25-1.67 3.65 3.65 0 0 0 -.69-1.23 2.82 2.82 0 0 0 -1-.76 3.13 3.13 0 0 0 -2.5 0 2.82 2.82 0 0 0 -1 .76 3.65 3.65 0 0 0 -.69 1.23 5 5 0 0 0 -.25 1.67 5.1 5.1 0 0 0 .3 1.7z"/><path d="m179.26 68a4.67 4.67 0 0 1 1-1.72 4.48 4.48 0 0 1 1.58-1.15 5.79 5.79 0 0 1 4.33 0 4.53 4.53 0 0 1 1.57 1.15 4.67 4.67 0 0 1 1 1.72 7.22 7.22 0 0 1 0 4.25 4.79 4.79 0 0 1 -1 1.71 4.48 4.48 0 0 1 -1.57 1.13 5.79 5.79 0 0 1 -4.33 0 4.43 4.43 0 0 1 -1.62-1.09 4.79 4.79 0 0 1 -1-1.71 7.22 7.22 0 0 1 0-4.25zm1.73 3.8a3.7 3.7 0 0 0 .69 1.22 3.18 3.18 0 0 0 1 .75 3.13 3.13 0 0 0 2.5 0 3.18 3.18 0 0 0 1-.75 3.7 3.7 0 0 0 .69-1.22 5.1 5.1 0 0 0 .25-1.67 5 5 0 0 0 -.25-1.67 3.65 3.65 0 0 0 -.69-1.23 2.82 2.82 0 0 0 -1-.76 3.13 3.13 0 0 0 -2.5 0 2.82 2.82 0 0 0 -1 .76 3.65 3.65 0 0 0 -.69 1.23 5 5 0 0 0 -.25 1.67 5.1 5.1 0 0 0 .26 1.7z"/><path d="m197.94 75.32v-1.64a3.39 3.39 0 0 1 -1.38 1.4 4 4 0 0 1 -2 .46 4.62 4.62 0 0 1 -1.7-.27 2.7 2.7 0 0 1 -1.69-2 6.64 6.64 0 0 1 -.17-1.53v-6.74h1.7v7a1.94 1.94 0 0 0 2.1 2.08 3.46 3.46 0 0 0 1.35-.24 2.54 2.54 0 0 0 1-.68 3.14 3.14 0 0 0 .57-1 4.15 4.15 0 0 0 .19-1.29v-5.87h1.7v10.32z"/><path d="m203.64 65v2.18a4.58 4.58 0 0 1 1.52-1.86 3.8 3.8 0 0 1 2.28-.56v1.8a4.74 4.74 0 0 0 -1.74.28 2.67 2.67 0 0 0 -1.16.82 3.35 3.35 0 0 0 -.64 1.31 7.19 7.19 0 0 0 -.2 1.77v4.6h-1.7v-10.34z"/><path d="m221.86 75.32v-1.4a2.54 2.54 0 0 1 -1.32 1.24 5.1 5.1 0 0 1 -2 .38 4.7 4.7 0 0 1 -2.09-.44 4.32 4.32 0 0 1 -1.45-1.18 5.12 5.12 0 0 1 -.89-1.72 7.12 7.12 0 0 1 -.3-2.08 7 7 0 0 1 .29-2.08 4.78 4.78 0 0 1 .88-1.71 4.05 4.05 0 0 1 1.48-1.16 4.64 4.64 0 0 1 2.07-.43 4.44 4.44 0 0 1 .86.08 4.72 4.72 0 0 1 .92.26 4.45 4.45 0 0 1 .87.5 2.89 2.89 0 0 1 .69.78v-5.36h1.7v14.32zm-6.11-3.67a3.88 3.88 0 0 0 .58 1.23 2.88 2.88 0 0 0 1 .86 3.08 3.08 0 0 0 1.43.32 2.81 2.81 0 0 0 2.44-1.23 4 4 0 0 0 .55-1.25 6.2 6.2 0 0 0 .17-1.42 5.92 5.92 0 0 0 -.18-1.47 3.58 3.58 0 0 0 -.57-1.25 2.94 2.94 0 0 0 -1-.87 3.14 3.14 0 0 0 -1.5-.33 2.87 2.87 0 0 0 -1.46.34 2.59 2.59 0 0 0 -1 .9 4 4 0 0 0 -.52 1.28 6.58 6.58 0 0 0 -.16 1.48 5.16 5.16 0 0 0 .22 1.41z"/><path d="m233.5 74.66a4.76 4.76 0 0 1 -2.92.88 5.43 5.43 0 0 1 -2.15-.4 4.22 4.22 0 0 1 -1.53-1.14 4.62 4.62 0 0 1 -.9-1.7 8 8 0 0 1 -.35-2.18 6.2 6.2 0 0 1 .35-2.12 5 5 0 0 1 1-1.7 4.49 4.49 0 0 1 1.54-1.12 4.63 4.63 0 0 1 1.95-.4 4.25 4.25 0 0 1 2.29.57 4.5 4.5 0 0 1 1.46 1.45 5.56 5.56 0 0 1 .76 1.92 8 8 0 0 1 .17 2h-7.74a3.94 3.94 0 0 0 .16 1.29 3 3 0 0 0 .58 1.08 2.91 2.91 0 0 0 1 .75 3.62 3.62 0 0 0 1.46.28 3 3 0 0 0 1.77-.5 2.45 2.45 0 0 0 .91-1.52h1.69a4.17 4.17 0 0 1 -1.5 2.56zm-.41-6.66a3 3 0 0 0 -.62-.94 3.08 3.08 0 0 0 -.92-.61 2.81 2.81 0 0 0 -1.17-.23 2.84 2.84 0 0 0 -1.19.23 2.56 2.56 0 0 0 -.91.63 3 3 0 0 0 -.6.93 3.52 3.52 0 0 0 -.26 1.13h5.94a3.65 3.65 0 0 0 -.27-1.14z"/><path d="m239.76 75.32-3.84-10.32h1.9l2.9 8.62 2.86-8.62h1.78l-3.78 10.34z"/><path d="m254.24 74.66a4.76 4.76 0 0 1 -2.92.88 5.43 5.43 0 0 1 -2.15-.4 4.22 4.22 0 0 1 -1.53-1.14 4.62 4.62 0 0 1 -.93-1.72 8 8 0 0 1 -.35-2.18 6.2 6.2 0 0 1 .36-2.16 5 5 0 0 1 1-1.7 4.4 4.4 0 0 1 1.54-1.12 4.63 4.63 0 0 1 1.95-.4 4.25 4.25 0 0 1 2.29.57 4.5 4.5 0 0 1 1.5 1.47 5.76 5.76 0 0 1 .76 1.92 8.56 8.56 0 0 1 .17 2h-7.74a3.94 3.94 0 0 0 .16 1.29 3 3 0 0 0 .55 1.03 2.82 2.82 0 0 0 1 .75 3.62 3.62 0 0 0 1.46.28 3 3 0 0 0 1.77-.5 2.45 2.45 0 0 0 .91-1.52h1.68a4.17 4.17 0 0 1 -1.48 2.65zm-.41-6.66a3.2 3.2 0 0 0 -.62-.94 3.08 3.08 0 0 0 -.92-.61 3.14 3.14 0 0 0 -2.36 0 2.56 2.56 0 0 0 -.91.63 2.66 2.66 0 0 0 -.6.93 3.28 3.28 0 0 0 -.26 1.13h5.94a3.65 3.65 0 0 0 -.27-1.14z"/><path d="m259.46 61v14.32h-1.7v-14.32z"/><path d="m261.86 68a4.67 4.67 0 0 1 1-1.72 4.39 4.39 0 0 1 1.58-1.15 5.79 5.79 0 0 1 4.33 0 4.53 4.53 0 0 1 1.57 1.15 5 5 0 0 1 1 1.72 7.22 7.22 0 0 1 0 4.25 5.12 5.12 0 0 1 -1 1.71 4.48 4.48 0 0 1 -1.57 1.13 5.79 5.79 0 0 1 -4.33 0 4.35 4.35 0 0 1 -1.62-1.09 4.79 4.79 0 0 1 -1-1.71 7.22 7.22 0 0 1 0-4.25zm1.73 3.8a3.38 3.38 0 0 0 .69 1.22 3.07 3.07 0 0 0 1 .75 3.11 3.11 0 0 0 1.25.26 3.15 3.15 0 0 0 1.25-.26 3.29 3.29 0 0 0 1-.75 3.7 3.7 0 0 0 .69-1.22 5.38 5.38 0 0 0 .25-1.67 5.29 5.29 0 0 0 -.25-1.67 3.65 3.65 0 0 0 -.69-1.23 2.91 2.91 0 0 0 -1-.76 3 3 0 0 0 -1.25-.26 3 3 0 0 0 -1.25.26 2.74 2.74 0 0 0 -1 .76 3.34 3.34 0 0 0 -.69 1.23 5 5 0 0 0 -.25 1.67 5.1 5.1 0 0 0 .25 1.7z"/><path d="m275.34 65v1.4a2.58 2.58 0 0 1 1.32-1.26 5.1 5.1 0 0 1 2-.38 4.6 4.6 0 0 1 2.09.44 4.31 4.31 0 0 1 1.48 1.19 5.25 5.25 0 0 1 .89 1.73 7 7 0 0 1 .3 2.08 7.47 7.47 0 0 1 -.29 2.08 5.13 5.13 0 0 1 -.88 1.71 4.44 4.44 0 0 1 -1.48 1.15 4.84 4.84 0 0 1 -2.07.42 5.38 5.38 0 0 1 -.85-.08 4.93 4.93 0 0 1 -.93-.26 3.74 3.74 0 0 1 -.87-.49 2.67 2.67 0 0 1 -.69-.77v5.32h-1.7v-14.28zm6.11 3.67a3.88 3.88 0 0 0 -.58-1.23 2.87 2.87 0 0 0 -1-.86 3 3 0 0 0 -1.43-.32 2.87 2.87 0 0 0 -1.46.34 2.8 2.8 0 0 0 -1 .89 3.46 3.46 0 0 0 -.55 1.25 5.63 5.63 0 0 0 -.17 1.42 6 6 0 0 0 .18 1.47 3.67 3.67 0 0 0 .57 1.25 2.85 2.85 0 0 0 1 .87 3.14 3.14 0 0 0 1.5.33 3 3 0 0 0 1.47-.34 2.83 2.83 0 0 0 .95-.9 4.05 4.05 0 0 0 .52-1.28 7.29 7.29 0 0 0 .16-1.48 5.57 5.57 0 0 0 -.16-1.43z"/><path d="m292.76 74.66a4.76 4.76 0 0 1 -2.92.88 5.39 5.39 0 0 1 -2.15-.4 4.22 4.22 0 0 1 -1.53-1.14 4.62 4.62 0 0 1 -.93-1.72 8 8 0 0 1 -.35-2.18 6.2 6.2 0 0 1 .36-2.16 5 5 0 0 1 1-1.7 4.4 4.4 0 0 1 1.54-1.12 4.63 4.63 0 0 1 1.95-.4 4.25 4.25 0 0 1 2.29.57 4.6 4.6 0 0 1 1.46 1.45 5.76 5.76 0 0 1 .76 1.92 8.56 8.56 0 0 1 .17 2h-7.74a3.94 3.94 0 0 0 .16 1.29 3 3 0 0 0 .58 1.08 2.82 2.82 0 0 0 1 .75 3.62 3.62 0 0 0 1.46.28 3 3 0 0 0 1.77-.5 2.45 2.45 0 0 0 .91-1.52h1.68a4.17 4.17 0 0 1 -1.47 2.62zm-.41-6.66a3.2 3.2 0 0 0 -.62-.94 3.08 3.08 0 0 0 -.92-.61 3.14 3.14 0 0 0 -2.36 0 2.56 2.56 0 0 0 -.91.63 2.66 2.66 0 0 0 -.6.93 3.28 3.28 0 0 0 -.26 1.13h5.94a3.65 3.65 0 0 0 -.27-1.14z"/><path d="m297.72 65v2.18a4.58 4.58 0 0 1 1.52-1.86 3.8 3.8 0 0 1 2.28-.56v1.8a4.74 4.74 0 0 0 -1.74.28 2.67 2.67 0 0 0 -1.16.82 3.22 3.22 0 0 0 -.62 1.34 6.74 6.74 0 0 0 -.2 1.77v4.6h-1.7v-10.37z"/><path d="m304.14 73a1.75 1.75 0 0 0 .63.61 2.74 2.74 0 0 0 .88.34 5.49 5.49 0 0 0 1 .1 6.38 6.38 0 0 0 .84-.06 3.45 3.45 0 0 0 .81-.22 1.67 1.67 0 0 0 .61-.47 1.28 1.28 0 0 0 .24-.79 1.13 1.13 0 0 0 -.5-1 4.25 4.25 0 0 0 -1.25-.55c-.5-.14-1.05-.27-1.63-.39a8.62 8.62 0 0 1 -1.63-.47 3.43 3.43 0 0 1 -1.25-.87 2.25 2.25 0 0 1 -.5-1.56 2.47 2.47 0 0 1 .35-1.35 2.76 2.76 0 0 1 .9-.9 3.83 3.83 0 0 1 1.24-.52 5.36 5.36 0 0 1 1.37-.17 8.26 8.26 0 0 1 1.62.15 3.71 3.71 0 0 1 1.31.52 2.67 2.67 0 0 1 .91 1 3.89 3.89 0 0 1 .4 1.57h-1.7a1.81 1.81 0 0 0 -.26-.83 1.77 1.77 0 0 0 -.56-.53 2.44 2.44 0 0 0 -.75-.29 3.91 3.91 0 0 0 -.83-.09 5 5 0 0 0 -.77.06 2.26 2.26 0 0 0 -.71.21 1.32 1.32 0 0 0 -.52.4 1.07 1.07 0 0 0 .11 1.38 2.52 2.52 0 0 0 .79.48 7 7 0 0 0 1.08.31l1.2.28a11 11 0 0 1 1.25.34 4.18 4.18 0 0 1 1.08.53 2.63 2.63 0 0 1 .76.83 2.45 2.45 0 0 1 .34 1.25 2.91 2.91 0 0 1 -.39 1.56 3.14 3.14 0 0 1 -1 1 4.39 4.39 0 0 1 -1.42.53 8.43 8.43 0 0 1 -1.57.15 7.23 7.23 0 0 1 -1.64-.18 4.09 4.09 0 0 1 -1.38-.59 3.12 3.12 0 0 1 -1-1.08 3.66 3.66 0 0 1 -.4-1.63h1.7a1.89 1.89 0 0 0 .24.94z"/><path d="m327.56 75.27a2.35 2.35 0 0 1 -1.22.27 1.49 1.49 0 0 1 -1-.37 1.61 1.61 0 0 1 -.44-1.17 4.12 4.12 0 0 1 -1.63 1.21 5.52 5.52 0 0 1 -2 .37 5.7 5.7 0 0 1 -1.33-.16 3.22 3.22 0 0 1 -1.09-.5 2.45 2.45 0 0 1 -.73-.89 3.51 3.51 0 0 1 0-2.77 2.5 2.5 0 0 1 .79-.91 3.41 3.41 0 0 1 1.12-.53q.63-.18 1.29-.3a11.4 11.4 0 0 1 1.33-.21 9 9 0 0 0 1.11-.2 2 2 0 0 0 .76-.38 1 1 0 0 0 .28-.73 1.66 1.66 0 0 0 -.21-.9 1.42 1.42 0 0 0 -.54-.52 2 2 0 0 0 -.74-.24 5.73 5.73 0 0 0 -.81-.06 3.53 3.53 0 0 0 -1.8.41 1.74 1.74 0 0 0 -.78 1.55h-1.7a3.58 3.58 0 0 1 .4-1.62 3 3 0 0 1 1-1.07 3.85 3.85 0 0 1 1.37-.59 7.19 7.19 0 0 1 1.65-.18 10.81 10.81 0 0 1 1.39.09 3.91 3.91 0 0 1 1.25.41 2.5 2.5 0 0 1 .9.87 2.87 2.87 0 0 1 .34 1.46v5.31a3.8 3.8 0 0 0 .07.88c0 .18.2.28.47.28a2 2 0 0 0 .52-.1zm-2.76-5.27a2.31 2.31 0 0 1 -.84.35c-.35.07-.71.13-1.09.18s-.77.09-1.15.16a3.85 3.85 0 0 0 -1 .29 1.79 1.79 0 0 0 -.75.57 1.54 1.54 0 0 0 -.29 1 1.33 1.33 0 0 0 .17.71 1.41 1.41 0 0 0 .44.47 2 2 0 0 0 .63.26 3.69 3.69 0 0 0 .76.08 4.1 4.1 0 0 0 1.44-.23 3.3 3.3 0 0 0 1-.58 2.44 2.44 0 0 0 .56-.76 2 2 0 0 0 .18-.77z"/><path d="m330.74 65v1.64a3.55 3.55 0 0 1 3.36-1.88 4.45 4.45 0 0 1 1.7.28 2.69 2.69 0 0 1 1.1.78 3 3 0 0 1 .59 1.19 6.57 6.57 0 0 1 .17 1.53v6.8h-1.66v-7a1.94 1.94 0 0 0 -2.1-2.08 3.46 3.46 0 0 0 -1.35.24 2.44 2.44 0 0 0 -.95.68 2.66 2.66 0 0 0 -.57 1 4.06 4.06 0 0 0 -.19 1.29v5.84h-1.7v-10.31z"/><path d="m347.8 75.32v-1.4a2.54 2.54 0 0 1 -1.32 1.24 5.1 5.1 0 0 1 -2 .38 4.7 4.7 0 0 1 -2.09-.44 4.32 4.32 0 0 1 -1.48-1.18 5.12 5.12 0 0 1 -.91-1.72 7.12 7.12 0 0 1 -.3-2.08 7 7 0 0 1 .3-2.12 4.63 4.63 0 0 1 .88-1.71 4.05 4.05 0 0 1 1.48-1.16 4.64 4.64 0 0 1 2.07-.43 4.51 4.51 0 0 1 .86.08 4 4 0 0 1 1.79.76 2.89 2.89 0 0 1 .69.78v-5.32h1.7v14.32zm-6.11-3.67a3.67 3.67 0 0 0 .58 1.23 2.88 2.88 0 0 0 1 .86 3 3 0 0 0 1.43.32 3 3 0 0 0 1.46-.34 3.1 3.1 0 0 0 1-.89 4 4 0 0 0 .55-1.25 6.2 6.2 0 0 0 .17-1.42 5.92 5.92 0 0 0 -.18-1.47 3.58 3.58 0 0 0 -.57-1.25 2.94 2.94 0 0 0 -1-.87 3.19 3.19 0 0 0 -1.5-.33 2.87 2.87 0 0 0 -1.46.34 2.59 2.59 0 0 0 -1 .9 3.75 3.75 0 0 0 -.52 1.28 6.58 6.58 0 0 0 -.16 1.48 5.16 5.16 0 0 0 .2 1.41z"/><path d="m359.28 65v1.5a4 4 0 0 1 5.08-1.36 2.24 2.24 0 0 1 1.1 1.36 3.49 3.49 0 0 1 1.37-1.3 3.81 3.81 0 0 1 1.87-.46 5.14 5.14 0 0 1 1.41.17 2.87 2.87 0 0 1 1.08.53 2.44 2.44 0 0 1 .7.93 3.49 3.49 0 0 1 .25 1.37v7.58h-1.7v-6.78a5.11 5.11 0 0 0 -.08-.9 2 2 0 0 0 -.3-.73 1.49 1.49 0 0 0 -.61-.49 2.44 2.44 0 0 0 -1-.18 2.68 2.68 0 0 0 -2 .72 2.59 2.59 0 0 0 -.72 1.92v6.44h-1.7v-6.78a4.35 4.35 0 0 0 -.09-.92 1.94 1.94 0 0 0 -.31-.73 1.46 1.46 0 0 0 -.59-.48 2.21 2.21 0 0 0 -.95-.17 2.41 2.41 0 0 0 -1.27.3 2.8 2.8 0 0 0 -.86.72 3 3 0 0 0 -.48.86 2.58 2.58 0 0 0 -.15.76v6.44h-1.7v-10.32z"/><path d="m382.06 74.66a4.76 4.76 0 0 1 -2.92.88 5.39 5.39 0 0 1 -2.15-.4 4.22 4.22 0 0 1 -1.53-1.14 4.62 4.62 0 0 1 -.93-1.72 8 8 0 0 1 -.35-2.18 6.2 6.2 0 0 1 .36-2.16 5 5 0 0 1 1-1.7 4.4 4.4 0 0 1 1.54-1.12 4.63 4.63 0 0 1 2-.4 4.25 4.25 0 0 1 2.29.57 4.6 4.6 0 0 1 1.46 1.45 5.76 5.76 0 0 1 .76 1.92 8.56 8.56 0 0 1 .17 2h-7.76a3.94 3.94 0 0 0 .16 1.29 3 3 0 0 0 .58 1.08 2.82 2.82 0 0 0 1 .75 3.62 3.62 0 0 0 1.46.28 3 3 0 0 0 1.77-.5 2.45 2.45 0 0 0 .91-1.52h1.68a4.17 4.17 0 0 1 -1.5 2.62zm-.41-6.66a3.2 3.2 0 0 0 -.62-.94 3.08 3.08 0 0 0 -.92-.61 3.14 3.14 0 0 0 -2.36 0 2.56 2.56 0 0 0 -.91.63 2.66 2.66 0 0 0 -.6.93 3.28 3.28 0 0 0 -.26 1.13h5.94a3.65 3.65 0 0 0 -.27-1.14z"/><path d="m392.8 74.66a4.76 4.76 0 0 1 -2.92.88 5.39 5.39 0 0 1 -2.15-.4 4.22 4.22 0 0 1 -1.53-1.14 4.62 4.62 0 0 1 -.93-1.72 8 8 0 0 1 -.35-2.18 6.2 6.2 0 0 1 .36-2.16 5 5 0 0 1 1-1.7 4.4 4.4 0 0 1 1.54-1.12 4.63 4.63 0 0 1 1.95-.4 4.25 4.25 0 0 1 2.29.57 4.6 4.6 0 0 1 1.46 1.45 5.76 5.76 0 0 1 .76 1.92 8.56 8.56 0 0 1 .17 2h-7.74a3.94 3.94 0 0 0 .16 1.29 3 3 0 0 0 .58 1.08 2.82 2.82 0 0 0 1 .75 3.62 3.62 0 0 0 1.46.28 3 3 0 0 0 1.77-.5 2.45 2.45 0 0 0 .91-1.52h1.68a4.17 4.17 0 0 1 -1.47 2.62zm-.41-6.66a3.2 3.2 0 0 0 -.62-.94 3.08 3.08 0 0 0 -.92-.61 3.14 3.14 0 0 0 -2.36 0 2.56 2.56 0 0 0 -.91.63 2.66 2.66 0 0 0 -.6.93 3.28 3.28 0 0 0 -.26 1.13h5.94a3.65 3.65 0 0 0 -.27-1.14z"/><path d="m400.64 65v1.5h-2.06v6.4a2.09 2.09 0 0 0 0 .48.52.52 0 0 0 .2.28.89.89 0 0 0 .39.13 5.55 5.55 0 0 0 .65 0h.78v1.5h-1.3a6.08 6.08 0 0 1 -1.13-.09 1.61 1.61 0 0 1 -.76-.33 1.36 1.36 0 0 1 -.43-.68 3.75 3.75 0 0 1 -.14-1.16v-6.55h-1.76v-1.48h1.76v-3.1h1.7v3.1z"/><path d="m115.54 91.58a4.64 4.64 0 0 1 2.54-2.87 5.79 5.79 0 0 1 4.33 0 4.69 4.69 0 0 1 1.59 1.16 4.63 4.63 0 0 1 1 1.71 7.08 7.08 0 0 1 .32 2.13 6.88 6.88 0 0 1 -.32 2.12 4.63 4.63 0 0 1 -1 1.71 4.39 4.39 0 0 1 -1.57 1.14 5.92 5.92 0 0 1 -4.33 0 4.34 4.34 0 0 1 -1.58-1.14 4.63 4.63 0 0 1 -1-1.71 6.88 6.88 0 0 1 -.32-2.12 7.08 7.08 0 0 1 .34-2.13zm1.73 3.8a3.65 3.65 0 0 0 .69 1.23 3.18 3.18 0 0 0 1 .75 3.13 3.13 0 0 0 2.5 0 3.18 3.18 0 0 0 1-.75 3.65 3.65 0 0 0 .69-1.23 5 5 0 0 0 .25-1.67 5.1 5.1 0 0 0 -.25-1.67 3.7 3.7 0 0 0 -.69-1.22 3 3 0 0 0 -1-.77 3.13 3.13 0 0 0 -2.5 0 3 3 0 0 0 -1 .77 3.7 3.7 0 0 0 -.69 1.22 5.1 5.1 0 0 0 -.25 1.67 5 5 0 0 0 .25 1.67z"/><path d="m131.68 88.54v1.46h-2.06v6.42a1.86 1.86 0 0 0 0 .47.47.47 0 0 0 .19.28.69.69 0 0 0 .39.13 3.87 3.87 0 0 0 .65 0h.78v1.5h-1.3a7.08 7.08 0 0 1 -1.13-.09 1.77 1.77 0 0 1 -.76-.33 1.48 1.48 0 0 1 -.43-.68 4.13 4.13 0 0 1 -.14-1.16v-6.54h-1.76v-1.5h1.76v-3.07h1.7v3.11z"/><path d="m135.26 84.59v5.46a2.18 2.18 0 0 1 .56-.8 2.94 2.94 0 0 1 .81-.54 4.34 4.34 0 0 1 .94-.32 5.29 5.29 0 0 1 .95-.1 4.4 4.4 0 0 1 1.7.29 2.69 2.69 0 0 1 1.1.78 2.8 2.8 0 0 1 .59 1.18 6.6 6.6 0 0 1 .17 1.54v6.8h-1.7v-7a1.95 1.95 0 0 0 -2.1-2.09 3.46 3.46 0 0 0 -1.28.21 2.52 2.52 0 0 0 -.95.67 3.09 3.09 0 0 0 -.57 1 4.06 4.06 0 0 0 -.19 1.29v5.84h-1.7v-14.21z"/><path d="m152 98.21a4.67 4.67 0 0 1 -2.92.88 5.43 5.43 0 0 1 -2.15-.39 4.34 4.34 0 0 1 -1.53-1.12 5 5 0 0 1 -.93-1.72 8.37 8.37 0 0 1 -.35-2.19 6.28 6.28 0 0 1 .36-2.16 5.1 5.1 0 0 1 1-1.69 4.37 4.37 0 0 1 1.52-1.12 4.63 4.63 0 0 1 1.95-.41 4.25 4.25 0 0 1 2.29.58 4.5 4.5 0 0 1 1.46 1.45 5.56 5.56 0 0 1 .76 1.92 8 8 0 0 1 .17 2h-7.74a4.15 4.15 0 0 0 .16 1.29 2.82 2.82 0 0 0 .58 1.08 2.77 2.77 0 0 0 1 .75 3.46 3.46 0 0 0 1.46.29 3 3 0 0 0 1.77-.5 2.45 2.45 0 0 0 .91-1.53h1.68a4.14 4.14 0 0 1 -1.45 2.59zm-.41-6.63a2.79 2.79 0 0 0 -1.54-1.58 2.78 2.78 0 0 0 -1.17-.24 2.84 2.84 0 0 0 -1.19.24 2.65 2.65 0 0 0 -.91.63 3 3 0 0 0 -.6.92 3.65 3.65 0 0 0 -.26 1.13h5.94a3.59 3.59 0 0 0 -.27-1.1z"/><path d="m157 88.54v2.17a4.54 4.54 0 0 1 1.52-1.85 3.87 3.87 0 0 1 2.28-.57v1.8a4.73 4.73 0 0 0 -1.74.29 2.59 2.59 0 0 0 -1.16.82 3.3 3.3 0 0 0 -.64 1.3 7.33 7.33 0 0 0 -.2 1.78v4.6h-1.7v-10.34z"/><path d="m169.24 88.54v1.51a3.77 3.77 0 0 1 3.34-1.76 3.72 3.72 0 0 1 1.74.41 2.22 2.22 0 0 1 1.1 1.35 3.71 3.71 0 0 1 1.37-1.3 4 4 0 0 1 1.87-.46 5.56 5.56 0 0 1 1.41.17 2.89 2.89 0 0 1 1.08.54 2.4 2.4 0 0 1 .7.92 3.35 3.35 0 0 1 .25 1.37v7.59h-1.7v-6.79a5 5 0 0 0 -.08-.89 1.81 1.81 0 0 0 -.3-.74 1.58 1.58 0 0 0 -.61-.49 2.61 2.61 0 0 0 -1-.18 2.72 2.72 0 0 0 -2 .72 2.61 2.61 0 0 0 -.72 1.92v6.45h-1.69v-6.79a4.49 4.49 0 0 0 -.09-.92 1.81 1.81 0 0 0 -.31-.72 1.5 1.5 0 0 0 -.59-.49 2.34 2.34 0 0 0 -1-.17 2.54 2.54 0 0 0 -1.27.3 3 3 0 0 0 -.86.73 2.73 2.73 0 0 0 -.48.86 2.58 2.58 0 0 0 -.15.75v6.45h-1.7v-10.34z"/><path d="m192 98.21a4.67 4.67 0 0 1 -2.92.88 5.43 5.43 0 0 1 -2.08-.39 4.34 4.34 0 0 1 -1.53-1.12 5 5 0 0 1 -.93-1.72 8.37 8.37 0 0 1 -.35-2.19 6.28 6.28 0 0 1 .36-2.16 5.1 5.1 0 0 1 1-1.69 4.37 4.37 0 0 1 1.54-1.12 4.63 4.63 0 0 1 1.95-.41 4.25 4.25 0 0 1 2.29.58 4.5 4.5 0 0 1 1.46 1.45 5.56 5.56 0 0 1 .76 1.92 8 8 0 0 1 .17 2h-7.74a4.15 4.15 0 0 0 .16 1.29 2.82 2.82 0 0 0 .58 1.08 2.77 2.77 0 0 0 1 .75 3.46 3.46 0 0 0 1.46.29 3 3 0 0 0 1.77-.5 2.45 2.45 0 0 0 .91-1.53h1.68a4.14 4.14 0 0 1 -1.54 2.59zm-.41-6.63a2.79 2.79 0 0 0 -1.52-1.58 2.78 2.78 0 0 0 -1.17-.24 2.84 2.84 0 0 0 -1.19.24 2.65 2.65 0 0 0 -.91.63 3 3 0 0 0 -.6.92 3.65 3.65 0 0 0 -.26 1.13h5.94a3.59 3.59 0 0 0 -.27-1.1z"/><path d="m197 88.54v1.51a3.77 3.77 0 0 1 3.34-1.76 3.72 3.72 0 0 1 1.74.41 2.22 2.22 0 0 1 1.1 1.35 3.71 3.71 0 0 1 1.37-1.3 4 4 0 0 1 1.87-.46 5.56 5.56 0 0 1 1.41.17 2.89 2.89 0 0 1 1.17.54 2.4 2.4 0 0 1 .7.92 3.35 3.35 0 0 1 .25 1.37v7.59h-1.7v-6.79a5 5 0 0 0 -.08-.89 1.81 1.81 0 0 0 -.3-.74 1.58 1.58 0 0 0 -.61-.49 2.61 2.61 0 0 0 -1-.18 2.72 2.72 0 0 0 -2 .72 2.61 2.61 0 0 0 -.72 1.92v6.45h-1.7v-6.79a4.49 4.49 0 0 0 -.09-.92 1.81 1.81 0 0 0 -.31-.72 1.5 1.5 0 0 0 -.59-.49 2.34 2.34 0 0 0 -.95-.17 2.54 2.54 0 0 0 -1.27.3 3 3 0 0 0 -.86.73 2.73 2.73 0 0 0 -.48.86 2.58 2.58 0 0 0 -.15.75v6.45h-1.7v-10.34z"/><path d="m214.26 84.59v5.34a2.6 2.6 0 0 1 1.32-1.25 4.93 4.93 0 0 1 2-.39 4.57 4.57 0 0 1 2.09.45 4.19 4.19 0 0 1 1.48 1.18 5.3 5.3 0 0 1 .89 1.74 7 7 0 0 1 .3 2.08 7.47 7.47 0 0 1 -.29 2.08 5 5 0 0 1 -.88 1.71 4.29 4.29 0 0 1 -1.48 1.14 4.64 4.64 0 0 1 -2.07.42 4.41 4.41 0 0 1 -.85-.08 3.91 3.91 0 0 1 -.93-.26 3.41 3.41 0 0 1 -.87-.49 2.65 2.65 0 0 1 -.69-.76v1.38h-1.7v-14.29zm6.11 7.62a3.93 3.93 0 0 0 -.58-1.24 2.85 2.85 0 0 0 -1-.85 3 3 0 0 0 -1.43-.33 3 3 0 0 0 -1.46.34 2.92 2.92 0 0 0 -1 .9 3.64 3.64 0 0 0 -.55 1.25 6.05 6.05 0 0 0 0 2.89 3.76 3.76 0 0 0 .57 1.25 2.85 2.85 0 0 0 1 .87 3.26 3.26 0 0 0 1.5.33 3 3 0 0 0 1.47-.34 2.83 2.83 0 0 0 .95-.9 4 4 0 0 0 .52-1.29 6.49 6.49 0 0 0 .16-1.47 5.1 5.1 0 0 0 -.15-1.41z"/><path d="m231.68 98.21a4.67 4.67 0 0 1 -2.92.88 5.4 5.4 0 0 1 -2.15-.39 4.34 4.34 0 0 1 -1.53-1.12 5 5 0 0 1 -.93-1.72 8.37 8.37 0 0 1 -.35-2.19 6.28 6.28 0 0 1 .36-2.16 5.1 5.1 0 0 1 1-1.69 4.37 4.37 0 0 1 1.54-1.12 4.63 4.63 0 0 1 1.95-.41 4.25 4.25 0 0 1 2.29.58 4.6 4.6 0 0 1 1.46 1.45 5.56 5.56 0 0 1 .76 1.92 8 8 0 0 1 .17 2h-7.73a3.87 3.87 0 0 0 .16 1.29 2.82 2.82 0 0 0 .58 1.08 2.77 2.77 0 0 0 1 .75 3.46 3.46 0 0 0 1.46.29 3 3 0 0 0 1.77-.5 2.45 2.45 0 0 0 .91-1.53h1.68a4.14 4.14 0 0 1 -1.48 2.59zm-.41-6.63a2.79 2.79 0 0 0 -1.54-1.58 2.78 2.78 0 0 0 -1.17-.24 2.84 2.84 0 0 0 -1.19.24 2.65 2.65 0 0 0 -.91.63 3 3 0 0 0 -.6.92 3.38 3.38 0 0 0 -.26 1.13h5.94a3.59 3.59 0 0 0 -.27-1.1z"/><path d="m236.64 88.54v2.17a4.54 4.54 0 0 1 1.52-1.85 3.87 3.87 0 0 1 2.28-.57v1.8a4.73 4.73 0 0 0 -1.74.29 2.59 2.59 0 0 0 -1.16.82 3.3 3.3 0 0 0 -.64 1.3 6.87 6.87 0 0 0 -.2 1.78v4.6h-1.7v-10.34z"/><path d="m243.06 96.57a1.75 1.75 0 0 0 .63.61 2.51 2.51 0 0 0 .88.33 4.74 4.74 0 0 0 1 .11 6.48 6.48 0 0 0 .84-.07 3 3 0 0 0 .81-.22 1.54 1.54 0 0 0 .61-.46 1.28 1.28 0 0 0 .24-.79 1.12 1.12 0 0 0 -.5-1 4.25 4.25 0 0 0 -1.25-.55c-.5-.15-1-.27-1.63-.39a8.62 8.62 0 0 1 -1.63-.47 3.33 3.33 0 0 1 -1.25-.88 2.21 2.21 0 0 1 -.5-1.55 2.45 2.45 0 0 1 .35-1.35 2.76 2.76 0 0 1 .9-.9 4.08 4.08 0 0 1 1.24-.53 5.84 5.84 0 0 1 1.37-.17 7.54 7.54 0 0 1 1.62.16 3.7 3.7 0 0 1 1.31.51 2.75 2.75 0 0 1 .91 1 3.94 3.94 0 0 1 .4 1.58h-1.7a1.77 1.77 0 0 0 -.26-.83 1.92 1.92 0 0 0 -.56-.54 3.07 3.07 0 0 0 -.75-.29 4.58 4.58 0 0 0 -.83-.09 5 5 0 0 0 -.77.07 2 2 0 0 0 -.71.21 1.4 1.4 0 0 0 -.52.39 1 1 0 0 0 -.2.66.92.92 0 0 0 .31.72 2.36 2.36 0 0 0 .79.49 7 7 0 0 0 1.08.31l1.2.28c.42.09.84.2 1.25.33a4.55 4.55 0 0 1 1.08.54 2.53 2.53 0 0 1 .76.83 2.45 2.45 0 0 1 .29 1.24 2.91 2.91 0 0 1 -.39 1.56 3.14 3.14 0 0 1 -1 1 4.64 4.64 0 0 1 -1.42.53 9.35 9.35 0 0 1 -1.57.14 7.24 7.24 0 0 1 -1.64-.17 4.3 4.3 0 0 1 -1.38-.59 3.12 3.12 0 0 1 -1-1.08 3.7 3.7 0 0 1 -.4-1.63h1.7a1.92 1.92 0 0 0 .29.95z"/><path d="m257.08 91.58a4.63 4.63 0 0 1 1-1.71 4.54 4.54 0 0 1 1.58-1.16 5.79 5.79 0 0 1 4.33 0 4.69 4.69 0 0 1 1.57 1.16 4.78 4.78 0 0 1 1 1.71 7.08 7.08 0 0 1 .32 2.13 6.88 6.88 0 0 1 -.32 2.12 4.78 4.78 0 0 1 -1 1.71 4.39 4.39 0 0 1 -1.56 1.14 5.92 5.92 0 0 1 -4.33 0 4.26 4.26 0 0 1 -1.67-1.14 4.63 4.63 0 0 1 -1-1.71 6.88 6.88 0 0 1 -.32-2.12 7.08 7.08 0 0 1 .4-2.13zm1.73 3.8a3.49 3.49 0 0 0 .69 1.23 3.07 3.07 0 0 0 1 .75 3.11 3.11 0 0 0 1.25.26 3.15 3.15 0 0 0 1.25-.26 3.29 3.29 0 0 0 1-.75 3.65 3.65 0 0 0 .69-1.23 5.29 5.29 0 0 0 .25-1.67 5.38 5.38 0 0 0 -.25-1.67 3.7 3.7 0 0 0 -.69-1.22 3.06 3.06 0 0 0 -1-.77 3.15 3.15 0 0 0 -1.25-.26 3.11 3.11 0 0 0 -1.25.26 2.88 2.88 0 0 0 -1 .77 3.53 3.53 0 0 0 -.69 1.22 5.1 5.1 0 0 0 -.25 1.67 5 5 0 0 0 .25 1.67z"/><path d="m267.76 90v-1.5h1.74v-1.5a2.44 2.44 0 0 1 .73-1.92 3.1 3.1 0 0 1 2.13-.65h.55a3.49 3.49 0 0 1 .55.12v1.49a2.41 2.41 0 0 0 -.46-.04h-.48a1.62 1.62 0 0 0 -1 .24 1.05 1.05 0 0 0 -.34.92v1.45h2v1.39h-2v8.84h-1.7v-8.84z"/><path d="m280 91.58a4.63 4.63 0 0 1 1-1.71 4.54 4.54 0 0 1 1.58-1.16 5.79 5.79 0 0 1 4.33 0 4.69 4.69 0 0 1 1.57 1.16 4.93 4.93 0 0 1 1 1.71 7.08 7.08 0 0 1 .32 2.13 6.88 6.88 0 0 1 -.32 2.12 4.93 4.93 0 0 1 -1 1.71 4.39 4.39 0 0 1 -1.57 1.14 5.92 5.92 0 0 1 -4.33 0 4.26 4.26 0 0 1 -1.58-1.14 4.63 4.63 0 0 1 -1-1.71 6.59 6.59 0 0 1 -.32-2.12 6.78 6.78 0 0 1 .32-2.13zm1.73 3.8a3.34 3.34 0 0 0 .69 1.23 3.07 3.07 0 0 0 1 .75 3.11 3.11 0 0 0 1.25.26 3.15 3.15 0 0 0 1.25-.26 3.29 3.29 0 0 0 1-.75 3.65 3.65 0 0 0 .69-1.23 5.29 5.29 0 0 0 .25-1.67 5.38 5.38 0 0 0 -.25-1.67 3.7 3.7 0 0 0 -.69-1.22 3.06 3.06 0 0 0 -1-.77 3.15 3.15 0 0 0 -1.25-.26 3.11 3.11 0 0 0 -1.25.26 2.88 2.88 0 0 0 -1 .77 3.38 3.38 0 0 0 -.69 1.22 5.1 5.1 0 0 0 -.25 1.67 5 5 0 0 0 .29 1.67z"/><path d="m298.72 98.88v-1.64a3.45 3.45 0 0 1 -1.38 1.4 4 4 0 0 1 -2 .45 4.86 4.86 0 0 1 -1.7-.26 2.72 2.72 0 0 1 -1.1-.78 2.8 2.8 0 0 1 -.59-1.18 6.16 6.16 0 0 1 -.17-1.54v-6.79h1.7v7a2 2 0 0 0 .56 1.51 2 2 0 0 0 1.54.57 3.46 3.46 0 0 0 1.35-.24 2.75 2.75 0 0 0 .95-.68 3.14 3.14 0 0 0 .57-1 4.47 4.47 0 0 0 .19-1.29v-5.87h1.7v10.34z"/><path d="m304.42 88.54v2.17a4.54 4.54 0 0 1 1.58-1.85 3.87 3.87 0 0 1 2.28-.57v1.8a4.73 4.73 0 0 0 -1.74.29 2.59 2.59 0 0 0 -1.16.82 3.17 3.17 0 0 0 -.64 1.3 6.87 6.87 0 0 0 -.2 1.78v4.6h-1.7v-10.34z"/><path d="m321.28 90.33a2.59 2.59 0 0 0 -1.72-.54 3.22 3.22 0 0 0 -1.54.34 2.64 2.64 0 0 0 -1 .91 3.55 3.55 0 0 0 -.53 1.29 6.76 6.76 0 0 0 -.16 1.5 5.5 5.5 0 0 0 .17 1.41 3.78 3.78 0 0 0 .53 1.21 2.63 2.63 0 0 0 .94.84 2.71 2.71 0 0 0 1.38.33 2.84 2.84 0 0 0 2-.66 3.07 3.07 0 0 0 .87-1.87h1.74a4.78 4.78 0 0 1 -1.43 3 4.47 4.47 0 0 1 -3.13 1 5.23 5.23 0 0 1 -2.09-.38 3.91 3.91 0 0 1 -1.52-1.08 4.45 4.45 0 0 1 -.92-1.67 6.81 6.81 0 0 1 -.31-2.13 7.52 7.52 0 0 1 .3-2.16 4.91 4.91 0 0 1 .91-1.76 4.22 4.22 0 0 1 1.53-1.19 5.07 5.07 0 0 1 2.14-.43 6.78 6.78 0 0 1 1.65.21 4 4 0 0 1 1.36.66 3.68 3.68 0 0 1 1 1.1 4.24 4.24 0 0 1 .48 1.6h-1.76a2.7 2.7 0 0 0 -.89-1.53z"/><path d="m325.6 91.58a4.63 4.63 0 0 1 1-1.71 4.54 4.54 0 0 1 1.58-1.16 5.79 5.79 0 0 1 4.33 0 4.69 4.69 0 0 1 1.49 1.16 4.93 4.93 0 0 1 1 1.71 7.08 7.08 0 0 1 .32 2.13 6.88 6.88 0 0 1 -.32 2.12 4.93 4.93 0 0 1 -1 1.71 4.39 4.39 0 0 1 -1.57 1.14 5.92 5.92 0 0 1 -4.33 0 4.26 4.26 0 0 1 -1.58-1.14 4.63 4.63 0 0 1 -1-1.71 6.59 6.59 0 0 1 -.32-2.12 6.78 6.78 0 0 1 .4-2.13zm1.73 3.8a3.34 3.34 0 0 0 .69 1.23 3.07 3.07 0 0 0 1 .75 3.11 3.11 0 0 0 1.25.26 3.15 3.15 0 0 0 1.25-.26 3.29 3.29 0 0 0 1-.75 3.65 3.65 0 0 0 .69-1.23 5.29 5.29 0 0 0 .25-1.67 5.38 5.38 0 0 0 -.25-1.67 3.7 3.7 0 0 0 -.69-1.22 3.06 3.06 0 0 0 -1-.77 3.15 3.15 0 0 0 -1.25-.26 3.11 3.11 0 0 0 -1.25.26 2.88 2.88 0 0 0 -1 .77 3.38 3.38 0 0 0 -.69 1.22 5.1 5.1 0 0 0 -.25 1.67 5 5 0 0 0 .25 1.67z"/><path d="m338.92 88.54v1.51a4 4 0 0 1 5.08-1.35 2.25 2.25 0 0 1 1.1 1.35 3.64 3.64 0 0 1 1.37-1.3 3.92 3.92 0 0 1 1.87-.46 5.56 5.56 0 0 1 1.41.17 2.89 2.89 0 0 1 1.08.54 2.4 2.4 0 0 1 .7.92 3.53 3.53 0 0 1 .25 1.37v7.59h-1.7v-6.79a5 5 0 0 0 -.08-.89 2.13 2.13 0 0 0 -.3-.74 1.58 1.58 0 0 0 -.61-.49 2.61 2.61 0 0 0 -1-.18 2.72 2.72 0 0 0 -2 .72 2.61 2.61 0 0 0 -.72 1.92v6.45h-1.7v-6.79a4.49 4.49 0 0 0 -.09-.92 2 2 0 0 0 -.31-.72 1.57 1.57 0 0 0 -.59-.49 2.37 2.37 0 0 0 -1-.17 2.51 2.51 0 0 0 -1.27.3 2.82 2.82 0 0 0 -.86.73 2.73 2.73 0 0 0 -.48.86 2.58 2.58 0 0 0 -.15.75v6.45h-1.7v-10.34z"/><path d="m356 88.54v1.51a4 4 0 0 1 5.08-1.35 2.25 2.25 0 0 1 1.1 1.35 3.64 3.64 0 0 1 1.37-1.3 3.92 3.92 0 0 1 1.87-.46 5.56 5.56 0 0 1 1.41.17 2.89 2.89 0 0 1 1.08.54 2.4 2.4 0 0 1 .7.92 3.53 3.53 0 0 1 .25 1.37v7.59h-1.7v-6.79a5 5 0 0 0 -.08-.89 2.13 2.13 0 0 0 -.3-.74 1.58 1.58 0 0 0 -.61-.49 2.61 2.61 0 0 0 -1-.18 2.72 2.72 0 0 0 -2 .72 2.61 2.61 0 0 0 -.72 1.92v6.45h-1.7v-6.79a4.49 4.49 0 0 0 -.09-.92 2 2 0 0 0 -.31-.72 1.57 1.57 0 0 0 -.59-.49 2.37 2.37 0 0 0 -1-.17 2.51 2.51 0 0 0 -1.27.3 2.82 2.82 0 0 0 -.86.73 2.73 2.73 0 0 0 -.48.86 2.58 2.58 0 0 0 -.15.75v6.45h-1.7v-10.34z"/><path d="m378.4 98.88v-1.64a3.45 3.45 0 0 1 -1.38 1.4 4 4 0 0 1 -2 .45 4.86 4.86 0 0 1 -1.7-.26 2.72 2.72 0 0 1 -1.1-.78 2.8 2.8 0 0 1 -.59-1.18 6.16 6.16 0 0 1 -.17-1.54v-6.79h1.7v7a2 2 0 0 0 .56 1.51 2 2 0 0 0 1.54.57 3.46 3.46 0 0 0 1.35-.24 2.75 2.75 0 0 0 1-.68 3.14 3.14 0 0 0 .57-1 4.47 4.47 0 0 0 .19-1.29v-5.87h1.63v10.34z"/><path d="m384.16 88.54v1.63a3.57 3.57 0 0 1 3.36-1.88 4.43 4.43 0 0 1 1.7.29 2.69 2.69 0 0 1 1.1.78 2.92 2.92 0 0 1 .59 1.18 6.6 6.6 0 0 1 .17 1.54v6.8h-1.7v-7a1.95 1.95 0 0 0 -2.1-2.09 3.46 3.46 0 0 0 -1.28.21 2.52 2.52 0 0 0 -1 .67 2.78 2.78 0 0 0 -.57 1 4.06 4.06 0 0 0 -.19 1.29v5.84h-1.7v-10.26z"/><path d="m393.78 86.67v-2.08h1.7v2.08zm1.7 1.87v10.34h-1.7v-10.34z"/><path d="m402.54 88.54v1.46h-2.06v6.42a1.49 1.49 0 0 0 0 .47.43.43 0 0 0 .19.28.69.69 0 0 0 .39.13 3.8 3.8 0 0 0 .65 0h.78v1.5h-1.3a7.08 7.08 0 0 1 -1.13-.09 1.72 1.72 0 0 1 -.76-.33 1.4 1.4 0 0 1 -.43-.68 3.79 3.79 0 0 1 -.14-1.16v-6.54h-1.73v-1.5h1.76v-3.07h1.7v3.11z"/><path d="m408.48 100.25a11.61 11.61 0 0 1 -.59 1.29 3.63 3.63 0 0 1 -.64.84 2.32 2.32 0 0 1 -.78.49 3.33 3.33 0 0 1 -1 .14 4 4 0 0 1 -.6 0 2.24 2.24 0 0 1 -.58-.14v-1.55a3.37 3.37 0 0 0 .51.17 2.41 2.41 0 0 0 .49.06 1.46 1.46 0 0 0 .87-.25 1.5 1.5 0 0 0 .53-.71l.7-1.73-4.1-10.28h1.92l3 8.46 2.9-8.46h1.89z"/><path d="m415.54 96.66v2.22h-2.22v-2.22z"/></g></g></svg>