<svg id="Layer_1" data-name="Layer 1" xmlns="http://www.w3.org/2000/svg" xmlns:xlink="http://www.w3.org/1999/xlink" viewBox="0 0 677.71 240"><defs><linearGradient id="linear-gradient" x1="378.1" y1="780.1" x2="377.85" y2="779.52" gradientTransform="matrix(240, 0, 0, -240, -90588.54, 187262.97)" gradientUnits="userSpaceOnUse"><stop offset="0" stop-color="#37aee2"/><stop offset="1" stop-color="#1e96c8"/></linearGradient><linearGradient id="linear-gradient-2" x1="377.6" y1="778.92" x2="377.79" y2="778.55" gradientTransform="matrix(130.49, 0, 0, -109.45, -48899.32, 85541.5)" gradientUnits="userSpaceOnUse"><stop offset="0" stop-color="#eff7fc"/><stop offset="1" stop-color="#fff"/></linearGradient></defs><title>Excelize Telegram Group</title><circle cx="120" cy="120" r="120" style="fill:url(#linear-gradient)"/><path d="M344.54,341c-3.89,0-3.23-1.47-4.57-5.17l-11.43-37.62,88-52.21" transform="translate(-246.54 -166.03)" style="fill:#c8daea"/><path d="M344.54,341c3,0,4.32-1.37,6-3l16-15.56-20-12" transform="translate(-246.54 -166.03)" style="fill:#a9c9dd"/><path d="M346.58,310.44l48.36,35.73c5.51,3,9.5,1.47,10.87-5.13l19.69-92.76c2-8.08-3.08-11.74-8.36-9.35L301.55,283.5c-7.89,3.17-7.85,7.57-1.44,9.53l29.66,9.26L398.44,259c3.25-2,6.22-.91,3.78,1.25" transform="translate(-246.54 -166.03)" style="fill:url(#linear-gradient-2)"/><path d="M538.13,212.92H516v-8h53.8v8H547.62v64.69h-9.49Z" transform="translate(-246.54 -166.03)" style="fill:#4d4d4d"/><path d="M575.22,253.24c.22,12.83,8.41,18.12,17.9,18.12a34.32,34.32,0,0,0,14.45-2.7l1.62,6.8c-3.35,1.5-9.06,3.23-17.36,3.23-16.07,0-25.66-10.57-25.66-26.31s9.27-28.14,24.47-28.14c17,0,21.56,15,21.56,24.58a35.49,35.49,0,0,1-.32,4.42ZM603,246.45c.11-6-2.48-15.42-13.15-15.42-9.6,0-13.8,8.85-14.56,15.42Z" transform="translate(-246.54 -166.03)" style="fill:#4d4d4d"/><path d="M624,201.06h9.49v76.55H624Z" transform="translate(-246.54 -166.03)" style="fill:#4d4d4d"/><path d="M654.69,253.24c.21,12.83,8.41,18.12,17.89,18.12a34.28,34.28,0,0,0,14.45-2.7l1.62,6.8c-3.34,1.5-9.06,3.23-17.36,3.23-16.06,0-25.66-10.57-25.66-26.31s9.27-28.14,24.47-28.14c17,0,21.57,15,21.57,24.58a37.57,37.57,0,0,1-.32,4.42Zm27.81-6.79c.11-6-2.48-15.42-13.15-15.42-9.6,0-13.8,8.85-14.56,15.42Z" transform="translate(-246.54 -166.03)" style="fill:#4d4d4d"/><path d="M748.38,225.43c-.21,3.77-.43,8-.43,14.34v30.29c0,12-2.37,19.3-7.44,23.83-5.06,4.75-12.4,6.26-19,6.26-6.26,0-13.16-1.51-17.36-4.32l2.37-7.22a29.39,29.39,0,0,0,15.31,4.1c9.7,0,16.82-5.07,16.82-18.23v-5.82h-.22c-2.91,4.85-8.51,8.74-16.6,8.74-12.94,0-22.21-11-22.21-25.45,0-17.68,11.54-27.71,23.5-27.71,9.06,0,14,4.75,16.28,9.06h.22l.43-7.87ZM738.57,246a13.51,13.51,0,0,0-.54-4.31c-1.72-5.5-6.36-10-13.26-10-9.06,0-15.52,7.66-15.52,19.73,0,10.24,5.17,18.76,15.41,18.76a13.87,13.87,0,0,0,13.16-9.7,16.49,16.49,0,0,0,.75-5.07Z" transform="translate(-246.54 -166.03)" style="fill:#4d4d4d"/><path d="M763.05,241.71c0-6.15-.11-11.43-.43-16.28h8.3l.32,10.24h.43c2.38-7,8.09-11.43,14.45-11.43a10.53,10.53,0,0,1,2.7.32v8.95a14.61,14.61,0,0,0-3.24-.32c-6.68,0-11.43,5.07-12.72,12.18a27.48,27.48,0,0,0-.43,4.42v27.82h-9.38Z" transform="translate(-246.54 -166.03)" style="fill:#4d4d4d"/><path d="M826.67,277.61l-.76-6.58h-.32a19.44,19.44,0,0,1-16,7.77c-10.57,0-16-7.44-16-15,0-12.61,11.21-19.51,31.38-19.41v-1.07c0-4.32-1.19-12.08-11.86-12.08a26,26,0,0,0-13.59,3.88l-2.15-6.25a32.3,32.3,0,0,1,17.14-4.64c16,0,19.84,10.89,19.84,21.35V265.1a73.22,73.22,0,0,0,.86,12.51ZM825.26,251c-10.35-.22-22.1,1.62-22.1,11.75,0,6.15,4.1,9.06,9,9.06a13,13,0,0,0,12.61-8.73,9.72,9.72,0,0,0,.54-3Z" transform="translate(-246.54 -166.03)" style="fill:#4d4d4d"/><path d="M849.74,239.55c0-5.39-.11-9.81-.43-14.12h8.3l.43,8.41h.33c2.91-5,7.76-9.6,16.38-9.6a15.44,15.44,0,0,1,14.78,10.46h.21a21.53,21.53,0,0,1,5.82-6.79,17.84,17.84,0,0,1,11.54-3.67c6.9,0,17.14,4.53,17.14,22.64v30.73H915V248.07c0-10-3.67-16.07-11.32-16.07-5.39,0-9.6,4-11.21,8.63a15.33,15.33,0,0,0-.76,4.74v32.24h-9.27V246.34c0-8.3-3.67-14.34-10.89-14.34-5.93,0-10.24,4.75-11.75,9.49a13.06,13.06,0,0,0-.76,4.64v31.48h-9.27Z" transform="translate(-246.54 -166.03)" style="fill:#4d4d4d"/><path d="M529.39,320.34v10.3h9.34v5h-9.34v19.33c0,4.44,1.26,7,4.89,7a14.59,14.59,0,0,0,3.78-.44l.3,4.89a16.15,16.15,0,0,1-5.78.89,9,9,0,0,1-7-2.75c-1.85-1.92-2.52-5.11-2.52-9.33V335.6h-5.55v-5H523V322Z" transform="translate(-246.54 -166.03)" style="fill:#777"/><path d="M544.28,362.63a4.37,4.37,0,0,1,4.44-4.66,4.67,4.67,0,0,1-.07,9.33A4.37,4.37,0,0,1,544.28,362.63Z" transform="translate(-246.54 -166.03)" style="fill:#777"/><path d="M561.16,340.34c0-3.7-.07-6.74-.29-9.7h5.7l.3,5.77h.22a12.36,12.36,0,0,1,11.26-6.59A10.6,10.6,0,0,1,588.5,337h.14a14.78,14.78,0,0,1,4-4.67,12.24,12.24,0,0,1,7.93-2.52c4.74,0,11.77,3.11,11.77,15.56v21.1H606V346.19c0-6.89-2.51-11-7.77-11-3.71,0-6.59,2.75-7.71,5.93a10.93,10.93,0,0,0-.51,3.26v22.14h-6.37V345c0-5.71-2.52-9.86-7.48-9.86-4.08,0-7,3.26-8.08,6.52a9.05,9.05,0,0,0-.52,3.19v21.62h-6.37Z" transform="translate(-246.54 -166.03)" style="fill:#777"/><path d="M626.56,349.75c.15,8.81,5.78,12.44,12.3,12.44a23.66,23.66,0,0,0,9.92-1.85l1.11,4.66A28.92,28.92,0,0,1,638,367.23c-11,0-17.63-7.26-17.63-18.08s6.37-19.33,16.81-19.33c11.7,0,14.82,10.3,14.82,16.89a23.32,23.32,0,0,1-.23,3Zm19.11-4.67c.07-4.15-1.7-10.59-9-10.59-6.59,0-9.48,6.07-10,10.59Z" transform="translate(-246.54 -166.03)" style="fill:#777"/><path d="M654.55,369.45l20.67-53.7h5l-20.74,53.7Z" transform="translate(-246.54 -166.03)" style="fill:#777"/><path d="M689.07,349.75c.15,8.81,5.77,12.44,12.29,12.44a23.72,23.72,0,0,0,9.93-1.85L712.4,365a29,29,0,0,1-11.93,2.23c-11,0-17.62-7.26-17.62-18.08s6.37-19.33,16.81-19.33c11.7,0,14.81,10.3,14.81,16.89a25.71,25.71,0,0,1-.22,3Zm19.11-4.67c.07-4.15-1.71-10.59-9-10.59-6.59,0-9.48,6.07-10,10.59Z" transform="translate(-246.54 -166.03)" style="fill:#777"/><path d="M725.36,330.64l5.11,7.7c1.33,2,2.44,3.85,3.63,5.85h.22c1.18-2.15,2.37-4,3.55-5.92l5-7.63h7L737.73,348l12.59,18.51h-7.41l-5.26-8.07c-1.41-2.07-2.59-4.07-3.85-6.22h-.15c-1.18,2.15-2.44,4.07-3.77,6.22l-5.19,8.07h-7.18l12.74-18.29L718.1,330.64Z" transform="translate(-246.54 -166.03)" style="fill:#777"/><path d="M781.05,365.15a23.94,23.94,0,0,1-10.29,2.08c-10.82,0-17.85-7.34-17.85-18.3s7.55-19,19.25-19a21.77,21.77,0,0,1,9,1.85l-1.48,5a15.24,15.24,0,0,0-7.56-1.7c-8.22,0-12.66,6.07-12.66,13.55,0,8.3,5.33,13.41,12.44,13.41a18.41,18.41,0,0,0,8-1.78Z" transform="translate(-246.54 -166.03)" style="fill:#777"/><path d="M791.86,349.75c.15,8.81,5.78,12.44,12.3,12.44a23.66,23.66,0,0,0,9.92-1.85l1.11,4.66a28.92,28.92,0,0,1-11.92,2.23c-11,0-17.63-7.26-17.63-18.08s6.37-19.33,16.82-19.33c11.7,0,14.81,10.3,14.81,16.89a25.71,25.71,0,0,1-.22,3ZM811,345.08c.08-4.15-1.7-10.59-9-10.59-6.6,0-9.48,6.07-10,10.59Z" transform="translate(-246.54 -166.03)" style="fill:#777"/><path d="M825.34,313.9h6.52v52.58h-6.52Z" transform="translate(-246.54 -166.03)" style="fill:#777"/><path d="M850.07,320.56a4,4,0,0,1-8.07,0,4,4,0,0,1,4.08-4.07A3.86,3.86,0,0,1,850.07,320.56Zm-7.25,45.92V330.64h6.51v35.84Z" transform="translate(-246.54 -166.03)" style="fill:#777"/><path d="M856.07,362.71l16.22-21.11c1.56-1.93,3-3.63,4.67-5.56v-.14H857.55v-5.26h27.33l-.07,4.07-16,20.81c-1.48,2-3,3.78-4.59,5.63v.15h21v5.18H856.07Z" transform="translate(-246.54 -166.03)" style="fill:#777"/><path d="M895,349.75c.14,8.81,5.77,12.44,12.29,12.44a23.63,23.63,0,0,0,9.92-1.85l1.12,4.66a29,29,0,0,1-11.93,2.23c-11,0-17.63-7.26-17.63-18.08s6.37-19.33,16.82-19.33c11.7,0,14.81,10.3,14.81,16.89a25.71,25.71,0,0,1-.22,3Zm19.1-4.67c.08-4.15-1.7-10.59-9-10.59-6.59,0-9.48,6.07-10,10.59Z" transform="translate(-246.54 -166.03)" style="fill:#777"/></svg>